<?xml version="1.0" encoding="UTF-8"?>
<svg id="Capa_1" data-name="Capa 1" xmlns="http://www.w3.org/2000/svg" viewBox="0 0 800 527.44">
  <defs>
    <style>
      .cls-1 {
        fill: #0ddff2;
      }
    </style>
  </defs>
  <path class="cls-1" d="M384.92,488.97V64.62c0-.86.08-1.74.25-2.6.02-.05.11-.54.32-1.32-6.41-16.94-31.12-60.69-115.36-60.69C201.57,0,110.72,28.51,0,84.78v442.66c48.58-22.76,174.22-76.68,274.9-76.68,54.77,0,88.83,16.28,110.02,38.21ZM71.52,131.27c6.39-3.29,157.65-80.46,231.09-41.1,6.78,3.64,9.32,12.07,5.69,18.84-3.62,6.76-12.05,9.31-18.84,5.69-6.4-3.44-13.86-5.64-22.04-6.87-36.44-5.48-87.73,8.72-128.89,24.35-22.47,8.53-41.93,17.46-54.26,23.82-2.03,1.05-4.22,1.55-6.37,1.55-5.03,0-9.91-2.74-12.39-7.53-3.5-6.84-.82-15.23,6.02-18.75ZM71.52,218.52c6.39-3.3,157.65-80.44,231.09-41.1,6.78,3.63,9.32,12.07,5.69,18.84-3.62,6.75-12.05,9.32-18.84,5.69-6.4-3.42-13.85-5.64-22.03-6.88-36.45-5.48-87.75,8.74-128.91,24.35-22.47,8.53-41.92,17.45-54.25,23.81-2.03,1.05-4.22,1.54-6.37,1.54-5.03,0-9.91-2.74-12.39-7.53-3.52-6.8-.83-15.21,6-18.73ZM138.55,306.69c-22.47,8.53-41.95,17.46-54.28,23.82-2.03,1.05-4.22,1.55-6.37,1.55-5.03,0-9.91-2.74-12.39-7.53-3.52-6.83-.85-15.23,5.99-18.77,6.39-3.29,157.65-80.44,231.09-41.09,6.77,3.63,9.32,12.07,5.69,18.83-3.62,6.77-12.05,9.31-18.84,5.69-6.4-3.44-13.86-5.64-22.05-6.88-36.4-5.45-87.68,8.75-128.84,24.36Z"/>
  <path class="cls-1" d="M414.53,60.7c-.93,2.45-1.49,4.35-1.78,5.5v425.08c.73-.8,1.59-1.52,2.33-2.31,21.21-21.93,55.26-38.21,110.01-38.21,100.67,0,226.33,53.92,274.91,76.68V84.78C689.28,28.51,598.43,0,529.88,0,445.75,0,420.99,43.66,414.53,60.7ZM730.13,324.52c-2.47,4.8-7.32,7.54-12.38,7.54-2.13,0-4.34-.5-6.36-1.55-12.35-6.37-31.88-15.31-54.39-23.85-41.15-15.59-92.36-29.76-128.71-24.31-8.22,1.22-15.68,3.42-22.07,6.86-6.79,3.62-15.23,1.06-18.85-5.69-3.63-6.78-1.07-15.2,5.69-18.84,73.46-39.33,224.67,37.82,231.08,41.12,6.83,3.5,9.51,11.9,5.98,18.73ZM730.13,237.25c-2.47,4.8-7.32,7.54-12.38,7.54-2.13,0-4.34-.49-6.36-1.54-12.35-6.37-31.86-15.31-54.39-23.83-41.15-15.59-92.38-29.75-128.71-24.31-8.22,1.22-15.68,3.42-22.07,6.86-6.79,3.6-15.23,1.05-18.85-5.69-3.63-6.77-1.07-15.21,5.69-18.84,73.46-39.34,224.67,37.8,231.08,41.1,6.83,3.49,9.51,11.89,5.98,18.71ZM724.15,131.27c6.82,3.52,9.51,11.91,5.98,18.75-2.47,4.8-7.32,7.54-12.38,7.54-2.13,0-4.34-.5-6.36-1.55-12.37-6.37-31.89-15.32-54.42-23.85-41.15-15.59-92.35-29.75-128.68-24.31-8.22,1.22-15.68,3.44-22.07,6.86-6.79,3.62-15.23,1.05-18.85-5.69-3.63-6.77-1.07-15.21,5.69-18.84,73.46-39.38,224.67,37.78,231.08,41.09Z"/>
</svg>