<?xml version="1.0" encoding="UTF-8"?>
<svg id="Layer_1" data-name="Layer 1" xmlns="http://www.w3.org/2000/svg" viewBox="0 0 716.68 500">
  <defs>
    <style>
      .cls-1 {
        fill: #0dd9d9;
        isolation: isolate;
        opacity: .5;
      }

      .cls-2, .cls-3 {
        fill: #1c274c;
      }

      .cls-3 {
        fill-rule: evenodd;
      }
    </style>
  </defs>
  <path class="cls-1" d="M278.53,52.08c25.54,0,30.46-5.2,79.8-5.2s54.26,5.2,79.8,5.2C459.41,52.08,523.26,0,555.18,0s69.16,18.75,69.16,72.92v62.5c-.07,16.41-6.03,66.7-29.36,53.26,37.07,43.81,29.36,97.38,29.36,144.66,0,130.21-175.56,166.67-266,166.67s-266-36.46-266-166.67c0-47.28-7.71-100.85,29.36-144.66-23.33,13.44-29.29-36.85-29.36-53.26v-62.5C92.33,18.75,129.57,0,161.49,0s95.76,52.08,117.04,52.08Z"/>
  <path class="cls-2" d="M258.87,235.42c-16.29,0-27.16,10.58-32.66,19.46-5.74,9.26-8.47,20.49-8.47,31.58s2.73,22.31,8.47,31.58c5.5,8.88,16.36,19.46,32.66,19.46s27.16-10.58,32.66-19.46c5.74-9.26,8.47-20.49,8.47-31.58s-2.73-22.32-8.47-31.58c-5.5-8.88-16.36-19.46-32.66-19.46Z"/>
  <path class="cls-2" d="M426.22,254.88c5.5-8.88,16.36-19.46,32.66-19.46s27.16,10.58,32.66,19.46c5.74,9.26,8.47,20.49,8.47,31.58s-2.73,22.31-8.47,31.58c-5.5,8.88-16.36,19.46-32.66,19.46s-27.16-10.58-32.66-19.46c-5.74-9.26-8.47-20.49-8.47-31.58s2.73-22.32,8.47-31.58Z"/>
  <path class="cls-3" d="M330.94,335.99c8.41-3.26,18.33-4.74,28.04-4.74s19.63,1.48,28.04,4.74c4.12,1.6,9.17,4.12,13.61,8.19,4.46,4.09,10.23,11.65,10.23,22.49s-5.76,18.4-10.23,22.49c-4.44,4.07-9.49,6.59-13.61,8.19-8.41,3.26-18.33,4.74-28.04,4.74s-19.63-1.48-28.04-4.74c-4.12-1.6-9.17-4.12-13.62-8.19-4.46-4.09-10.22-11.65-10.22-22.49s5.76-18.4,10.22-22.49c4.45-4.07,9.49-6.59,13.62-8.19Z"/>
  <path class="cls-2" d="M553.78,312.5c0-13.81,11.19-25,25-25,9.86,0,21.67,2.25,32.69,4.96,11.49,2.83,23.98,6.64,35.88,10.71,22.8,7.8,46.97,17.74,57.9,24.79,11.6,7.49,14.93,22.97,7.44,34.56-7.49,11.6-22.97,14.93-34.56,7.44-5.21-3.36-24.04-11.65-46.95-19.48-10.94-3.74-21.97-7.09-31.65-9.47-10.16-2.5-17.16-3.51-20.74-3.51-13.81,0-25-11.19-25-25Z"/>
  <path class="cls-2" d="M557.26,370.83c-13.81,0-25,11.19-25,25s11.19,25,25,25c6.87,0,18.32,3.84,32.67,11.43,11.4,6.02,21.86,12.85,30.03,18.19,1.54,1,3.01,1.96,4.37,2.85,11.6,7.49,27.07,4.16,34.57-7.44,7.49-11.6,4.16-27.07-7.44-34.56-1.1-.71-2.36-1.54-3.76-2.45-8.08-5.28-20.75-13.57-34.41-20.79-15.21-8.04-36.03-17.22-56.03-17.22Z"/>
  <path class="cls-2" d="M85.51,350.48c-22.9,7.83-41.74,16.12-46.94,19.48-11.6,7.49-27.07,4.16-34.56-7.44-7.49-11.6-4.16-27.07,7.44-34.56,10.92-7.05,35.1-16.99,57.89-24.79,11.91-4.07,24.4-7.88,35.89-10.71,11.01-2.71,22.83-4.96,32.69-4.96,13.81,0,25,11.19,25,25s-11.19,25-25,25c-3.58,0-10.58,1.01-20.74,3.51-9.68,2.38-20.71,5.73-31.65,9.47Z"/>
  <path class="cls-2" d="M92.34,453.29c1.37-.89,2.83-1.84,4.37-2.85,8.18-5.34,18.63-12.16,30.03-18.19,14.35-7.59,25.8-11.43,32.67-11.43,13.81,0,25-11.19,25-25s-11.19-25-25-25c-20.01,0-40.82,9.18-56.03,17.22-13.66,7.22-26.33,15.5-34.41,20.79-1.4.91-2.66,1.74-3.76,2.45-11.6,7.49-14.93,22.97-7.44,34.56,7.49,11.6,22.97,14.93,34.56,7.44Z"/>
</svg>