<?xml version="1.0" encoding="UTF-8"?>
<svg id="Layer_1" data-name="Layer 1" xmlns="http://www.w3.org/2000/svg" viewBox="0 0 1310.56 590.46">
  <defs>
    <style>
      .cls-1 {
        fill: #92879f;
      }

      .cls-2 {
        fill: #e2bdaa;
      }

      .cls-3 {
        fill: #dabb93;
      }

      .cls-4 {
        fill: #fde4c6;
      }

      .cls-5 {
        fill: #867986;
      }
    </style>
  </defs>
  <path class="cls-5" d="M738.68,462.7c-1.59,17.06-5.61,32.36-9.01,48.91,102.18,28.22,187.47,24.54,232.98-82.38,2.19-5.14,3.58-10.58,6.44-15.45,1,19.27-7.53,41.62-16.73,59.21-10.58,20.23-22,30.16-38.62,45.05,60.47,9.3,124.61-8.98,164.76-55.35,3.48-1.17,7.52-8.65,7.72-1.29-9.73,12.58-17.38,26.47-25.74,39.9-2.82,4.53-17.93,16.41-15.45,21.88,39.28,21.38,87.1,8.38,121-16.73-6,10.16-12.43,18.89-19.31,28.32,39.69,1.71,80.01-10.23,102.98-43.76l-9.01,28.32-18.02,16.73c-1.85,8.94,58.62-11.22,66.93-16.73-29.21,24.95-84.3,46.55-122.28,48.91-23.19,1.44-41.12-8.06-56.64-7.72-17.35.37-37.21,11.64-64.36,7.72-13.41-1.93-42.19-20.98-48.91-20.6-2.01.11-29.49,16.26-36.04,18.02-60.76,16.3-83.77,6.81-139.02,10.3-23.67,1.49-44.94,13.96-79.81,12.87-28.39-.89-89.3-21.55-105.55-20.6-4.72.28-33.47,13.94-43.76,15.45-56.71,8.31-105.72,10.59-162.19-2.57-12.9-3.01-62.92-25.54-66.93-25.74-6.54-.34-23.88,11.81-33.47,12.87-14.62,1.61-44.36,1.37-59.21,0-13.44-1.24-63.48-18.32-66.93-18.02-1.32.11-16.28,12.01-23.17,12.87-49.03,6.17-135.08.93-168.62-41.19,38.67,22.3,84.24,31.57,128.72,21.88,1.86-4.33-19.38-17.26-23.17-19.31-3.63-5.42-11.82-26.78-6.44-30.89,6.12,8.28,13.66,12.44,21.88,18.02,16.48,11.17,29.04,25.33,51.49,14.16-7.03-6.45-13.39-13.49-18.02-21.88-6.38-11.56-15.49-25.1-11.58-38.62.54-.41,7.97,8.88,9.01,10.3,42.34,57.53,100.27,74.91,169.91,65.65-14.37-20.35-38.03-43.64-48.91-65.65-1.82-3.67-3.85-11.15-5.15-15.45,39.18,31.57,83.07,79.48,139.02,63.07-17.13-12.3-34.76-25.61-50.2-39.9-4.47-4.14-8.75-15.31-11.58-18.02,2.27-.11,2.58,2.21,5.15,2.57,66.42,69.72,136,28.72,186.64-33.47,1.8-2.21,6.96-9.05,6.44,0-7.33,14.48-18.88,35.06-10.3,48.91,5.84,9.42,14.13,8.74,20.6,16.73l-21.88-11.58c-8.45,8.03,20.46,26.07,25.74,28.32,21.23,9.01,44.15,9.05,66.93,7.72l-20.6-5.15c65.93-9.42,99.5-30.58,117.14-95.25,1.8-6.61,1.84-16.84,7.72-21.88,1.34,20.46-.68,40.24-2.57,60.5Z"/>
  <path class="cls-2" d="M118.24,524.48c3.79,2.05,25.03,14.98,23.17,19.31-44.48,9.68-90.05.41-128.72-21.88-4.47-5.61-8.2-8.18-10.3-15.45,28.37,22.38,64.34,33.04,100.4,32.18.93-3.09-50.25-28.68-47.63-42.48,16.87,15.52,44.52,18.28,63.07,28.32Z"/>
  <path class="cls-2" d="M1310.19,493.59c-2.68,6.15-15.8,22.56-20.6,25.74-8.32,5.52-68.78,25.67-66.93,16.73l18.02-16.73,69.51-25.74Z"/>
  <path class="cls-2" d="M962.65,429.23c-45.51,106.92-130.8,110.6-232.98,82.38,3.4-16.56,7.42-31.85,9.01-48.91,26.38,3.91,56.33-12.45,70.8-36.04l-5.15,48.91c58.85,4.22,113.8-5.99,158.33-46.34Z"/>
  <path class="cls-2" d="M285.58,475.57c10.88,22.01,34.55,45.3,48.91,65.65-69.64,9.26-127.57-8.12-169.91-65.65,38.49,18.89,82.23,20.83,121,0Z"/>
  <path class="cls-2" d="M733.53,424.08c-17.63,64.67-51.2,85.83-117.14,95.25l20.6,5.15c-22.78,1.33-45.71,1.29-66.93-7.72-5.29-2.24-34.2-20.29-25.74-28.32l21.88,11.58c-6.47-7.99-14.76-7.31-20.6-16.73,67.76,14.22,144.53-3.05,187.93-59.21Z"/>
  <path class="cls-2" d="M555.89,434.38c.52-9.05-4.63-2.21-6.44,0-50.64,62.19-120.22,103.18-186.64,33.47,76.42,10.75,139.24-8.6,202.09-51.49,9.26-.59-8.17,16.37-9.01,18.02Z"/>
  <path class="cls-3" d="M1078.5,462.7c-40.16,46.37-104.29,64.65-164.76,55.35,16.62-14.9,28.04-24.82,38.62-45.05,30.84.75,50.9-37.85,57.92-64.36,7.44,15.14-13.81,46.77-14.16,60.5-.27,10.66,10.42.34,7.72,7.72-2.27,6.22-17.14,12.35-19.31,19.31,28.26-16.26,13.15-.48,18.02,2.57,10.74,6.73,61.94-31.34,75.94-36.04Z"/>
  <path class="cls-2" d="M357.66,465.27c2.83,2.71,7.12,13.89,11.58,18.02,15.44,14.3,33.08,27.6,50.2,39.9-55.95,16.41-99.84-31.5-139.02-63.07-11.22-37.02,19.46,7.94,34.75,12.87,4.57,1.47,28.24,4.1,30.89,2.57l-5.15-18.02c11.52,4.89,8.3-.34,16.73,7.72Z"/>
  <path class="cls-2" d="M1166.03,506.46c-33.89,25.11-81.72,38.11-121,16.73-2.48-5.48,12.63-17.35,15.45-21.88,39.98,21.56,94-.96,122.28-33.47,3.75,10.65-11.12,29.11-16.73,38.62Z"/>
  <path class="cls-2" d="M133.69,511.61l33.47-7.72c4.63,8.39,10.99,15.44,18.02,21.88-22.45,11.17-35.01-2.99-51.49-14.16Z"/>
  <g>
    <path class="cls-4" d="M785.01,99.7l-3.86,12.87c-42.1-33.16-93.37-65.23-145.45-75.94,64.47,25.42,120.64,69.76,175.06,111.99,25.06,19.45,40.85,28.29,64.36,52.78,8.56,8.92,21.08,35.5,25.74,39.9,1.83,15.19-39.78-6.02-42.48-7.72-49.94-31.48-28.45-80.24-113.27-92.68-31.02-4.55-103.45,7.21-122.28,34.75-.97,1.41-8.91,12.06-1.29,11.58,6.37-19.84,27.7-9.26,38.62-12.87,23.84-7.89,21.51-22.23,54.06-18.02,57.85,7.48,66.28,31.08,102.98,59.21,6.5,4.98,23.77,3.82,29.61,14.16.79,3.47-27.37,34.28-29.61,34.75-3.72.79-24.57-26.44-34.75-14.16-3.52,4.25,32,31.4,14.16,47.63-24.15-28.17-58.37-35.07-78.52,1.29,4.53,4.6,12.27-8.07,19.31-9.01,52.25-7,56.56,73.73,61.79,74.66,17.66-38.56,49.91-86.8,96.54-52.78-3.73-54.52-61.17-34.56-88.82-9.01,9.28-52.92,85.35-53.31,127.43-43.76,53.27,12.09,80.34,56.9,87.53,108.13-20.96-14.72-35.81-43.28-61.79-50.2l64.36,75.94c69.22-43.73,167.31-26.99,191.79,59.21,37-16.6,119.59-17.53,93.97,41.19l-69.51,25.74,9.01-28.32c-22.96,33.53-63.28,45.47-102.98,43.76,6.87-9.43,13.31-18.16,19.31-28.32,5.62-9.51,20.49-27.97,16.73-38.62-28.29,32.51-82.3,55.03-122.28,33.47,8.36-13.43,16.02-27.33,25.74-39.9-.2-7.37-4.24.12-7.72,1.29-14,4.7-65.21,42.77-75.94,36.04-4.87-3.05,10.24-18.83-18.02-2.57,2.17-6.96,17.04-13.09,19.31-19.31,2.69-7.39-8,2.94-7.72-7.72.35-13.72,21.6-45.36,14.16-60.5-7.02,26.51-27.08,65.11-57.92,64.36,9.2-17.59,17.73-39.94,16.73-59.21-2.86,4.87-4.25,10.31-6.44,15.45-44.53,40.35-99.48,50.56-158.33,46.34l5.15-48.91c-14.46,23.59-44.41,39.95-70.8,36.04,1.89-20.26,3.92-40.04,2.57-60.5-5.89,5.05-5.92,15.27-7.72,21.88-43.4,56.16-120.17,73.43-187.93,59.21-8.58-13.85,2.97-34.43,10.3-48.91.84-1.65,18.27-18.61,9.01-18.02-62.85,42.88-125.67,62.24-202.09,51.49-2.57-.36-2.88-2.68-5.15-2.57-8.43-8.06-5.21-2.83-16.73-7.72l5.15,18.02c-2.65,1.52-26.32-1.1-30.89-2.57-15.29-4.93-45.98-49.89-34.75-12.87,1.3,4.29,3.33,11.77,5.15,15.45-38.77,20.83-82.51,18.89-121,0-1.04-1.42-8.47-10.71-9.01-10.3-3.91,13.52,5.2,27.06,11.58,38.62l-33.47,7.72c-8.22-5.58-15.76-9.74-21.88-18.02-5.38,4.12,2.8,25.48,6.44,30.89-18.55-10.04-46.2-12.8-63.07-28.32-2.62,13.8,48.56,39.38,47.63,42.48-36.06.86-72.03-9.8-100.4-32.18-17.53-60.69,65.71-53.31,102.98-52.78-12.28-50.42,1.12-98.03,47.63-124.86,7.48-4.32,37.12-11.34,38.62-12.87,1.29-1.32,5.14-21.29,9.01-27.03,20.2-30,65.94-44.68,100.4-33.47-4.62-189.16,199.2-300.31,366.85-238.13,42.33,15.7,89.74,46.7,117.14,82.38Z"/>
    <g>
      <path class="cls-1" d="M900.86,241.3c8.13,7.67,25.41,8.66,33.47,18.02-42.08-9.55-118.15-9.15-127.43,43.76,27.64-25.55,85.09-45.51,88.82,9.01-46.63-34.03-78.88,14.22-96.54,52.78-5.23-.92-9.53-81.66-61.79-74.66-7.04.94-14.78,13.61-19.31,9.01,20.15-36.36,54.37-29.46,78.52-1.29,17.84-16.23-17.68-43.38-14.16-47.63,10.18-12.28,31.04,14.95,34.75,14.16,2.23-.47,30.4-31.28,29.61-34.75-5.83-10.34-23.1-9.18-29.61-14.16-36.7-28.13-45.12-51.73-102.98-59.21-32.55-4.21-30.23,10.13-54.06,18.02-10.92,3.62-32.25-6.96-38.62,12.87-7.62.48.32-10.17,1.29-11.58,18.84-27.54,91.27-39.3,122.28-34.75,84.82,12.44,63.34,61.2,113.27,92.68,2.7,1.7,44.3,22.91,42.48,7.72Z"/>
      <path class="cls-1" d="M785.01,99.7c10.7,13.94,24.73,30.45,25.74,48.91-54.42-42.23-110.59-86.57-175.06-111.99,52.09,10.71,103.35,42.79,145.45,75.94l3.86-12.87Z"/>
      <path class="cls-1" d="M1021.86,367.44c1.2,8.57,3.78,16.87,2.57,25.74l-64.36-75.94c25.97,6.92,40.82,35.49,61.79,50.2Z"/>
      <path class="cls-1" d="M526.29,290.21c2.42-.14,7.55-.88,9.01,1.29-26.42,28.56-42.73,65.71-38.62,105.55-10.46-11.68-10.44-37.83-27.03-45.05-43.35-18.86-58.36,59.3-59.21,87.53-16.8-49.01,5.77-97.33,48.91-123.57,11.21-6.82,55.24-25.09,66.93-25.74Z"/>
      <path class="cls-1" d="M479.95,233.57c3.04,37.16-45.72,50.08-51.49,84.96-16.15-35.12,23.96-69.66,51.49-84.96Z"/>
      <path class="cls-1" d="M253.4,362.29c8.93,7.98-14.95,33.12-18.02,33.47-3.97.45-7.42-7.78-18.02-5.15-17.34,4.3-13.04,43.38-15.45,43.76-7.46-17.54,1.37-46.52,18.02-56.64,9.87-6,26.16-1.72,33.47-15.45Z"/>
      <path class="cls-1" d="M611.24,310.81c1.49-.19,12.66-1.48,10.3,2.57-23.45,5.29-41.98,20.31-60.5,34.75,3.02-24.12,29.45-34.68,50.2-37.33Z"/>
    </g>
  </g>
</svg>