<?xml version="1.0" encoding="UTF-8"?>
<svg id="Layer_1" data-name="Layer 1" xmlns="http://www.w3.org/2000/svg" viewBox="0 0 1728 588.62">
  <defs>
    <style>
      .cls-1 {
        fill: #000006;
        stroke: #000006;
      }

      .cls-2 {
        fill: #02020d;
        stroke: #02020d;
      }
    </style>
  </defs>
  <path class="cls-2" d="M1645.11,26.26c1.39-4.15-.32-10.01,4.21-12.51.49,5.2.73,10.42,1.22,15.63,2.26-1.59,4.69-4.48,7.71-2.8-2.01,3.45-4.32,6.81-5.31,10.74,1.4-.81,2.69-2.39,4.5-1.98,3.37.44,6.83.69,10.16-.29-1.73,3.46-3.81,6.89-4.35,10.79-.33,2.38-.63,4.8-1.55,7.04,1.41.44,2.81.88,4.25,1.35-.96,1.92-2.91,3.19-3.75,5.12.25,1.97,2.75,3.9,4.72,2.84,4.3-1.88,8.26-4.49,12.6-6.29.91,3.04-1.46,5.34-3.07,7.6,1.3.91,2.61,1.83,3.91,2.79-2.43,1.32-5,2.37-7.21,4.01-1.13.5-1.67,2.06-.7,2.98,2.03,1.34,4.33,2.28,6.24,3.85-.36.5-1.09,1.48-1.45,1.97-4.96.41-9.87,2.31-14.86,1.16.1,1.01.22,2.04.35,3.07-2.6,1.19-4.9,3.05-7.69,3.76-1.69-.69-3.17-1.72-4.71-2.63-.6,1.37-.83,2.84-.78,4.34,3.26.79,6.52,1.97,9.93,2.01,4.55-.4,8.35-3.47,12.87-4.12,2.61-.35,5.01,1.23,7.6,1.26,3.22-1.46,5.74-4.28,9.23-5.19,1.93.14,2.27,2.72,3.31,4.04,2.89.41,5.81.75,8.67,1.42-.29,5.04-6.55,4.46-10.17,4.7-.44,1.76-.34,3.58-.16,5.38-2.06-.05-4.08-.35-6.04-.83-1.34,1.64-2.13,4.5-4.6,4.6-2.49-.28-4.78-1.31-7.12-2.08.68,1.55,1.39,3.08,2.12,4.62-4.77,4.02-10.78.37-15.82-1.01,1.4,1.64,3.01,3.29,5.22,3.8,3.97,1.19,7.93-.63,11.89-1,1.67.5,2.79,2.09,4.36,2.88,2.66.43,5.37-.53,8.06.04,3.14.6,6.24,1.37,9.41,1.88-.36,3.79-3.33,6.57-6.18,8.75-2.78,2.11-6.37,2.53-9.35,4.22-1.11.87-.13,2.32.02,3.42,3.29-.89,6.88-2.31,10.18-.59-.41,2.61-.86,5.21-.95,7.86,2.08-.7,3.97-2.19,6.2-2.39,3.97.78,7.74,2.53,11.86,2.68-.3.45-.9,1.34-1.21,1.79-2.7,1.67-5.2,3.61-7.72,5.51-8.83,4.33-19.21,7.91-24.14,17.12,4.94,2.9,11.07,3.42,16.61,2.11,5.51.67,11.43.18,16.4,3.11-5.14,6.7-11.78,12.38-19.89,15.05,6.96,4.5,16.01-1.75,22.97,2.86-3.18,3.43-7.27,5.74-10.87,8.65-2.69,1.99-5.73,4.25-9.24,3.91-2.6-.81-4.84-2.43-7.29-3.54-.31,3.19-1.28,7.78,2.62,9.2,10.68,4.64,23.51,4.28,33.01,11.66-2.06,1.47-4.34,2.6-6.31,4.17-1.24,1.56-1.81,3.6-3.2,5.04-2.66.81-5.49.34-8.2.7-3.72.37-6.95,2.95-10.75,2.76-2.75-.5-4.66-2.96-7.35-3.54-2.73.1-5.36.87-7.99,1.49,4.89,3.73,11.12,4.46,16.74,6.55-2.43,1.79-5.22,2.93-7.84,4.35,13.54,3.65,27.91,1.24,41.54,4.58v9.99c-15.57,5.54-32.08,7.76-47.74,13.01,8.04,3.96,17,7,26.1,5.98,7.23-.87,14.42.6,21.64.9v4.06c-1.8,2.24-3.55,4.63-5.97,6.24-3.78,1.61-8.28,1.03-11.77,3.44-3.6,2.34-7.26,4.57-11.16,6.35,4.71,3.42,10.36,5.91,16.27,5.93,4.25-.34,8.36-1.61,12.63-1.89v7.23c-7.28,3.13-15.17,4.16-22.94,5.21-3.76.29-3.74,4.74-4.08,7.58-.32,25.16.32,50.33-.41,75.48-1.38,11.08.14,22.28-.87,33.38-1.45,9.96.32,20.07-1.32,30.02-.35,17.33-1.91,34.61-3.25,51.9-1.69,13.15-5,26.34-11.69,37.88-2.41,4.34-6.31,7.5-9.58,11.14-4.26,4.81-10.35,7.26-15.86,10.28-7.16,3.9-15.08,6.05-23.04,7.64-23.8,5.44-48.18,7.56-72.47,9.59-6.24.91-12.56-.04-18.78.95-46.94,3.05-93.88,5.73-140.81,8.94-4.81.76-9.78-.07-14.48,1.42H459.05c-4.13-1.17-8.44-.91-12.66-1.42-32.27-1.92-64.5-4.49-96.78-6.14-5.28-.8-10.65-.36-15.93-1.07-4.54-.6-9.13-.23-13.67-.81-5.29-.72-10.66-.3-15.93-1.06-7.04-.94-14.16.26-21.19-.66-5.53-.82-11.15-.34-16.68-1.15-5.18-.7-10.45.05-15.63-.73-5.59-.82-11.26-.18-16.83-1.07-25.16-1.2-50.29-3.03-75.4-5.1-9.59-.8-19.12-2.23-28.74-2.74-13.09-1.94-26.22-4.34-38.66-8.97-10.11-3.26-19.62-8.63-27.14-16.18-5.1-6.05-9.29-12.94-11.98-20.39-5.83-20.21-7.5-41.31-8.3-62.23-1.44-8.53.07-17.19-1.16-25.72-1.02-7.65.08-15.38-.57-23.05-2.01-15.21.73-30.68-1.91-45.84-.26-2.59-3.4-2.74-5.36-2.27-6.04,1.23-12.25,1.7-18.38.82-6.72-.61-12.97-3.26-19.29-5.43v-6.43c4.95,2.34,9.76,5.61,15.44,5.7,6.11.32,11.64-2.69,17.03-5.15,2.16-.96,4.15-2.25,6-3.71-1.52-1.1-2.43-2.73-3.12-4.44-2.48.71-4.58,2.36-7.05,3.03-2.04-1.17-3.68-3.2-6.08-3.64-2.5-.23-4.9.72-7.28,1.35-.14-1.8.87-4.44-1.14-5.48-4.49-1.39-9.24-1.62-13.8-2.7v-10.74c4.16.25,8.95,1.03,11.96-2.59,3.9.1,7.83,1.05,11.72.36,5.35-.85,10.58-2.36,15.62-4.33,3.41-1.36,7.02-2.52,9.76-5.07-2.88-2.24-6.46-1.02-9.58-.12-8.51,2.56-18.05,3.32-26.37-.29-4.35-1.83-8.71-3.64-13.11-5.34v-13.83c8.33-.83,16.24-3.75,24.21-6.12-3.1-1.12-6.33-1.95-9.22-3.57-5.78-3.11-10.44-7.85-14.99-12.51v-.82c12.02-1.55,25.29,1.91,36.16-4.97-5.98-.29-12.61.48-17.77-3.22-3.92-3.16-5-8.56-4.96-13.34,6.15-.2,11.76,3.83,17.95,2.59,2.24-.34,4.06-1.76,5.79-3.11-2.49-.21-4.99-.35-7.48-.48.41-1.32.83-2.62,1.24-3.92-2.14-1.19-3.5-3.07-3.11-5.61,2.76-.16,5.53-.26,8.29-.19,6.68.34,13.52.11,19.88-2.16-4.91-3.25-11.75.03-16.34-4.17.89-1.52,1.79-3.04,2.7-4.54-2.28-.07-4.59.05-6.84-.37-1.83-1.05-2.84-3.16-4.78-4.08-2.2-1.32-5.25-2.03-6.19-4.71-.6-1.45.76-2.44,1.71-3.26,1.93-1.44,4.13-2.61,6.5-3.09,2.49,0,4.91.63,7.38.93,1.15-1.46,2.28-2.91,3.42-4.35,3.04.6,5.89,1.88,8.91,2.55,6.44,1.08,13.19-1.8,17.2-6.89-4.27.87-8.68,1.18-12.95.07-4.93-1.33-10.21.16-15.02-1.7-2.39-6.37-7.67-10.88-12.7-15.17,4.23-.38,7.98-2.37,11.92-3.7,3.75-1.34,7.42,3.17,10.96,1.11.41-1.73.11-3.51,0-5.24,2.98,1.3,6.05,2.57,9.32,2.93,6.21.26,11.93-2.53,17.31-5.29,1.6-.88,3.59-1.7,3.88-3.75-5.93,2.15-12.31-.21-18.18,1.86-2.25.57-5.54,2.26-7.2-.24-2.26-3.17-5.86-5.11-7.68-8.64-5.11.05-8.18-4.1-11.5-7.29,2.94-.26,5.77-1.12,8.22-2.79,1.65.76,3.33,1.48,5.05,2.07.96-1.33,1.94-2.66,2.96-3.95,2.92,1.71,5.78,3.9,9.27,4.24,6.92.67,14.33-2.67,17.81-8.82-3.77.44-7.1,2.44-10.81,3.09-2.72.34-3.9-2.61-5.82-3.94-3.84-1.09-7.96-1.82-11.81-.36-2.81-4.6-7.93-6.45-12.2-9.29,2.7-1.15,5.43-2.32,8.3-2.98,3.71-1.05,7.43,2,11.06.42,3.11-1.44,5.64-3.86,8.59-5.55,3.83,1.41,7.58,3.18,11.69,3.64.88-1.77,1.7-3.56,2.48-5.37-1.64-.25-3.28-.81-4.95-.66-2.28.81-4.36,2.41-6.91,2.15-.77-1.48-1.54-2.94-2.34-4.39-4.44,1.39-9.55.67-12.48-3.24,6.94-3.95,13.05-9.77,21.06-11.41-1.02-2.77-4.3-3.46-6.36-5.27,3.06-1.07,6.22-1.88,9.1-3.4-4.43-1.85-9.65-2.61-12.77-6.65,1.77-1.13,3.66-2.03,5.57-2.89-1.49-2.63-3.62-4.81-5.07-7.47,1.83-.32,3.65-.6,5.48-.87-1.11-2.17-2.15-4.38-2.76-6.75,2.83-.2,4.63,2.09,6.55,3.77,2.08-.5,4.74-2.65,6.55-.5,3.45,3.81,4.9,9.94,10.35,11.57,2.43-2.65,1.98-7.1-1.16-8.96-3.24-1.39-6.92-1.79-9.7-4.13,1.1-2.15,2.34-4.21,3.68-6.21-2.15-.67-6.2.32-6.86-2.38,1.55-1.51,3.35-2.7,5.05-4.02-1.51-1.33-3.07-2.7-3.97-4.55,3.99.35,8.12,1.2,11.47,3.54,2.63,1.79,3.76,4.91,5.34,7.55.07-2.98-.02-6.05-1.33-8.78-1.97-4.29-5.18-7.92-6.81-12.39,3.27-.21,5.3,2.63,7.83,4.19.89-3.81-.47-9.21,3.62-11.47.69,4.65.87,9.36,1.17,14.05,2.2-1.39,4.44-3.01,7.18-2.85-1.36,3.62-3.91,6.69-4.93,10.48,3.91-3.3,9.11-.22,13.52-2.09,0,.32-.03.95-.04,1.26-3.77,4.35-3.68,10.23-5.32,15.43,1.36.43,2.72.87,4.08,1.33-1.2,1.56-2.5,3.04-3.84,4.48.84,1.51,2.19,3.63,4.23,2.93,4.26-1.67,8.03-4.4,12.37-5.91.23,2.79-1.51,4.99-3.07,7.08,1.22.78,2.44,1.55,3.65,2.35-2.85,1.83-6.41,2.88-8.33,5.86,2.21,1.53,4.56,2.85,6.76,4.4-.34.47-1.04,1.39-1.39,1.85-4.6.58-9.19,1.7-13.86,1.19.17.87.33,1.75.5,2.63-2.31,1.27-4.61,2.59-7.01,3.68-1.69-.88-3.4-1.76-5.3-2.03-.03,1.15-.04,2.3-.05,3.46,3.17.81,6.36,2.04,9.68,1.91,3.83-.58,7.1-2.97,10.91-3.66,2.69-.47,5.24,1,7.92.92,3.05-1.62,5.72-3.93,9.01-5.12.83,1.35,1.64,2.72,2.45,4.1,2.52.46,5.04.86,7.57,1.23.02.66.07,1.97.1,2.62-2.91,1.56-6.22,1.8-9.42,2.24.09,1.7.18,3.45-.51,5.07-1.69-.41-3.35-.84-5.02-1.28-1.04,1.54-1.7,3.61-3.49,4.45-2.42.02-4.66-1.09-6.96-1.7.54,1.35,1.11,2.7,1.69,4.07-4.48,3.57-9.89.39-14.59-.85,3.53,5.35,10.5,3.51,15.69,2.34,1.92,1.29,3.79,3.25,6.32,2.79,3.52-.3,7.01.2,10.4,1.15,1.16.49,2.93.3,3.54,1.62-2.04,6.45-8.86,9.16-14.72,11.09.03,1,.06,2.01.11,3.03,3.08-.69,6.2-1.5,9.39-1.02.24,2.61-.25,5.18-.62,7.76,2.53-.79,5.1-2.71,7.84-1.59,3.07.98,6.2,1.86,9.46,1.93-5.26,5.76-12.68,8.55-19.42,12.11-4.77,2.44-9.43,5.78-11.64,10.85,9.39,5.35,20.91-.41,30.39,4.54-4.16,7.03-11.36,11.43-18.74,14.49,7.02,3.26,14.95-1.05,22.09,1.9-2.9,3.44-6.87,5.68-10.37,8.44-2.48,1.78-5.18,4.03-8.43,3.7-2.54-.65-4.66-2.33-6.95-3.53-.32,2.95-1.51,7.05,2,8.57,10.07,4.44,21.92,4.36,31.21,10.77-1.78,1.64-4,2.64-5.91,4.12-1.18,1.42-1.91,3.16-2.79,4.79-2.54.2-5.09.18-7.63.41-3.48.38-6.42,2.89-9.97,2.86-3-.51-5.03-3.76-8.26-3.5-1.93-.05-3.53,1.16-5.17,2.03,4.22,3.36,9.79,3.72,14.75,5.35-2.34,1.84-5.09,2.99-7.82,4.14,13.72,3.8,28.42,1.04,42.12,5.16.03.31.08.93.12,1.24-1.74,1.03-3.58,1.88-5.35,2.87,1.03,1.31,2.06,2.61,3.09,3.92-13.65,5.29-28.38,6.93-42.2,11.69,2.66,3.58,7.12,5,11.25,6.13,6.47,1.76,13.11-.77,19.65.36,4.48.72,9.08.83,13.53-.19-.55.73-1.09,1.47-1.63,2.22,2.59-.11,5.18-.02,7.76.1,1.02-1.03,1.95-2.2,3.21-2.96,3.47.66,6.8,2.61,10.43,1.91,3.46-.42,6.51-2.33,8.83-4.87-6.76.21-13.41-1.4-20.17-1.18-2.71-4.59-6.29-8.5-10.11-12.19,3.02-1.05,5.92-2.47,9.07-3.1,2.65.21,5.23.96,7.89,1.2.11-1.48.22-2.93.32-4.39,2.83,1.15,5.75,2.49,8.88,2.24,4.01-.28,7.68-2.14,11.23-3.88,1.44-.66,2.64-1.7,3.6-2.96-6.31.77-12.72.27-18.86,2.24-3.03-3.12-5.57-7.12-9.86-8.62-2.5-.89-4.25-2.93-5.85-4.93,3.16-.99,6.55-2.7,9.74-.78.96-.85,1.9-1.7,2.87-2.53,2.76,1.53,5.67,3.35,8.98,3.01,4.74-.1,9.24-2.7,11.72-6.73-3.01.6-5.88,1.85-8.94,2.19-1.96-.83-3.43-2.5-5.4-3.27-2.52-.7-5.18-.41-7.75-.36-2.68-2.98-6.26-4.81-9.49-7.06,3.09-1.1,6.31-2.56,9.67-1.94,1.95.06,4.09.96,5.9-.14,2.12-1.15,4.07-2.57,6.12-3.82,2.99.98,6,1.96,9.03,2.88.69-1.48,1.29-3,1.79-4.55-2.76-.49-5.34.6-7.93,1.32-1.25-.45-1.77-1.93-2.62-2.84-3.48-.14-7.38.06-9.81-2.92,4.91-3.42,9.78-7.18,15.63-8.86.2-2.26-2.91-2.95-4.26-4.37,2.26-.71,4.51-1.46,6.72-2.34-3.15-1.92-7.72-2.11-9.49-5.75,1.43-.6,2.87-1.18,4.3-1.76-1.21-1.76-2.45-3.49-3.7-5.21,1.17-.61,2.35-1.22,3.53-1.8-.61-1.7-1.11-3.44-1.44-5.21,1.74.87,3.36,1.95,4.9,3.16,1.35-.35,2.7-.72,4.06-1.09,3.3,3.11,4.54,8.27,9.04,10.03,1.08-1.97,1.66-4.77-.19-6.46-2.64-1.45-5.65-2.13-8.18-3.81.86-1.73,1.75-3.44,2.69-5.13-1.79-.12-3.58-.26-5.36-.43.82-1.7,2.15-3.04,3.56-4.24-.91-1.22-1.8-2.44-2.66-3.69,3.07.57,6.37,1,8.94,2.93,1.68,1.5,2.84,3.44,4.2,5.22.04-3.54-1.12-6.94-3.17-9.8-1.06-2.07-3.34-4.03-2.65-6.55,1.88,1.11,3.67,2.34,5.45,3.59.48-3.11.16-6.75,2.71-9.07.65,3.58.84,7.21,1.04,10.85,1.79-.76,3.61-1.41,5.48-1.92-1.06,2.68-2.39,5.24-3.83,7.73,3.49-.98,7.13-.62,10.7-.92-1.91,3.43-3.4,7.13-3.75,11.07-.6,1.64,1.41,2.24,2.29,3.2-.87,1.02-1.76,2.03-2.63,3.05.85,1.04,1.61,2.84,3.29,2.13,3.34-1.15,6.26-3.27,9.6-4.44-.45,1.88-1.13,3.71-1.99,5.45.8.64,1.6,1.29,2.4,1.94-2.07,1.16-4.21,2.25-6.1,3.72.41,2.06,2.88,2.52,4.35,3.66-.06.48-.2,1.42-.26,1.9-3.52.73-7.1,1.18-10.68.95-.23,2.85-2.99,3.89-5.27,4.86-1.25-.56-2.51-1.1-3.76-1.63-.25.82-.5,1.64-.74,2.47,2.52.98,5.19,2,7.94,1.68,3.03-.52,5.7-2.25,8.73-2.73,1.87-.04,3.67.56,5.54.59,2.34-1.01,4.39-2.54,6.6-3.78,1.02,1.05,2.03,2.12,3.05,3.18,1.62.25,3.27.47,4.87.89.75.91.65,1.71-.31,2.42-1.82,1-3.99,1-6,1.31-.27,1.23-.53,2.46-.79,3.71-1.33-.11-2.68-.21-4.01-.3-.82,1.01-1.65,2.02-2.48,3.04-1.7-.32-3.4-.64-5.1-.96.23,1,.45,2.02.69,3.04-3.54,2.1-7.47.05-11.08-.71,2.88,4.11,8,1.84,12.05,2.03,4.8,2.8,10.59,1.21,15.67,3.25-.83,5.86-7.29,7.49-11.8,9.72.19.41.59,1.23.78,1.63,2.33-.33,4.67-.53,7.02-.57-.05,1.97-.22,3.96-.46,5.93,4.32-2.33,8.95-.3,13.35.55-6.54,7.17-17.76,7.95-23.31,16.22-1.08,1.06.24,2.36,1.39,2.48,7.11,2.07,14.92-.79,21.81,2.52-2.67,3.29-5.59,6.55-9.41,8.53-1.82.92-3.71,1.77-5.26,3.13,5.51,1.46,11.64-1.39,16.78,1.5-3.32,2.95-7.14,5.26-10.41,8.26-1.71.04-3.41.24-5.1.42-1.36-.8-2.71-1.6-4.08-2.37-.62,2.47-1.23,5.91,1.92,6.83,7.8,3,16.48,3.61,23.7,8.12-2.79,1.66-5.38,3.71-6.85,6.68-3.06.38-6.19.52-9.12,1.59-2.06.64-4.39,1.95-6.42.46-2.63-1.75-5.73-2.21-8.59-.65,3.13,2.72,7.4,3,11.23,4.11-1.57,1.58-3.52,2.66-5.44,3.75,10.68,2.34,21.89.75,32.41,3.9-1.17,1.12-2.36,2.21-3.57,3.29.48.96.96,1.93,1.43,2.9-11.13,4.34-23.24,5.39-34.31,9.85,3.71,1.82,7.65,3.2,11.71,4.03,4.22.87,8.51-.37,12.77.05,3.67.33,7.34.6,11.03.59-1.67,2.43-3.07,5.16-5.4,7.03-2.84,1.24-6.11,1.3-8.81,2.95-2.7,1.59-5.39,3.23-8.16,4.72,2.92,2.02,6.22,3.65,9.78,4.13,3.28.16,6.5-.86,9.78-.64,3.18.19,6.33.73,9.49,1.19.53.82,1.08,1.66,1.62,2.5,2.14-.18,4.27-.32,6.42-.36-1.94,2.01-4.71,2.65-7.26,3.53.5,1.22.99,2.45,1.5,3.69-1.55,1.97-3.16,4.2-5.67,5-1.95.18-3.9-.09-5.84-.22-.31,1.05-.62,2.09-.93,3.16,3.67,1.05,7.53,1.42,11.06,2.94-1.92,1.05-4.06,1.51-6.2,1.81.52.95,1.04,1.89,1.57,2.85-4.06,2.81-9.21,2.97-13.71,4.77,6.28,2.11,13.04,1.12,19.54,1.55-.4,1.09-.79,2.18-1.19,3.28,2.46.64,5.1,1.05,7.14,2.71-2.91,1.13-6.03.57-9.03.29.12,1.29.23,2.59.36,3.9-1.76.1-4.18-.78-4.91,1.43-1.02,2.37-3.54,3.11-5.76,3.93,2.06-.21,4.17-.74,6.24-.28,3.72,1.14,6.92,3.57,10.67,4.66,1.86.25,3.7-.45,5.57-.44,1.79.62,3.29,1.87,4.86,2.91,2.83-.82,2.97-3.86,3.62-6.26,1.25,1.79,2.52,3.57,3.76,5.39,2.89.36,4.49-2.22,6.16-4.09,1.65.35,3.3.7,4.95,1.06,2.59-2.12,4.99-4.57,6.06-7.83,9.53.31,19.02,1.38,28.56,1.81,2.24.06,4.46.4,6.64.93.36,1.6.74,3.2,1.12,4.81,5.51,1.66,11.2,2.55,16.8,3.86,1.89.34,3.52,1.41,5.05,2.52.08-.46.25-1.4.33-1.86,4.14,1.72,8.22,3.57,12.46,5.06.65-2.72,1.04-5.5,1.28-8.28,2.84-.52,3.92,2.4,5.92,3.67,2.89-.56,5.71-2.17,8.73-1.47,6.19,1.16,12.26,2.89,18.46,4.04,4.11.87,8.05-.96,11.87-2.18,3.8-1.37,7.75-2.36,11.54-3.75,2.6-.68,3.55-3.4,4.91-5.4,1.73,1.88,3.39,3.81,4.99,5.82,6.46-2.9,12.69-6.32,19.11-9.3,4.42-2.04,9.08-3.5,13.58-5.36,2.15-.83,4.29-1.85,6.62-2.06,1.82,1.17,3.19,2.95,5.09,4.01,1.6.62,3.33.83,5.02,1.15.5-2.54.93-5.09,1.3-7.65,5.68-3.13,11.62-5.75,17.32-8.85,2.42-1.2,4.87-2.87,7.7-2.61,10.45.82,20.9,2.73,31.42,1.75,4.57-.56,9.09.41,13.54,1.38-.39-1.46-.77-2.9-1.15-4.35-1.52-.32-3.05-.6-4.53-1.02-.27-1.39,1.27-2.26,1.91-3.33-.65-.23-1.94-.7-2.58-.93,2.02-.78,4.01-1.65,5.8-2.9-2.85-1.57-6.69-1.7-8.69-4.49,3.06.18,6.1.58,9.17.82-.49-1.15-.97-2.28-1.44-3.42,4.44.33,7.87,3.9,12.36,4.07,7.45.5,14.29-3.56,20.42-7.3-1.14-1.19-2.3-2.34-3.47-3.45-1.64.78-3.29,1.54-4.94,2.27-1.42-.99-2.79-2.07-4.35-2.79-2.12-.43-4.29.1-6.41.28-.34-1.32-.68-2.61-.99-3.9-3.85-1.29-7.92-1.5-11.87-2.27-1.22-.19-1.81-1.42-2.63-2.16-2.23-.58-4.45-1.17-6.55-2.09,2.03-1.64,4.05-3.44,6.56-4.29,2.85-.62,5.79-.03,8.67-.39,2.25-.63,4.15-2.71,6.67-2.11,5.03.78,10.08-.11,14.87-1.69,4.52-1.59,9.4-2.84,13.09-6.05-3.38-1.7-7.01-.04-10.41.69-6.39,1.69-13.36,1.7-19.51-.91-5.7-2.43-11.41-4.82-17.06-7.37.76-1.46,1.53-2.9,2.34-4.34-1.22-1.37-2.43-2.73-3.61-4.1,4.82-.08,9.76.14,14.44-1.28,4.51-1.38,9.08-2.54,13.57-3.98-8.47-1.69-15.43-7.36-20.75-13.91,10.01-.9,21.01,1.33,30.02-4.27-4.77-.32-10.04.43-14.22-2.39-3.62-2.59-4.2-7.38-4.67-11.45,4.08.17,7.91,1.71,11.9,2.38,3.28.54,6.31-1.19,8.89-3.03-2.52-.1-5.04-.15-7.55-.21.54-.86,1.12-1.69,1.66-2.53-.85-1.06-1.78-2.05-2.68-3.03.03-.61.07-1.83.1-2.44,7.33-.2,15.02,1.12,22.07-1.42.18-.31.53-.93.71-1.24-4.24-.87-8.76-.23-12.77-2.09.52-1.45,1.07-2.89,1.64-4.31-2.24-.27-4.97.44-6.67-1.39-2.15-2.25-5.19-3.27-7.48-5.31-1.35-2.49,1.58-4.2,3.46-5.08,2.74-1.56,5.93-.69,8.88-.47,1.51-1.31,2.93-4.1,5.31-2.89,3.27,1.02,6.69,2.17,10.17,1.45,3.78-.53,6.89-2.94,9.41-5.65-7.52,1.52-15-.99-22.57-.83-2.78-4.99-6.55-9.27-10.93-12.89,3.57-.96,6.91-2.77,10.57-3.35,2.67.37,5.27,1.13,7.97,1.41.11-1.55.23-3.08.35-4.62,5.42,2.52,11.84,2.91,17.21.03,2.77-1.58,6.43-2.29,8.11-5.24-1.27.2-2.52.46-3.79.69-2.73.18-5.48-.13-8.2.08-2.69.21-5.18,1.55-7.88,1.53-4.02-2.55-5.91-7.93-10.81-9.1-2.7-.82-4.42-3.16-6.37-5.01,2.33-.69,4.57-1.7,6.93-2.26,1.25.23,2.42.81,3.62,1.28.95-.95,1.9-1.88,2.86-2.82,3.81,2.27,8.17,4.21,12.7,3.06,3.71-1.18,7.56-3.18,9.29-6.88-3.2.45-6.13,2.15-9.35,2.3-1.9-.68-3.06-2.52-4.63-3.69-3.78-1.25-8.55,1.15-11.42-2.3-2.35-2.09-5.16-3.55-7.81-5.19,1.39-.72,2.79-1.43,4.24-2.06,1.37-.33,2.78-.56,4.19-.69,2.3.22,4.6,1.12,6.92.69,2.83-1.08,5.11-3.17,7.66-4.75,1.45.49,2.91.96,4.37,1.5,1.79.52,3.75,1.92,5.66,1.08.65-1.24,1.1-2.55,1.61-3.84-2.72-1.24-5.48-.62-7.75,1.23-.47-.14-1.42-.45-1.88-.6-.61-.98-1.21-1.97-1.79-2.96-3.78.56-7.9.29-10.54-2.85,2.09-1.5,4.24-2.9,6.4-4.27,3.44-2.3,6.96-4.64,11.11-5.41-1.12-2.07-3.43-2.94-5.23-4.26,2.44-.94,4.94-1.77,7.38-2.76-3.62-1.77-8.09-2.38-10.58-5.88,1.6-.78,3.23-1.5,4.86-2.24-1.27-1.79-2.7-3.44-3.93-5.25.32-1.78,2.51-1.37,3.8-1.94-.73-1.77-1.43-3.55-1.95-5.38,2.23.18,3.9,1.7,5.57,3.04,1.48-.4,2.98-.79,4.48-1.16,3.55,3.17,4.57,9.31,9.76,10.37.65-1.64,1.6-3.5.56-5.19-1.7-3.97-7.7-2.43-9.65-5.94.76-1.74,1.82-3.32,2.81-4.93-1.9-.18-3.8-.39-5.67-.62.41-2.14,2.38-3.2,3.91-4.46-1.05-1.25-2.07-2.52-3.02-3.83,3.3.32,6.77.87,9.53,2.88,1.95,1.52,3.08,3.79,4.51,5.76.83-6.81-5.2-11.28-6.58-17.45,2.32.83,4.28,2.34,6.23,3.82.57-3.32-.1-7.44,2.94-9.73.8,3.99.82,8.06.93,12.11,1.85-1.33,3.84-2.61,6.21-2.63-1.28,2.64-2.76,5.18-4.06,7.82,3.78-.49,7.63.02,11.38-.83-2.63,4.12-3.93,8.85-4.26,13.7.87.59,1.72,1.2,2.59,1.81-1.02,1.23-2.04,2.45-3.02,3.71,1.08.78,2.03,2.36,3.61,1.92,3.59-1.28,6.74-3.57,10.41-4.69-.26,2.05-1.21,3.89-2.33,5.6.87.78,1.77,1.57,2.66,2.36-2.46,1.25-5.37,2.15-6.79,4.72,1.7,1.1,3.48,2.08,5.27,3.05-.36.81-.71,1.62-1.05,2.44-1.88-.05-3.72.17-5.55.48-1.88.2-3.77.17-5.64,0,0,.87,0,1.73.03,2.61-1.91.94-3.81,1.89-5.77,2.73-1.25-.68-2.49-1.34-3.73-1.99-.32.86-.61,1.73-.91,2.6,5.11,3.34,11.6,2.18,16.45-1.05,2.57.15,5.12.53,7.66.96.85-.61,1.72-1.21,2.61-1.79,1.48-.89,3.07-1.6,4.66-2.31.87,1.13,1.75,2.28,2.64,3.42,1.89.23,3.79.42,5.66.82,1.42,2.16-1.6,2.86-2.92,3.87-1.38-.08-2.77-.14-4.14-.17-.18,1.4-.33,2.81-.48,4.23-1.54-.11-3.07-.23-4.59-.34-.8,1.07-1.57,2.17-2.53,3.1-2.04.44-4.03-.69-5.98-1.11.27,1.24.56,2.48.84,3.73-3.86,2.27-7.96-.27-11.88-.93,2.81,3.47,7.38,3,11.3,2.19,2.83-.97,4.68,2.44,7.5,1.89,3.84-.33,7.58.66,11.26,1.62-.91,5.19-6.15,7.76-10.65,9.3-1.41.24-1.78,1.58-1.99,2.79,2.7-.19,5.37-.51,8.07-.68.49,2.16.07,4.35-.25,6.51,1.92-.6,3.86-1.98,5.95-1.34,2.8.77,5.61,1.6,8.54,1.74-7.42,8.21-20.79,8.84-26.15,19.19,7.38,3.62,15.78.74,23.51,2.75.46.3,1.37.91,1.83,1.22-3.42,5.91-9.58,9.12-15.42,12.12,6.01,1.51,12.32-.91,18.22,1.28-2.49,3.01-5.91,5-8.97,7.34-1.9,1.32-3.96,2.99-6.43,2.65-2.04-.48-3.82-1.62-5.65-2.57-.41,2.31-1.38,5.43,1.43,6.62,8.11,3.92,17.74,3.85,25.49,8.76-.02,1.33-1.5,1.7-2.34,2.45-2.14,1.21-3.44,3.32-4.77,5.29-4.08.08-8.1.85-11.89,2.36-3.15,1.46-5.75-1.61-8.7-2.2-1.87-.05-3.64.6-5.4,1.07,3.7,2.83,8.4,3.4,12.77,4.6-1.88,1.69-4.12,2.83-6.37,3.91,11.62,2.35,23.75.84,35.2,4.15-1.17,1.48-2.8,2.46-4.42,3.38.73,1.1,1.48,2.21,2.23,3.32-10.64,3.64-21.69,5.81-32.52,8.78-1.72.43-3.38,1.07-4.96,1.88,4.03,1.67,8.2,3.05,12.46,4.06,5.01,1.24,10.14-.59,15.2.23,3.89.64,7.85.76,11.72-.07-2.42,2.8-4.35,6.05-7.17,8.48-2.8,1.47-6.26,1.11-8.98,2.83-2.89,1.73-5.77,3.53-8.77,5.07,3.29,2.39,7.12,4.12,11.21,4.48,3.63.21,7.17-1.53,10.81-.77,3.03.6,6.1,1.04,9.21.99.5.85.98,1.7,1.5,2.56,2.34-.09,4.69-.2,7.05-.22-1.63,2.67-5.06,2.89-7.66,4.12.51,1.21,1.05,2.43,1.6,3.64-2.32,2.34-4.5,6.08-8.22,5.82-1.6-.03-3.18-.15-4.76-.23,0,1.11.02,2.22.04,3.35,3.46.86,6.96,1.55,10.45,2.31-.07.45-.21,1.35-.27,1.8-1.88.22-3.77.43-5.64.66.77,1.15,1.54,2.31,2.32,3.47-4.86,2.28-10.31,2.83-15.12,5.22,6.7,1.58,13.62.96,20.45,1.27-.15,1.13-.3,2.26-.43,3.4,2.4,1.01,5.69.94,7.16,3.42-3.3.28-6.62.22-9.93.18.44,1.2.89,2.41,1.34,3.62-1.83.12-3.65.24-5.47.4-.41,1.15-.78,2.34-1.3,3.48-1.78.93-3.77,1.36-5.63,2.1,2.81-.05,5.87-1.26,8.48.27,2.89,1.52,5.84,2.98,8.96,4.03,0,.99,0,1.99.02,3.01,1.45,1.25,2.91,2.52,4.35,3.81-2.43-.12-4.83-.24-7.25-.41-.32,1.51-.61,3.04-.88,4.57,5.82,1.96,9.35,7.11,13.79,10.98,2.51,2.29,5.01,4.6,7.78,6.58,2.03-.48,4.06-1.15,6.17-1.2,2.98.81,5.54,3.49,8.84,2.68,4.27-.98,7.84,2.06,11.58,3.55,6.2,2.52,11.87,6.51,18.6,7.56,8.76,2.05,18.45,1.88,26.08,7.2,14.56,8.71,29.43,16.9,44.1,25.42,4.46,2.74,9.93,1.57,14.89,2.13,11.89,1,23.78-.5,35.66-1.05,2.89-.18,5.84.03,8.67-.69,3.61-1.14,6.24-4.02,9.51-5.79,2.64.96,4.9,3.21,7.93,2.76,9.18-.56,18.75.05,27.45-3.42,4.07-1.48,8.29-2.49,12.39-3.88,5.2-1.79,8.94-6.06,13.32-9.19,3.75-2.5,6.75-6.3,11.06-7.85,10.09-1.34,20.32-1.23,30.45-2.24,3.09-.5,5.4-2.85,7.93-4.52,5.05-3.68,10.39-6.96,15.41-10.7,1.79-1.23,3.53-2.72,5.72-3.17,10.64-1.35,21.47-.88,32.08-2.45,6.57-2.63,12.18-7.24,18.66-10.09,5.45-1.6,11.22-.69,16.81-1.24-.22-4.39-.68-8.77-1.47-13.09-.54-3.64-3.9-5.88-5.18-9.19-2.57-6.19-3.5-13.15-7.48-18.69-1.75-2.38-3.52-4.74-4.98-7.3,1.44.05,2.89.13,4.35.21-.31-2.62-.54-5.25-.66-7.88,3.86,2.62,7.84,5.02,12.13,6.9,3.04,2.11,6.59,3.15,10.27,3.38-.8,1.03-1.6,2.06-2.37,3.11,3.41,2.62,6.56,6.09,10.98,6.91,6.12,1.23,12.37,1.84,18.61,1.51,5.65-.25,11.96,1.25,15.52,5.99,3.55,4.98,4.71,11.32,4.42,17.35-.18,4.32-1.97,8.34-2.85,12.53,3.2.29,6.28-.95,9.45-1.02,11.54,3.66,22.57,8.94,34.2,12.37,14.82,2.52,29.76,4.4,44.73,5.81,1.79.37,3-1.15,4.26-2.15.43.74.87,1.49,1.33,2.25,7.17.34,14.3-.72,21.46-.91,5.59-.17,11.33-.28,16.62-2.37,5.65-2.2,11.35-4.27,17-6.49,6.7-3.04,14.22-1.88,21.34-2.65,13.29.05,26.47-1.76,39.7-2.7,6.37-.45,12.71.76,19.09.37-2.43-1.88-5.21-3.18-7.83-4.73-2.13-1.25-2.65-3.88-3.73-5.91-1.57-.29-3.12-.63-4.63-1.08.8-.86,1.62-1.7,2.47-2.53-.88-.59-1.77-1.15-2.61-1.71,1.96-.59,3.9-1.24,5.82-2.02-2.51-2.45-6.74-2.03-8.77-5,3.03.16,6.04.56,9.08.84-.2-1.29-.37-2.55-.53-3.82,4.99,2.25,10.1,5.55,15.84,4.34,5.57-1.2,10.76-3.86,15.65-6.73-.9-1.39-1.82-2.75-2.78-4.08-1.7.83-3.41,1.66-5.12,2.44-1.63-1.08-3.13-2.53-5.05-3.01-1.95-.09-3.86.21-5.76.42-.32-1.29-.63-2.57-.9-3.83-4.87-2.36-11.15-.49-15.17-4.57-1.97-.75-4.09-1.08-5.83-2.3,2.05-1.44,4.07-3.05,6.46-3.92,2.84-.67,5.8-.02,8.69-.36,2.25-.63,4.15-2.7,6.67-2.13,7.16,1.12,14.14-1.36,20.74-3.86,2.58-.96,5.03-2.25,7.26-3.9-3.16-1.61-6.57-.38-9.75.44-6.32,1.73-13.27,2.06-19.43-.48-5.96-2.43-11.83-5.06-17.76-7.53.75-1.54,1.48-3.1,2.19-4.67-1.23-1.25-2.42-2.52-3.57-3.8,4.82-.05,9.77.21,14.44-1.27,4.27-1.33,8.66-2.31,12.83-3.99-7.95-2.37-14.81-7.47-19.95-13.9,9.99-.95,21,1.24,30.02-4.26-4.73-.41-10.01.43-14.11-2.48-3.71-2.45-4.27-7.25-4.8-11.29,3.82.14,7.47,1.39,11.18,2.2,3.19.73,6.46-.61,8.75-2.85-2.15-.18-4.27-.28-6.39-.36.34-.87.72-1.74,1.1-2.61-1.25-1.51-2.35-3.19-2.43-5.2,7.64-.51,15.72,1.1,22.96-2.15-4.04-1.84-8.7-.87-12.76-2.67.45-1.44.93-2.88,1.45-4.29-2.68-.09-5.65.02-7.45-2.31-2.1-2.53-8.03-2.94-6.46-7.29,3.13-3.43,7.9-3.71,12.2-3.01,1.24-.96,2.29-2.41,3.9-2.81,3.81.51,7.53,2.45,11.46,1.6,3.38-.45,6.28-2.42,8.51-4.92-6.14.08-12.19-1.08-18.31-1.21-4.23.47-5.54-4.28-7.86-6.82-1.83-2.38-4.05-4.41-6.26-6.4,2.94-.88,5.78-2.07,8.71-3.02,2.25-.73,4.63.16,6.94-.14,1.57-.99,2.91-2.3,4.31-3.53,4.29,3.07,10.03,2.66,14.72.8,3.4-1.45,7-2.87,9.51-5.7-3.41.31-6.83.52-10.24.53-3.6-.02-7,1.51-10.59,1.33-1.8-2.57-4.03-4.78-6.26-6.95-1.68-1.62-4.26-1.64-6.03-3.08-1.42-1.15-2.63-2.5-3.89-3.79,2.28-.79,4.56-1.6,6.83-2.45,1.19.5,2.39,1,3.62,1.51.96-.97,1.93-1.95,2.93-2.9,3.02,1.66,6.21,3.61,9.83,3.2,4.86,0,9.55-2.64,11.83-6.99-3.06.59-5.93,2.03-9.04,2.22-2.28-1.01-3.76-3.44-6.33-3.81-2.41-.55-4.87-.28-7.28,0-3.05-2.94-6.62-5.2-10.26-7.31,2.13-1.12,4.34-2.21,6.76-2.54,2.85-.47,5.66.79,8.53.5,2.81-1.13,5.14-3.16,7.73-4.72,2.91.95,5.73,2.32,8.82,2.7,2.09-.08,2.06-2.61,2.84-4.03-3.25-1.25-6.41.36-9.54,1.11-.63-1.12-1.24-2.23-1.82-3.33-3.73.41-7.62.15-10.55-2.46,2.35-2.86,5.9-4.25,8.84-6.38,2.56-1.86,5.54-2.97,8.56-3.83-1.43-1.76-3.22-3.14-4.91-4.6,2.32-.6,4.61-1.39,6.71-2.58-3.55-1.41-7.34-2.5-10.19-5.18,1.42-1.2,3.09-2.02,4.81-2.75-1.39-1.98-2.85-3.91-4.23-5.88,1.35-.44,2.74-.86,4.14-1.26-.69-1.79-1.38-3.59-1.91-5.43,2.2.19,3.85,1.71,5.52,3.02,1.6-.26,3.35-1.33,4.96-.57,3.35,3.03,4.31,8.85,9.31,9.87,1.32-2.3,1.43-5.63-1.05-7.18-2.74-1.3-5.87-1.75-8.26-3.74.97-1.76,1.99-3.51,3.01-5.25-1.79-.5-4.67.43-5.63-1.33.93-1.55,2.51-2.54,3.87-3.69-1.08-1.33-2.13-2.69-3.07-4.09,3.12.53,6.37,1.08,9.12,2.79,2.24,1.47,3.44,3.97,4.99,6.1.79-6.8-5.11-11.33-6.61-17.46,2.36.81,4.39,2.29,6.36,3.81.45-3.34-.23-7.45,2.88-9.69.73,3.83.83,7.74.92,11.63,1.95-.99,3.99-1.79,6.19-2.12-1.29,2.62-2.73,5.17-4,7.79,3.75-.39,7.55-.25,11.31-.77-2.59,4.11-3.98,8.8-4.19,13.65.81.49,1.63.97,2.48,1.48-.94,1.38-1.9,2.75-2.83,4.12,1.03.78,1.96,2.34,3.51,1.79,3.58-1.26,6.68-3.64,10.39-4.63-.14,2.15-1.28,3.93-2.64,5.52.99.72,1.99,1.44,3.02,2.17-2.38,1.3-4.74,2.62-6.85,4.31,1.24,2.27,5.18,2.38,5.28,5.14-3.76,1.57-7.99,1.73-12.01,1.6-.03,2.87-3.01,4.07-5.28,4.92-1.63.05-2.98-1.07-4.41-1.65-.33.84-.65,1.68-.95,2.52,4.27,2.48,9.58,2.77,13.95.34,3.21-1.88,6.81-.83,10.25-.55,2.45-1.26,4.7-2.91,7.18-4.15.8,1.1,1.6,2.21,2.43,3.34,2.05.41,4.11.8,6.19,1.17-.08.59-.25,1.76-.33,2.35-2.3,1.13-4.95,1.02-7.35,1.76-.16,1.26-.12,2.53-.11,3.81-1.57-.15-3.12-.32-4.66-.49-.83,1.14-1.67,2.27-2.48,3.41-2.22-.37-4.36-.94-6.5-1.54,1.27,3.18,4.53,4.56,7.43,5.91,3.89,1.22,7.97,1.73,11.92,2.77-.3,1.16-.57,2.34-.83,3.53-3.09,2.95-6.96,4.81-10.81,6.55-.05.5-.15,1.52-.2,2.04,2.59-.38,5.22-.61,7.84-.23-.14,1.96-.29,3.91-.45,5.88,4.63-2.5,9.51.11,14.27.64-7.58,7.93-20.79,8.81-26.01,19.18,8.02,3.57,17.01.55,25.24,3.16-3.04,6.03-9.15,9.6-14.93,12.6,5.74,1.92,11.92-.48,17.67,1.55-1.43,1.59-2.97,3.09-4.54,4.53,10.11.45,20.99.38,29.83-5.25-6.37-.32-13.42.9-19.02-2.91-4.76-3.12-5.6-9.23-6.1-14.44,6.17-.5,11.68,3.37,17.84,2.87,3.26-.25,6.68-1.53,8.52-4.4-3.12.32-6.28.7-9.37,0,.76-1.23,1.54-2.43,2.34-3.63-1.33-1.05-2.72-2.03-3.8-3.32-.05-1.05.06-2.1.18-3.14,10.05-.17,20.47,1.26,30.13-2.3-5.04-3.74-12.25-.34-17.32-4.29.81-1.79,1.75-3.53,2.79-5.21-2.62-.02-5.23-.09-7.83-.23-1.63-1.97-3.16-4.26-5.69-5.12-2.34-1.09-5.79-2.23-5.6-5.41.65-2.81,3.86-3.82,6.17-5,3.35-1.76,7.05.04,10.59.09,1.15-1.49,2.3-2.98,3.46-4.47,4.26.41,8.07,2.92,12.42,2.8,6.07.12,12-2.78,15.64-7.63-4.64,1.04-9.43,1.19-14.06.05-4.76-1.19-9.71,0-14.44-1-2.43-2.19-3.49-5.45-5.57-7.92-2.7-3.44-6.12-6.18-9.36-9.06,3.87-.52,7.47-2.05,11.05-3.54,4.42-2.1,8.63,1.62,13.13,1.42.43-2.08.51-4.21.37-6.32,3.61,1.52,7.34,3.16,11.36,3.04,7.15.05,13.43-3.82,19.59-6.95,1.15-.38,2.9-2.21,1.03-2.88-2.08.38-4.04,1.27-6.14,1.47-2.75.14-5.45-.52-8.19-.48-3.85.21-7.44,3.15-11.34,1.94-2.41-3.96-6.95-5.93-8.88-10.21-1.91-.46-3.9-.67-5.65-1.57-2.03-1.34-3.62-3.22-5.4-4.84-.69-.62-1.36-1.23-2.02-1.82,2.12-.2,4.39-.12,6.31-1.25.89-.5,1.79-1.05,2.77-1.46,1.85.35,3.3,1.79,5.17,2.21,1.6-.96,2.46-2.8,3.67-4.19,3.13,1.84,6.19,4.27,9.97,4.48,4.74.54,9.52-.84,13.54-3.36,2.2-1.56,4.03-3.57,5.47-5.85-3.08.07-5.9,1.32-8.58,2.7-1.6.23-3.24.42-4.81.14-1.74-.95-2.79-2.72-4.3-3.92-4.12-1.42-8.59-1.63-12.82-.64-1.45-1.6-2.88-3.21-4.47-4.64-2.83-1.81-5.9-3.21-8.64-5.15,3.74-1.72,7.72-2.88,11.73-3.83,2.14.69,4.29,1.58,6.58,1.66,2.47,0,4.47-1.67,6.4-3,1.71-1.24,3.52-2.36,5.36-3.43,4.09,1.1,7.9,3.61,12.23,3.67,1.7-1.33,2.06-3.63,2.87-5.53-1.67-.33-3.3-.84-4.98-.88-2.62.66-5.11,3.54-7.88,1.92-.79-1.28-1.3-2.7-1.84-4.08-1.71.07-3.41.28-5.03.76l-.68.28c-3.04-.91-5.89-2.35-8.25-4.47,4.89-3.37,9.95-6.48,14.94-9.69,2.22-1.52,4.86-2.07,7.46-2.6-.05-.49-.14-1.48-.18-1.97-2.25-1.12-4.4-2.39-6.37-3.92,3.02-1.12,6.19-1.79,9.2-3.01-.05-.29-.15-.87-.2-1.15-4.62-1.48-9.96-2.43-12.8-6.82,1.16-.7,2.36-1.39,3.63-1.97.81-.29,1.65-.58,2.51-.85-1.77-2.72-3.99-5.11-5.67-7.88,1.88-.49,3.79-.92,5.71-1.33-.99-2.25-2.04-4.47-2.9-6.75.65-.06,1.95-.2,2.61-.26,1.52,1.34,3.07,2.69,4.65,4.01,2.29-.52,5.19-2.68,7.19-.4,2.68,3.16,4.05,7.26,7.11,10.13,1.09,1.03,2.61,2.4,4.21,1.47,2.51-2.98,1.09-8.16-2.61-9.37-3.34-1.05-6.79-1.91-9.63-4.05,1.34-2.38,2.81-4.7,4.42-6.92-2.75-.08-5.5-.3-8.11-1.16,1.47-2.29,3.75-3.82,5.68-5.7-1.65-1.35-3.43-2.7-4.15-4.8,4.1.57,8.32,1.39,11.89,3.62,3.01,1.91,4.38,5.36,6.41,8.16-.09-2.48-.16-5-.93-7.36-1.78-5.59-6.47-9.71-7.9-15.45,3.33.32,5.59,2.9,8.08,4.83M1513.24,189.42c2.04,2.91,5.94,3.07,9.18,3.12-3.19-.67-6.3-1.57-9.18-3.12M1534.07,257.77c-.4,1.62-1.1,3.3-.69,5,2.15,2.96,6.1,3.39,9.39,4.34,6.72,1.77,14.17,2.77,19.46,7.69,1.84-.03,3.64-.6,5.28-1.44-8.38-1.46-15.72-6.23-21.55-12.25-2.25-2.72-5.89.25-8.5-1.41-1.18-.59-2.29-1.27-3.39-1.93M1527.84,282.09c1.86,2.51,5.28,2.72,8.1,3.46-1.51-2.76-5.01-4.85-8.1-3.46M163.47,296.68c-7.67-1.9-12.51,6.32-19.58,7.47,2.93,3,7.03,4.51,11.03,5.53,4.69,1.2,9.4-.42,14.07-.92,6.26-3.05,13.43-.51,20.06-2,1.33-.33,2.77-.75,3.54-1.99-.65-.12-1.97-.35-2.62-.47-3.26-.6-6.78-.02-9.69-1.93.55-1.15,1.11-2.29,1.67-3.43-1.75-.1-3.49-.18-5.24-.28-1.56-2.11-3.58-3.81-6.01-4.82-2.79-2.17-4.91,1.69-7.21,2.85M1587.39,299.93c-7.17,1.98-14.56,3.84-22.06,3.17-2.17-.25-4.29.3-6.33.93-9.69,2.87-19.74,4.5-29.26,7.93,2.31,1.73,5.32,2.52,8.18,1.91,4.02-.76,8.07.16,12.11.37,1.3-1.15,2.41-2.68,4.08-3.35,3.26-.3,6.46,1.08,9.76.72,8.23-.92,16.21-3.45,23.75-6.83,2.16-1.03,4.51-1.89,6.19-3.68-1.93-1.19-4.19-1.97-6.41-1.17M1544.12,332.79c4.56,3.83,10.93,5.5,16.75,3.93,4.9-1.47,9.67,1.71,14.63.65.41,1.06.8,2.13,1.21,3.22,2.34-.28,4.5-1.28,6.03-3.11-.58-.2-1.73-.6-2.31-.8-.5-1.18-.98-2.35-1.43-3.51-2.68.2-4.56,2.31-7,3.1-2.46-.43-3.89-3.23-6.4-3.7-3.01-.66-5.96.5-8.75,1.42.25-1.65.48-3.31.73-4.95-1.15-.74-2.23-1.67-3.59-1.88-3.39,1.69-6.36,4.16-9.87,5.63M177.2,365.89c-1.93.19-3.02,1.78-4.05,3.22-1.61.18-3.24.32-4.86.45-.24.4-.75,1.21-1,1.6,4.54-1.26,9.49-.15,13.8-2.3,2.18-1.08,4.77-1.79,6.26-3.85-3.25-1.84-6.83.26-10.14.87M1169.03,381.84c-2.96.23-5.94-.24-8.86.28-3.54,3.44-3.28,8.94-3.82,13.52,10.9.48,21.77-2.22,32.68-.5-1.54-1.97-3.62-3.43-5.22-5.32-1.87-2.61-2.78-5.73-4.15-8.59-3.57-.23-7.09.34-10.62.61M97.85,392.69c2.64.72,5.3,1.36,8.01,1.81-1.23-2.23-2.51-4.57-4.63-6.08-2.72-.61-3.95,1.94-3.38,4.26M169.24,391.29c.3,1.39.58,2.79.85,4.2-1.88.07-3.77.17-5.65.3.39.83.78,1.67,1.15,2.52,4.72-1.44,9.5-3.31,13.55-6.16-.85-1.1-1.81-2.09-2.89-2.96-2.31.78-4.65,1.46-7.01,2.1M1579.72,394.71c1.64,1.48,3.53,2.7,4.99,4.41-2.35-.05-4.69-.25-7.01-.5-.56,1.7-1.17,3.41-2.18,4.9-1.49-.18-2.98-.3-4.44-.34,1.94,1.64,4.66,1.82,7.12,1.82,3.58-.93,6.03-4.07,9.33-5.61,2.52-.89,5.18.18,7.78.16,2.23-.61,4.03-2.22,5.64-3.82-2.08.25-4.15.55-6.2.81-1.47-2.31-2.42-5.93-5.74-5.93-3.46.14-6.61,2.05-9.29,4.1M73.27,401.36c2.52-.05,5.18.54,7.62-.19,1.42-1.41.11-3.75-.25-5.42-2.67,1.55-5.46,3.09-7.37,5.61M227.64,424.44c.05,2.62-.65,6.38,2.04,7.96,4.18.53,8.37-.79,12.43-1.67-1.47-2.53-3.82-4.84-6.99-3.8-1.66-2-3.26-4.04-4.97-6-1.32.75-2.74,1.77-2.52,3.51Z"/>
  <path class="cls-1" d="M1705.06,305.08c7.77-1.05,15.66-2.08,22.94-5.21v32.49c-4.24,1.45-8.85,1.96-12.7,4.36,4.12,1.16,8.43,1.25,12.7,1.34v253.2h-339.59c4.7-1.49,9.67-.66,14.48-1.42,46.93-3.21,93.87-5.9,140.81-8.94,6.22-.98,12.54-.04,18.78-.95,24.29-2.03,48.67-4.16,72.47-9.59,7.95-1.59,15.88-3.73,23.04-7.64,5.51-3.02,11.6-5.46,15.86-10.28,3.27-3.63,7.18-6.8,9.58-11.14,6.69-11.54,10.01-24.73,11.69-37.88,1.34-17.28,2.9-34.57,3.25-51.9,1.63-9.95-.14-20.05,1.32-30.02,1.02-11.1-.5-22.3.87-33.38.74-25.15.1-50.32.41-75.48.33-2.84.32-7.29,4.08-7.58Z"/>
  <path class="cls-1" d="M-3.15,360.04c6.32,2.16,12.57,4.81,19.29,5.43,6.12.87,12.33.41,18.38-.82,1.97-.47,5.1-.32,5.36,2.27,2.64,15.16-.1,30.63,1.91,45.84.65,7.66-.45,15.39.57,23.05,1.24,8.53-.28,17.19,1.16,25.72.8,20.92,2.47,42.03,8.3,62.23,2.7,7.45,6.88,14.34,11.98,20.39,7.52,7.55,17.03,12.91,27.14,16.18,12.44,4.63,25.57,7.03,38.66,8.97,9.62.51,19.15,1.94,28.74,2.74,25.11,2.07,50.25,3.9,75.4,5.1,5.57.89,11.24.25,16.83,1.07,5.18.78,10.44.03,15.63.73,5.53.81,11.15.33,16.68,1.15,7.03.92,14.15-.28,21.19.66,5.27.77,10.64.34,15.93,1.06,4.54.59,9.13.22,13.67.81,5.28.71,10.65.27,15.93,1.07,32.28,1.65,64.51,4.22,96.78,6.14,4.22.5,8.53.24,12.66,1.42H-3.15v-201.91c4.41-1.15,9.15-1.27,13.22-3.52-3.35-4.8-10.31-4.98-13.22-10.22v-15.58Z"/>
</svg>