<?xml version="1.0" encoding="UTF-8"?>
<svg id="Layer_1" data-name="Layer 1" xmlns="http://www.w3.org/2000/svg" viewBox="0 0 986.38 1600">
  <defs>
    <style>
      .cls-1 {
        fill: #0dd9d9;
      }
    </style>
  </defs>
  <path class="cls-1" d="M701.26,155.39c41.84,38.19,61.95,43.32,26.93,87.3-69.05,81.91-113.49,180.57-175.12,267.65-36.08-113.21-21.54-213.05,65.92-328.42,40.21-52.47,46.43-53.81,82.27-26.53Z"/>
  <path class="cls-1" d="M770.98,261.36c57.95,2.58,83.96,83.69,109.57,117.3,53.26,63.67-99.83,75.76-318.89,438.23-26.1-98.66-8.68-206.49,39.51-295.68,2.16-3.95,117.54-229.18,169.82-259.86Z"/>
  <path class="cls-1" d="M595.32,78.63c28.47,21.8,34.2,22.98-78.31,167.2-9.35-23.72-47.43-207.35-50.81-224.31-2.92-8.95,2.07-17.24,9.99-21.44,22.55-1.53,36.76,22.53,119.13,78.56Z"/>
  <path class="cls-1" d="M932.15,538.82c5.6,37.16,18.37,72.83,24.03,109.99,8.8,73.44-25.93,82.24-114.59,144.38-146.88,94.67-242.41,240.68-279.6,282.95-5.73,6.88-13.19,11.85-21.08,15.96-.7-73.2,5.54-149.38,40.24-215.32,63.14-120.53,145.33-230.55,238.23-329.61,70.79-65.27,93.85-106.42,112.76-8.35Z"/>
  <path class="cls-1" d="M414.47,76.16c7.25,41.91,19.74,83.1,22.78,125.68-43.07-13.54-109.31-85.32-86.36-116.94,15.48-22.63,58.38-49.84,63.57-8.74Z"/>
  <path class="cls-1" d="M958.34,762.64c24.66,16.4,29.04,105.82,27.87,135.58-4.9,85.99-19.87,111.47-102.59,151.27-208.81,95.25-250.21,187.84-391.78,285.35-12.6-67.45,71.08-177.63,88.73-203.57,65.72-95.28,67.48-137.88,337.87-351.27,11.76-8.35,24.64-18.49,39.9-17.36Z"/>
  <path class="cls-1" d="M347.61,192.18c93.09,100.12,120.19,227.54,140.15,352.76-1.98,1.19-5.94,3.56-7.92,4.75-18.21-6.76-32.08-21.29-39.42-39.11-143.27-250.45-299.31-204.63-223.91-300.19,52.31-57.07,80.47-70.2,131.1-18.22Z"/>
  <path class="cls-1" d="M482.37,847.45c-24.61-28.63-142.36-248.32-346.82-388.73-47.72-34.64-43.31-36.86-21.44-92.66,5.91-15.72,15.2-31.34,30.43-39.51,143.3-41.68,411.29,397.26,337.84,520.9Z"/>
  <path class="cls-1" d="M921.37,1102.46c-91.54,247.64-305.35,360.98-504.88,485.45-1.25-1.8-3.69-5.39-4.9-7.16,37.02-212.89,490.01-534.79,509.79-478.29Z"/>
  <path class="cls-1" d="M82.91,497.46c42.27-9.41,71.91,29.64,237.53,202.99,98.34,103.21,136.97,223.36,153.37,365.55,4.96,37.19-5.64,74.96-23.24,107.56-51.99-109.46-175.78-264.66-268.9-377.16C52.99,650.94-.23,727.81,30.64,593.77c10.39-34.94,18.34-76.09,52.27-96.31Z"/>
  <path class="cls-1" d="M397.78,1380.29c-2.74-.49-8.22-1.4-10.97-1.89-20.62-19.21-87.54-120.54-116.72-152.24C80.63,1027.5,28.92,1102.58,6.55,831.21c-1.86-25.49-6.31-50.72-6.55-76.3,62.9-93.55,571.34,529.92,397.78,625.38Z"/>
  <path class="cls-1" d="M268.2,1301.58c159.24,180.44,75.91,297.58,49.01,298.42-12.82-.82-19.56-13.65-26.5-22.66-135.15-209.1-117.67-131.27-229.91-414.02-5.97-12.18-1.43-25.19,8.68-33.54,6.55.4,13.68-.46,19.22,3.75,4.98,3.06,128.65,112.76,179.5,168.05Z"/>
</svg>