<?xml version="1.0" encoding="UTF-8"?>
<svg id="Layer_1" data-name="Layer 1" xmlns="http://www.w3.org/2000/svg" viewBox="0 0 1728 1296">
  <defs>
    <style>
      .cls-1 {
        fill: #f3f6f4;
        stroke: #f3f6f4;
      }

      .cls-2 {
        fill: #f8f9f8;
        stroke: #f8f9f8;
      }

      .cls-3 {
        fill: #f8faf9;
        stroke: #f8faf9;
      }

      .cls-4 {
        fill: #edf0ee;
        stroke: #edf0ee;
      }

      .cls-5 {
        fill: #f3f5f4;
        stroke: #f3f5f4;
      }
    </style>
  </defs>
  <path class="cls-1" d="M394.54,203.79c-8.01-2.6-16.02-6.05-21.28-12.98,16.12-1.15,32.38-.41,48.47-2.05,13.59-3.25,24.84-12.25,37.27-18.23,11.34,8.54,22.66,17.09,33.47,26.25-15.2,9.19-30.66,18.68-47.34,24.91-17.5-3.76-33.46-12.68-50.59-17.91Z"/>
  <path class="cls-2" d="M417.08,159.49c3.47.15,6.99.28,10.51.42,23.36,1.49,44.09,11.1,65.83,17.31,27.38,7.69,48.96,24.39,74.65,34.82,16.23-9.2,31.11-19.94,46.82-29.73,6.96-4.79,16.6-3.17,24.97-3.28,24.97,1.25,50.26,1.05,74.83,5.64,18.43,3.43,38.03,4.02,55.05,11.41,14.14,6.05,28.7,11.43,42.98,17.29,9.45,3.58,14.33,11.52,19.68,18.38,8.29,10.69,16.23,21.57,25.32,31.8,21.32-4,42.1-9.79,63.21-14.56,12-2.75,24.47-.52,36.68-.24,15.6.92,31.41.52,46.84,2.91,7.89,6.25,11.57,15.15,17.5,22.62,7.34,11.32,16.97,21.73,22.59,33.73-1.4,9.03-6.91,17.18-10.41,25.71-10.72,23.21-20.71,47.06-36.46,68.29-17.4,6.23-36.28,9.27-54.21,14.36-32.57,8.28-65.41,15.85-97.95,24.15-15.15,3.93-31.17,2.78-46.76,2.93-18.93-.17-37.97.98-56.72-1.44-17.4-2.27-34.74-4.87-52.11-7.13-22.24-3.15-43.61,4.61-65.51,6.38-6.67-8.31-12.08-17.27-15.91-26.73-6.96-16.92-16.26-33.23-20.92-50.76-3.6-12.26-6.96-24.59-10.72-36.81-2.54-9.29-12.76-14.82-20.1-21.42,11.94-4.42,23.78-9.18,36.41-12.15,4.63-1.51,8.87,1.31,12.84,2.97,18.96,9.73,37.89,19.52,57.36,28.57-.26-22.43-2.12-44.83-3.1-67.24-22.01.87-43.59,4.72-65.46,6.49-9.59,1.57-16.71-4.83-23.81-8.96-16.42-9.86-31.25-21.9-50.15-28.53-15.01-5.36-29.47-11.87-45.36-15.28-21.24-15.85-39.43-34.25-58.39-51.94Z"/>
  <path class="cls-5" d="M324.45,148.1c3.35-1.41,7.17-.79,10.75-.84,16.94.92,33.89,1.94,50.86,2.55,11.25,0,20.9,6.05,30.99,9.95,10.8,4.33,21.23,9.52,32.21,13.39,3.3-.84,3.96-5.08,5.97-7.44,2.86-.26,5.75-.53,8.66-.77-.64,4.39-1.84,8.65-3.5,12.78-2.99-.82-5.97-1.62-8.94-2.44-4.97,11.43-8.18,23.48-13.26,34.86-20.82-9.36-40.89-20.15-61.59-29.65-20.84-6.92-42.06-12.88-62.93-19.78,2.96-4.63,6.28-9.2,10.77-12.62Z"/>
  <path class="cls-4" d="M338.18,175.85c6.73-1.32,14.08-4.69,20.81-1.63,15.85,6.96,31.54,14.25,47.54,20.83,7.86-8.18,13.95-17.84,21.74-26.09.63,11.76.78,23.5.6,35.27-7.02-1.29-13.14-5.25-20.08-6.69-19.66-2.95-38.19-10.57-57.41-15.49-4.57-1.58-10.45-1.63-13.21-6.21Z"/>
  <path class="cls-3" d="M796.75,232.41c4.37.21,8.77.32,13.21.42-4.9,17.85-10.12,35.59-14.94,53.46-1.48,5.77-3.79,11.65-8.87,15.2-18.75,14.75-37.63,29.31-56.54,43.88-12,8.53-11.15,24.94-15.81,37.55-9.9-1.91-19.86-3.55-29.95-4.18-12.82,18.38-23.75,38.03-36.81,56.24-2.25,4-7.04,4.37-11.07,4.95-31.86,3.1-64.82-.21-95.57,10.17-13.32,4.18-26.85,7.63-40.38,10.99,12.21,10.38,25.71,19.04,38.4,28.81,8.37,6.06,16.68,13.77,27.59,14.22,22.85,2.07,45.76,3.55,68.56,6.33,7.97.85,15.6,3.52,22.77,7.07-10.19,13.4-24.79,22.56-34.48,36.38-10.54,14.56-24.52,27.62-27.99,46.05-39.27,3.42-78.12,10.22-116.65,18.46-17.64,4.61-35.11-2.44-52.43-5.14-16.66-2.65-33.39-8.69-50.39-5.16-29.37,4.9-59.13,7.84-87.99,15.46-23.49,5.11-46.66,12.98-70.86,13.58-18.85.64-37.6,3.02-56.43,2.7,12.31-14.22,26.77-26.35,40.09-39.56-17.56-4.48-35.54-6.7-53.28-10.12-26.53-4.69-52.72-10.88-79.1-16.23-12.58-2.09-22.01-11.2-31.75-18.62-11.84-9.45-24.18-18.25-36.09-27.62,3.44-17.93,7.68-35.8,13.9-52.99,18.56-5.88,37.55-10.38,56.35-15.46,17.32-4.66,33.68-12.13,50.47-18.35,12.26-4.58,24.15-10.8,37.34-12.23,43.69-4.34,87.41-8.29,131.08-12.68,9.43-17.05,15.09-35.8,23.38-53.36,4.13-9.85,14.86-13.69,23.25-19.04,14.17-7.71,27.04-17.82,42-24.04,14.88-5.06,30.51-7.49,45.57-12.05,25.58-8.69,52.78-5.91,79.26-8.02,37.21-.77,73.72-10.51,111.03-9.19,20.81.58,41.68-.34,62.49,1.35,22.27,1.19,44.46,4.77,66.81,4.24,10.41-12.92,19.25-27.01,28.92-40.46,6.54-9.24,12.21-21.5,24.89-23.01Z"/>
  <path class="cls-3" d="M750.31,515.02c13.74-1.85,27.41,1.38,40.89,3.73,21.42,4.37,42.87,10.3,64.9,10.09,28.25-1.24,56.48-2.6,84.74-3.07,20.73.08,41.68-3.95,62.26-.9,15.76,15.86,30.8,32.57,45.92,49.09,2.2,2.41,4.87,4.66,8.47,4.37,14.94.53,29.87-1.27,44.86-1.32,13.51,0,28.04-2.83,40.59,3.79,21.58,10.59,43.72,19.99,65.27,30.66-12.84,10.78-26.03,21.29-39.99,30.59-21.48,11.73-43.8,21.85-65.35,33.37.69,23.25,5.69,46.1,6.73,69.35-20.36,14.14-40.54,28.76-61.54,41.92-30.82,5.96-64.08-9.27-93.98,4.1-12.66,5.14-25.53,9.72-38.13,14.94-7.34,2.89-15.17,6.59-23.17,4.21-17.9-4.05-35.72-8.5-53.6-12.6-20.73-4.71-41.79.87-62.63,1.62-9.06,1.22-20.15-.05-26.61,7.71-11.6,13.05-23.7,25.66-35.83,38.24-14.06,14.14-31.7,23.89-46.87,36.68,17.9,7.89,37.13,12.1,55.5,18.75,27.41,10.09,56.85,10.8,85.37,15.68,26.51,4.74,53.23-.93,79.84-.85,7.76-.69,17.5,1.19,22.91-5.96,11.57-13.11,23.04-26.37,34.53-39.59,4.42-4.77,9.06-11.12,16.5-10.22,33.63.32,67.26,2.67,100.76,5.67,14.75,1.24,29.79,1.72,44.04,6.2,12.68,4.03,25.32,8.31,38.03,12.39,25.39,9.82,53.07,5.27,79.6,7.23,12.45,2.04,21.5-7.02,30.64-13.74,5.32-4.66,12.63-1.56,18.83-.87,35.88,7.36,72,13.45,108.23,18.8,22.69,2.99,44.49,10.22,66.68,15.62,26.88,7.68,54.97,8.77,82.43,13.27,9.22,1.67,16.97,7.23,24.97,11.76,12.29,7.52,25.63,13.43,37.02,22.43-15.76-.48-30.98-5.16-46.69-5.88,13.11,8.37,28.1,13.03,42.02,19.91,19.2,9.43,40.54,12.71,61.04,18.25,26.61,6.25,52.67,14.67,78.51,23.57-4.74,3.47-9.48,6.91-14.06,10.51-24.97-1.64-49.47-7.73-74.52-8.29,20.63,8.84,43.06,12.76,63.58,21.93.29,1.17.9,3.52,1.19,4.69-3.39,16.92-7.76,33.63-11.33,50.5-13.8-1.96-27.7-3.52-41.07-7.36-24.15-7.81-47.08-19.3-71.58-25.95-19.91-2.94-39.96-5.45-60.03-6.94,14.27,16.05,32.97,27.51,47.35,43.35,6.59,16.5,9.37,34.48,12.15,52.01-18.75,1.09-37.52.19-56.27.61-22.53.77-43.9-7.31-65.67-11.73-28.86-5.67-55.24-19.2-82.54-29.61,11.12-6.96,23.51-11.57,34.8-18.3-15.04-10.38-32.09-17.19-47.93-26.19-24.15-13.24-49.2-24.79-73.46-37.79-20.47-13.35-38.16-30.51-58.47-44.06-2.46,3.23-4.9,6.46-7.28,9.72-14.56,3.42-29.31,5.72-43.9,8.9-16.5,3.47-33.42,2.14-50.1,2.33-13.45,0-27.01.85-40.25-1.77-17.48-3.52-34.85-7.71-52.3-11.31-9.61-2.09-19.46-.64-29,.79-16.29,2.54-32.76,3.79-48.75,7.76-6.73-5.85-13.58-11.52-20.55-17.03-2.22,2.04-4.37,4.05-6.41,6.17-10.8-8.84-23.41-14.96-35.59-21.58-10.78-5.77-23.06-7.41-34.8-10.06-15.62-3.2-30.98-7.55-46.71-10.09-17.72,16.68-35.11,33.74-52.86,50.39-5.24,5.16-12.84,5.8-19.68,7.02-13.88,2.07-27.62,5-41.63,5.72-11.12-17.03-24.89-32.09-37.13-48.3-13.51-18.11-30.19-33.42-45.92-49.52-17.45-18.14-35.51-35.64-53.99-52.72-8.21-9.16-20.07-16.42-22.88-29.21-5.32-19.46-10.38-38.98-15.81-58.42-1.99-7.41-6.36-13.82-10.86-19.91,7.79-8.77,19.17-12.58,28.97-18.48,14.99-8.79,31.3-15.6,44.57-27.06,12.74-11.2,26.06-21.79,38.56-33.31-11.49-6.7-24.07-11.07-35.99-16.82-9.59-4.29-19.36-10.2-30.29-8.77-18.62,1.59-37.15,3.87-55.77,5.45-19.57,2.28-38.82-3.63-58.36-3.42-15.2-25.66-28.49-52.64-48.38-75.18,8.39-6.04,19.22-5.72,28.97-7.84,75.23-13.82,149.96-31.35,226.17-38.93,32.7-3.71,65.41-7.26,98.11-10.86Z"/>
</svg>