<?xml version="1.0" encoding="UTF-8"?>
<svg id="Layer_1" data-name="Layer 1" xmlns="http://www.w3.org/2000/svg" viewBox="0 0 1919.12 702.12">
  <defs>
    <style>
      .cls-1 {
        fill: #6e9da6;
        stroke: #6e9da6;
      }

      .cls-2 {
        fill: #7aadbc;
        stroke: #7aadbc;
      }

      .cls-3 {
        fill: #6999a2;
        stroke: #6999a2;
      }

      .cls-4 {
        fill: #6e9ca5;
        stroke: #6e9ca5;
      }

      .cls-5 {
        fill: #6798a2;
        stroke: #6798a2;
      }

      .cls-6 {
        fill: #6998a2;
        stroke: #6998a2;
      }

      .cls-7 {
        fill: #78abbc;
        stroke: #78abbc;
      }

      .cls-8 {
        fill: #73a8ba;
        stroke: #73a8ba;
      }

      .cls-9 {
        fill: #7dafbe;
        stroke: #7dafbe;
      }

      .cls-10 {
        fill: #6c9ba4;
        stroke: #6c9ba4;
      }

      .cls-11 {
        fill: #6ea5b8;
        stroke: #6ea5b8;
      }

      .cls-12 {
        fill: #78acbc;
        stroke: #78acbc;
      }

      .cls-13 {
        fill: #6999a3;
        stroke: #6999a3;
      }
    </style>
  </defs>
  <path class="cls-13" d="M1768.24,286.14c7.98-8.23,16.06-16.47,25.59-22.95,8.15,5.41,16.32,10.83,24.33,16.44,4.8,5.62,5.74,13.38,7.92,20.22.56,2.12,2.37,3.51,3.94,4.89,4.98,4.07,9.51,8.75,15.19,11.87,4.08,1.93,5.13,6.66,6.61,10.51,1.3,2.75-.87,5.35-1.83,7.81,2.22,6.8,5.41,13.24,7.94,19.93,2.98,8.06,8.59,14.71,12.99,22,5.93,9.51,13.8,17.59,20.82,26.28,5.45,5.33,3.58,13.57,5.35,20.33,1.46-.04,2.96-.08,4.47-.11,5.06,7.05,9.89,14.3,15.73,20.74.54.63,1.1,1.27,1.67,1.92.26.41.78,1.24,1.04,1.65v83.06c-6.41,5.35-13.66,9.64-21.2,13.18.34-.49,1.01-1.48,1.34-1.98-4.57-.16-8.75-2.11-13.15-2.97-2.48.22-4.57,1.87-6.88,2.65.1-2.94.6-5.83,1.05-8.72-3.66-1.91-7.64-.34-11.29.65-.16-1.22-1.25-2.82-.02-3.79,3.3-1.87,7.29-2.34,10.37-4.68,3.16-2.42,6.45-5.51,6.85-9.71-3.52-.56-6.96-1.42-10.44-2.08-2.98-.63-5.99.44-8.94-.04-1.75-.87-2.99-2.64-4.84-3.19-4.39.41-8.79,2.43-13.19,1.11-2.45-.56-4.24-2.39-5.79-4.21,5.59,1.53,12.26,5.58,17.55,1.12-.81-1.7-1.6-3.4-2.35-5.12,2.6.86,5.14,2,7.9,2.31,2.74-.11,3.61-3.28,5.1-5.1,2.18.53,4.42.87,6.7.92-.2-2-.31-4.02.18-5.97,4.01-.26,10.96.38,11.28-5.21-3.18-.74-6.42-1.11-9.62-1.57-1.15-1.46-1.53-4.33-3.67-4.48-3.87,1.01-6.67,4.14-10.24,5.76-2.87-.04-5.53-1.79-8.43-1.4-5.01.72-9.22,4.13-14.27,4.57-3.78-.05-7.39-1.35-11.01-2.23-.05-1.66.21-3.29.87-4.81,1.7,1.01,3.35,2.16,5.22,2.92,3.09-.79,5.65-2.85,8.53-4.17-.15-1.14-.28-2.28-.39-3.4,5.53,1.27,10.98-.83,16.48-1.29.4-.55,1.21-1.64,1.61-2.19-2.12-1.74-4.67-2.78-6.92-4.27-1.07-1.01-.47-2.75.78-3.3,2.46-1.82,5.31-2.99,8-4.45-1.44-1.06-2.9-2.08-4.34-3.09,1.79-2.51,4.42-5.06,3.41-8.43-4.82,2-9.21,4.89-13.98,6.98-2.19,1.18-4.96-.96-5.24-3.15.93-2.14,3.09-3.55,4.16-5.68-1.59-.52-3.15-1.01-4.71-1.5,1.02-2.49,1.35-5.17,1.72-7.81.59-4.33,2.9-8.13,4.82-11.97-3.7,1.09-7.53.81-11.27.32-2.01-.45-3.44,1.3-4.99,2.2,1.1-4.36,3.66-8.08,5.89-11.91-3.35-1.87-6.04,1.34-8.55,3.1-.54-5.77-.81-11.56-1.35-17.33-5.02,2.78-3.13,9.28-4.67,13.88-2.76-2.15-5.27-5.01-8.96-5.36,1.58,6.36,6.79,10.93,8.76,17.13.85,2.62.93,5.41,1.03,8.16-2.25-3.1-3.77-6.93-7.11-9.05-3.96-2.48-8.64-3.39-13.19-4.02.8,2.32,2.77,3.82,4.6,5.32-2.14,2.08-4.67,3.78-6.3,6.32,2.89.96,5.94,1.2,8.99,1.29-1.78,2.46-3.41,5.03-4.9,7.67,3.15,2.37,6.98,3.32,10.68,4.49,4.11,1.34,5.68,7.08,2.9,10.39-1.78,1.03-3.46-.49-4.67-1.63-3.4-3.18-4.92-7.73-7.89-11.23-2.21-2.53-5.43-.14-7.97.44-1.75-1.47-3.47-2.96-5.16-4.45-.73.07-2.17.22-2.89.29.96,2.53,2.12,4.99,3.22,7.49-2.13.46-4.24.94-6.33,1.48,1.86,3.07,4.33,5.72,6.29,8.74-.95.3-1.88.62-2.78.94-8.79-2.77-17.67,1.24-25.43,5.11-9.48,3.62-18.34,8.62-27.84,12.17-10.89,3.87-21.11,9.42-32.11,12.99-7.6,2.49-14.92,5.71-22.38,8.56-6.81,2.66-13.98,4.31-20.66,7.3-12.52,5.01-25.64,8.26-38.35,12.71-6.26,2.02-12.46,4.24-18.73,6.21-17.83,4.98-36.47,6.37-54.14,11.99-5.03,1.99-8.87-3.21-11.05-7-2.82,2.11-5.78,4.06-8.33,6.49.81-.25,1.64-.49,2.49-.73,1.54,3.35,3.18,6.66,4.35,10.18-2.37-2.68-5.29-4.87-8.97-5.19.49.91,1,1.82,1.53,2.73-.86.55-1.69,1.1-2.51,1.65-6.2-7.24-15.64-11.56-19.79-20.49-4.16-7.77-9.17-15.08-12.81-23.12-3.08-6.59-6.15-13.18-9.2-19.77-1.2-3.26-5.2-3.21-7.98-4.17-7.05-1.48-13.8-4.26-20.96-5.18-5.27,8.34-14.1,13.42-20.54,20.72-4.66,6.18-7.68,13.49-12.73,19.39-6.13-4.39-12.01-9.12-18.06-13.61-2.6-2.08-6.14-.88-9.14-.89-11.28.63-22.54,2.05-33.84,2.06-4.3-8.2-9.64-15.79-14.29-23.79,7.26.6,14.77,1.31,21.4,4.58,5.4,2.65,10.75,5.4,16.29,7.75,5.4,2.31,11.34,2.59,17,3.93,3.31.73,6.18,2.66,9.4,3.68,5.4-.84,9.72-4.86,15.17-5.61,3.14-.63,6.94-.26,9.18-3.04,5.5-5.87,10.48-12.21,15.82-18.24,7-8.76,12.76-18.48,19.57-27.37,4-2.61,8.7-4.42,11.5-8.58,4.61-4.71,2.18-13.15,8.1-16.88,5.27-3.42,10.02-7.79,15.71-10.46,7.43.72,14.41,3.81,21.78,4.96,1.61-2.64,3.24-5.26,5-7.81,1.61,5.01-.14,11.91,5.01,15.11,6.87,4.81,14.03,9.22,20.75,14.26,6.16,4.73,14.04,5.92,21.02,8.98,3.11.94,6.7,3.35,9.82,1.15,8.47-4.85,16.73-10.06,25.3-14.73,5.94-3.17,10.6-8.12,15.75-12.35,14.27-13.39,31.73-22.79,45.93-36.3,4.91-4.32,10.41-8.01,14.87-12.83,9.08-11.96,15.77-25.8,26.63-36.36,5.53-6.08,11.53-11.72,16.82-18.02-.37-1.26-.78-2.51-.92-3.81.56-1.68,1.83-3,2.88-4.41,5.1-6.28,9.86-12.83,14.87-19.18,1.94-3.15,6.58-1.15,8.67-4.21Z"/>
  <path class="cls-3" d="M209.21,281.89c13.3,10.2,26.63,20.4,39.39,31.29,4.4,3.92,9.76,7.06,12.78,12.29,4.54,7.76,9.21,15.45,13.83,23.16,1.72,2.73,1.71,6.05,1.78,9.17.05,8.01.72,16,.71,24.02.11,4.39-.21,8.89.99,13.18,9.65,16.98,19.7,33.74,29.53,50.62,6.37,11.26,11.35,23.25,17.32,34.71,5.78.3,11.57.28,17.35.12,3.94-.1,7.81-1.33,11.76-1.04,4.52,2.97,7.71,7.61,12.35,10.44,2.48,1.08,5.27.99,7.91,1.35,4.01.28,8.04,1.18,12.07.7,4.55-1.4,8.36-4.43,12.59-6.53,11.01-5.66,20.44-13.89,31.49-19.49,5.51-2.63,8.06-8.71,13.24-11.78,4.73-2.96,9.61-5.67,14.31-8.67,3.45-2.21,6.16-5.32,9.28-7.92,4.65,3.23,8.81,7.1,13.33,10.51,3.15,2.33,6.7,4.47,8.61,8.05,4.27,7.38,7.71,15.25,12.7,22.21,5.55,7.77,11.42,15.31,16.97,23.08,2.1,3,4.87,5.8,5.51,9.56,1.06,6.19,1.43,12.47,2.3,18.69-.83-.51-1.64-1.02-2.45-1.52-2.18,6.7,1.36,15.04-4.04,20.58-3.4,4.09-9.12,3.14-13.82,3.2-10.3-.4-20.92,1.14-30.88-2.21-5.4-1.96-10.48-4.82-16.2-5.79-15.42-3.83-30.32-9.56-45.81-13.15-9.9-3.12-19.91-5.91-29.75-9.22-14.96-3.42-29.43-8.6-44.15-12.88-5.77-1.69-11.79-2.41-17.49-4.4-2.45-6.59-3.14-13.82-6.35-20.1-.41.11-1.23.34-1.63.45-3.56-2.95-5.95-7.13-9.73-9.79-6.73-1.85-13.83-1.92-20.66-3.39-.63-1.91-1.3-3.8-2.06-5.65-2.58,7.68-4.73,15.51-7.13,23.25-.51,1.62-1.19,3.33-2.75,4.23-3.92,2.62-8.02,5-12.22,7.15-4.09.29-7.46,2.79-10.9,4.75-5.65,3.29-9.17,9.04-14.39,12.88-6.49-4.41-13.85-7.12-21.14-9.88-12.09-4.28-23.58-10.06-35.62-14.45-12.07-5.2-24.02-10.88-36.77-14.26-4.4-1.32-8.63,1.43-13.07,1.1-.3-3.88,2.66-7.1,2.26-11,0-.35.03-1.05.04-1.4-4.9,2.08-10.66-1.34-15,2.32,1.13-4.2,3.96-7.6,5.47-11.62-3.04-.18-5.52,1.62-7.96,3.16-.33-5.2-.54-10.42-1.3-15.58-4.54,2.5-3.03,8.49-4.02,12.72-2.8-1.73-5.05-4.88-8.68-4.65,1.81,4.96,5.37,8.98,7.55,13.74,1.46,3.03,1.56,6.44,1.48,9.74-1.75-2.92-3-6.38-5.92-8.37-3.71-2.6-8.29-3.54-12.72-3.93.99,2.06,2.72,3.57,4.4,5.05-1.88,1.46-3.88,2.79-5.6,4.46.73,2.99,5.23,1.9,7.61,2.64-1.48,2.22-2.86,4.51-4.08,6.89,3.09,2.59,7.17,3.04,10.76,4.58,3.49,2.06,3.98,7,1.29,9.94-6.04-1.81-7.65-8.6-11.48-12.83-2.01-2.38-4.96.01-7.27.56-2.13-1.86-4.13-4.4-7.27-4.18.67,2.63,1.83,5.08,3.06,7.49-2.03.3-4.05.61-6.08.96,1.6,2.95,3.97,5.37,5.62,8.29-2.12.95-4.22,1.95-6.18,3.2,3.46,4.47,9.25,5.32,14.16,7.37-3.19,1.69-6.7,2.58-10.09,3.77,2.28,2,5.92,2.77,7.05,5.84-8.89,1.82-15.66,8.28-23.36,12.66,3.25,4.33,8.92,5.13,13.84,3.59.89,1.61,1.75,3.23,2.6,4.87,2.82.29,5.13-1.48,7.66-2.38,1.85-.17,3.67.45,5.49.73-.86,2.01-1.77,4-2.75,5.96-4.55-.51-8.71-2.48-12.96-4.04-3.28,1.88-6.08,4.56-9.53,6.16-4.03,1.75-8.16-1.64-12.27-.47-3.19.74-6.21,2.03-9.21,3.31,4.73,3.15,10.41,5.2,13.53,10.3,4.27-1.62,8.84-.81,13.1.4,2.13,1.47,3.44,4.75,6.46,4.37,4.11-.72,7.81-2.94,11.99-3.43-3.86,6.82-12.07,10.52-19.75,9.78-3.87-.38-7.04-2.8-10.28-4.7-1.13,1.43-2.21,2.9-3.28,4.38-1.91-.66-3.77-1.46-5.6-2.3-2.72,1.85-5.86,2.8-9.12,3.09,3.69,3.53,7.09,8.14,12.76,8.08,2.02,3.91,6.01,6.06,8.52,9.58,1.84,2.78,5.48.9,7.98.27-1.12,2.65-2.27,5.29-3.34,7.97-3.63-.4-7.03-1.81-10.34-3.25.11,1.92.44,3.89,0,5.81-3.93,2.29-8-2.72-12.16-1.23-4.37,1.47-8.53,3.68-13.22,4.1,5.58,4.75,11.44,9.76,14.09,16.82-2.81,1.97-5.51,4.38-8.99,5.04-7.17,1.48-14.57,1.7-21.62,3.78-2.26-8.3-3.93-16.76-6.47-24.98-5.17-.66-6.8-5.85-9.16-9.7v-136.98c4.88-5.29,9.49-10.82,14.26-16.21,7.41-7.85,10.23-18.7,16.84-27.12,5-6.28,9.5-12.95,14.78-19,4.53,2.4,9.6,4.01,13.41,7.57-.14,2.42-1.34,5.15-.39,7.47,6.67,7.64,15.91,12.99,21.02,22.01,3.53,4.77,6.05,10.43,10.25,14.62,4.49-1,8.65-3.07,13-4.55,4.11-1.64,8.46-2.72,12.4-4.76,2.27-5.53,1.97-11.77,3.12-17.59.38-5.81,4.27-10.35,7.03-15.19,5.28-8.87,11.87-16.89,17.09-25.78,3.74-8.16,7.06-16.51,10.56-24.78,3.82-7.79,7.53-15.64,11.13-23.54,2.8-6.2,7.71-11.03,11.71-16.43,3.74-4.55,7-9.53,11.26-13.61,7.13-6.3,14.93-11.83,21.74-18.48Z"/>
  <path class="cls-6" d="M947.28,376.15c4.7-4.97,8.74-10.53,13.58-15.37,6.89,6.87,12.68,14.76,19.58,21.63,5.31,4.67,10.23,9.75,15.35,14.64,3.97,3.7,4.91,9.27,6.93,14.07,2.7,6.56,4.56,13.52,8.4,19.55,3.21,5.18,6.08,10.57,9.35,15.73,1.4,2.21,2.6,4.69,2.41,7.4-.32,9.24-1.64,18.5-.73,27.76-2.27,2.19-4.33,4.66-6.98,6.41-3.36,1.97-7.31,2.59-11.14,2.79-17.76.77-35.33,3.69-53.03,5.06-6.74.03-13.19,2.07-19.75,3.35-16.35,3.48-32.49,8.46-49.24,9.72-3.12.08-7.52.26-8.99-3.15-2.26-4.79,1.72-9.41,2.83-13.97-1.48-.09-2.96-.13-4.43-.13,5.03-7.13,10.02-14.3,14.83-21.59,3.73-5.87,3.23-13.36,6.68-19.31,4.65-5.3,9.84-10.16,14.09-15.79,2.6-5.4-.66-13.25,4.93-17.2,4.91-4.07,9.73-8.25,14.6-12.36,2.09-1.72,3.4-4.12,4.74-6.42,5.63-7.4,9.6-15.98,15.99-22.82Z"/>
  <g>
    <path class="cls-11" d="M935.31-.59c2.49-2.01,5.05-3.93,7.68-5.76,2.02,2.06,4,4.16,5.89,6.35,7.16,8.09,14.03,16.51,22.05,23.76,4.87,8.86,9.51,17.86,14.62,26.58,4.76,6.02,10.76,10.94,16.07,16.48,2.77,3.02,6.63,5.55,7.59,9.8,1.42,5.59,2.69,11.23,4.05,16.84,1.76,8.02,5.27,15.48,7.9,23.22,1.45,4.33,3.49,8.43,6.01,12.23,4.25,6.66,7.97,13.67,12.81,19.94,2.94,3.81,5.78,7.7,8.67,11.57,7.51,8.51,12.53,18.7,18.27,28.39,6.93,13.93,17.17,25.8,25.8,38.67,1.7,2.3,3.35,4.72,4.1,7.52,2.05,7.34,3.96,14.71,5.97,22.06,1.06,4.83,5.54,7.57,8.64,11.03-2.7.58-4.6-1.7-6.38-3.31-3.3-2.98-4.1-7.54-5.45-11.56-2.72-8.37-3.98-17.45-9.17-24.79-5.9-9.01-12.26-17.71-18.59-26.42-1.54-2.09-2.69-4.6-4.82-6.16-3.67-1.37-7.64-1.64-11.44-2.49-15.25-3.18-30.58-6.03-45.83-9.17-12.48-1.4-24.61-5.01-37.16-5.91-11.32-.89-22.64-3.67-34.01-1.94-15.19,1.29-29.86,5.69-44.84,8.26-15.35,3.37-30.13,9.21-45.8,11.1-8,.86-15.78,3-23.7,4.32-3.47.72-7.52,1.17-9.81,4.23-3.38,4.62-5.11,10.19-6.51,15.67-1.07,4.36-3.39,8.39-3.74,12.92-.29,3.4-.28,6.91-1.74,10.07-.21-.82-.63-2.44-.84-3.26-.25-9.75,4.07-18.63,6.32-27.91,1.31-6.96,6.59-11.89,10.57-17.39,3.66-5.22,9.17-8.68,13.02-13.74,2.96-3.46,6.15-6.73,9.14-10.17,2.53-2.73,3.15-6.51,4.05-9.97,2.61-10.26,5.44-20.46,8.13-30.69,1.76-4.76,1.44-10.96,5.97-14.18,7.14-5.5,14.27-11,21.35-16.57,1.92-1.34,2.79-3.56,3.35-5.74,1.82-6.75,3.79-13.45,5.64-20.19,1.01-3.71,2.34-7.37,4.42-10.64,3.88-6.17,7.58-12.46,11.39-18.68,3.65-5.95,6.13-12.5,9.05-18.82,2.4-4.62,3.76-9.89,7.13-13.95,4.49-4.14,9.57-7.6,14.18-11.6Z"/>
    <path class="cls-8" d="M938.58,176.34c11.37-1.73,22.69,1.05,34.01,1.94,12.55.9,24.68,4.51,37.16,5.91,15.25,3.14,30.58,5.99,45.83,9.17,3.8.85,7.77,1.12,11.44,2.49,2.13,1.56,3.28,4.07,4.82,6.16,6.33,8.71,12.69,17.41,18.59,26.42,5.19,7.34,6.45,16.42,9.17,24.79,1.35,4.02,2.15,8.58,5.45,11.56,1.78,1.61,3.68,3.89,6.38,3.31,6.98,6.45,13.8,13.06,20.39,19.91,5.94,6.08,12.24,11.86,17.34,18.7,4.62,6.12,9.82,11.81,14.02,18.24,3.15,5.09,6.2,10.25,9.48,15.27,1.87,2.97,3.98,5.94,4.67,9.46-.14.52-.41,1.56-.55,2.08-2.15-5.23-4.48-11.5-10.57-13.12-21.5-6.22-43.28-11.48-64.58-18.39-9.53-3.23-19.47-4.91-29.05-7.94-11.79-3.44-23.54-7.13-35.59-9.5-15.78-4.71-31.8-8.55-47.87-12.09-12.94-3.55-26.11-6.08-39.22-8.86-4.87-1.21-9.73.5-14.49,1.39-10.59,2.07-20.93,5.24-31.48,7.51-12.95,2.09-25.5,6.01-38.33,8.69-12.77,3.34-25.96,4.49-38.87,7.08-14.12,2.74-28.33,4.95-42.45,7.63-11.21,2.06-22.72,2.39-33.77,5.29-3.07,1.36-4.94,4.34-7.27,6.63-3.32,3.7-7.96,6.1-10.63,10.39-3.26,5.09-5.8,10.65-9.59,15.4-.56.86-1.64.94-2.5,1.28,2.68-5.19,5.75-10.17,8.56-15.29,1.79-3.33,4.12-6.35,6.89-8.93,3.6-3.44,7.1-6.97,10.76-10.35,2.24-2.11,4.58-4.27,5.78-7.17,3.2-7.51,5.95-15.2,9.35-22.62,3.38-6.43,7.88-12.18,11.64-18.39,1.75-2.5,3.08-5.89,6.35-6.7,6.64-2.12,13.38-3.99,20.01-6.17.59-3.83.86-7.69,1.14-11.55.17-2.11.43-4.21.6-6.32.21.82.63,2.44.84,3.26,1.46-3.16,1.45-6.67,1.74-10.07.35-4.53,2.67-8.56,3.74-12.92,1.4-5.48,3.13-11.05,6.51-15.67,2.29-3.06,6.34-3.51,9.81-4.23,7.92-1.32,15.7-3.46,23.7-4.32,15.67-1.89,30.45-7.73,45.8-11.1,14.98-2.57,29.65-6.97,44.84-8.26Z"/>
    <path class="cls-7" d="M1594.51,275.09c1.79,2.91,4.65,4.76,7.82,5.92,8.76,5.28,18.06,9.61,26.98,14.62,2.01.94,2.16,3.36,2.63,5.26,1.6,9.32,3.51,18.57,5.06,27.9.47,2.22.63,4.97,2.95,6.14,7.66,4.67,15.39,9.25,23.1,13.86,3.84,2.3,8.44,4.42,10.02,8.99,3.61,9.13,8.16,17.88,11.35,27.18-14.2,13.51-31.66,22.91-45.93,36.3-5.15,4.23-9.81,9.18-15.75,12.35-8.57,4.67-16.83,9.88-25.3,14.73-3.12,2.2-6.71-.21-9.82-1.15-6.98-3.06-14.86-4.25-21.02-8.98-6.72-5.04-13.88-9.45-20.75-14.26-5.15-3.2-3.4-10.1-5.01-15.11-1.76,2.55-3.39,5.17-5,7.81-7.37-1.15-14.35-4.24-21.78-4.96-5.69,2.67-10.44,7.04-15.71,10.46-5.92,3.73-3.49,12.17-8.1,16.88-2.8,4.16-7.5,5.97-11.5,8.58-6.81,8.89-12.57,18.61-19.57,27.37-5.34,6.03-10.32,12.37-15.82,18.24-2.24,2.78-6.04,2.41-9.18,3.04-5.45.75-9.77,4.77-15.17,5.61-3.22-1.02-6.09-2.95-9.4-3.68-5.66-1.34-11.6-1.62-17-3.93-5.54-2.35-10.89-5.1-16.29-7.75-6.63-3.27-14.14-3.98-21.4-4.58-2.45-3.41-4.8-6.89-6.93-10.5,1.47-5.66,1.78-11.53,1.89-17.36-6.05-4.49-11.91-9.34-18.5-13.01-1.14.96-2.27,1.92-3.39,2.89-3.91-3.72-2.93-9.31-2.86-14.14.29-6.62-.1-13.26.4-19.87,7.4-7.16,14-15.11,21.47-22.19,7.29,4.29,14.25,9.14,21.41,13.67,4.54,3.08,9.68,5.5,13.31,9.75,5.97,6.74,9.39,15.21,14.15,22.76,1.67,2.77,4.72,4.14,7.41,5.71,5.66,3.02,10.8,7.15,17.09,8.84,6.17,1.77,12.27,3.81,18.42,5.66,2.69,1.12,5.27-.67,7.65-1.77,6.43-3.37,13.07-6.33,19.55-9.63,4.26-2.06,5.93-6.81,8.52-10.45,4.12-5.87,7.37-12.4,12.18-17.76,5.99-6.01,12.06-11.96,18.1-17.92,3.29-3.19,4.5-7.98,8.17-10.83,6.94-5.69,13.73-11.57,20.66-17.27,3.53-2.71,3.32-7.55,4.37-11.47,1.35-6.37,3-12.68,4.28-19.07.48-2.63,1.28-5.4,3.68-6.92,1.73-1.36,3.52-2.66,5.31-3.97,2.86-2.13,5.85-4.09,8.68-6.27,6.56-4.41,4.64-14.47,11.33-18.79,3.68-3.45,8.84-3.78,13.31-5.56,3.26-5.08,5.4-10.82,8.05-16.25.65-1.69,1.27-3.4,1.88-5.12Z"/>
    <path class="cls-12" d="M935.41,283.24c4.76-.89,9.62-2.6,14.49-1.39,13.11,2.78,26.28,5.31,39.22,8.86,16.07,3.54,32.09,7.38,47.87,12.09,12.05,2.37,23.8,6.06,35.59,9.5,9.58,3.03,19.52,4.71,29.05,7.94,21.3,6.91,43.08,12.17,64.58,18.39,6.09,1.62,8.42,7.89,10.57,13.12.14-.52.41-1.56.55-2.08,1.17,5.22,2.03,10.5,3.05,15.76.77,4,1.16,8.22,3.22,11.84,5.2,8.86,11.2,17.29,15.52,26.64-6.58,5.43-13.82,10.15-19.95,16.06-4.17,8.26-6,17.55-10.16,25.83-3.45,5.46-7.6,10.44-11.22,15.8-1.85,2.43-3.41,5.46-6.43,6.6-4.7,1.9-9.48,3.6-14.34,5.05-6.09-4.86-11.3-10.7-17.24-15.74-5.18-2.42-10.56-4.34-15.86-6.47-2.47,5.38-4.08,11.08-6.09,16.63-1.67,4.47-2.63,9.43-5.98,13.02-10.3,11.38-20.53,22.83-30.97,34.07-1.73,2.54-4.85,1.21-7.35,1.71-3.47,3.32-6.17,7.34-9.42,10.87-5.54-9.19-11.91-18.07-15.34-28.34-2.14-5.84-4.1-11.75-6.62-17.44-.91-9.26.41-18.52.73-27.76.19-2.71-1.01-5.19-2.41-7.4-3.27-5.16-6.14-10.55-9.35-15.73-3.84-6.03-5.7-12.99-8.4-19.55-2.02-4.8-2.96-10.37-6.93-14.07-5.12-4.89-10.04-9.97-15.35-14.64-6.9-6.87-12.69-14.76-19.58-21.63-4.84,4.84-8.88,10.4-13.58,15.37-6.39,6.84-10.36,15.42-15.99,22.82-3.05,1.59-5.94,3.48-9.1,4.84.25-2.84.46-5.68.5-8.52-7.3-1.44-14.58.64-21.83,1.31-7.98.8-15.86,2.48-23.85,3.12-8.39.44-16.65,2.12-24.96,3.19-18.73,2.41-37.42,5.1-56.1,7.89-6.52,1.11-13.19.96-19.68,2.28-13.24,2.02-26.53,4-39.47,7.56-8.62,2.47-17.59,3.31-26.2,5.79-13.57,3.04-27.04,6.5-40.63,9.42-2.99.5-4.58,3.42-7.14,4.74-3.52,1.71-7.36,2.6-10.94,4.18-2.98,1.17-5.95,3.11-9.28,2.32,5.94-5.16,14.29-5.8,21.1-9.45-.06-3.21,0-6.42.21-9.63,3.98-1.6,8.15-2.64,12.2-4.06,3.36-1.04,4.89-4.5,6.85-7.11,4.44-6.9,9.95-13.15,13.48-20.61,1.37-2.73,2.54-5.55,3.75-8.35,6.23-11.88,13.08-23.44,20.32-34.74.86-.34,1.94-.42,2.5-1.28,3.79-4.75,6.33-10.31,9.59-15.4,2.67-4.29,7.31-6.69,10.63-10.39,2.33-2.29,4.2-5.27,7.27-6.63,11.05-2.9,22.56-3.23,33.77-5.29,14.12-2.68,28.33-4.89,42.45-7.63,12.91-2.59,26.1-3.74,38.87-7.08,12.83-2.68,25.38-6.6,38.33-8.69,10.55-2.27,20.89-5.44,31.48-7.51Z"/>
    <path class="cls-2" d="M326.25,336.94c4.12,1.29,8.21,2.71,12.14,4.5,3.07,1.26,4.16,4.69,5.79,7.3,4.28,7.48,8.27,15.14,12.82,22.47,1.53-.1,3.06-.19,4.61-.25.75,1.32,1.52,2.64,2.31,3.95,2.68,8.25,6.29,16.19,9.95,24.05,5.12,8.12,10.44,16.15,16,23.98,7.92,8.4,17.15,15.5,25.08,23.92,5.52,6.2,10.81,12.62,16.11,19.02-11.05,5.6-20.48,13.83-31.49,19.49-4.23,2.1-8.04,5.13-12.59,6.53-4.03.48-8.06-.42-12.07-.7-2.64-.36-5.43-.27-7.91-1.35-4.64-2.83-7.83-7.47-12.35-10.44-3.95-.29-7.82.94-11.76,1.04-5.78.16-11.57.18-17.35-.12-5.97-11.46-10.95-23.45-17.32-34.71-9.83-16.88-19.88-33.64-29.53-50.62.93-3.31,2.05-6.56,3.43-9.71,1.98.62,3.96,1.23,5.94,1.87,7.78-6.6,14.39-14.46,21.95-21.32,3.45-2.82,4.41-7.32,5.67-11.37,1.89-6.69,6.71-11.92,10.57-17.53Z"/>
    <path class="cls-9" d="M900.86,396.6c7.25-.67,14.53-2.75,21.83-1.31-.04,2.84-.25,5.68-.5,8.52,3.16-1.36,6.05-3.25,9.1-4.84-1.34,2.3-2.65,4.7-4.74,6.42-4.87,4.11-9.69,8.29-14.6,12.36-5.59,3.95-2.33,11.8-4.93,17.2-4.25,5.63-9.44,10.49-14.09,15.79-3.45,5.95-2.95,13.44-6.68,19.31-4.81,7.29-9.8,14.46-14.83,21.59-5.77,7-8.98,15.57-12.94,23.62-5.35,10.97-9.5,22.46-14.45,33.6-1.57,3.58-5.07,5.64-7.92,8.09-11.66,9.75-23.6,19.16-35.65,28.4-2.34,2.32-4.88-.54-6.68-2.05,1.46-1.12,4.82-1.89,3.24-4.29-2.08-.44-4.18-.66-6.28-.91-.99-1.26-1.96-2.54-2.93-3.79-1.77.78-3.53,1.57-5.17,2.56-1.68-1.93-3.55-3.68-5.72-5.03.38-.91.77-1.81,1.17-2.71-1.99-1.07-3.96-2.16-5.85-3.38,1.57-2.85,4.8-3.85,7.53-5.24-.99-.88-1.98-1.76-2.95-2.62,1.24-1.9,2.29-3.94,2.58-6.21-4.07,1.24-7.57,3.78-11.55,5.2-1.75.49-2.8-1.26-4-2.13,1.09-1.4,2.22-2.76,3.35-4.12-.96-.68-1.91-1.36-2.87-2.01.37-5.38,1.81-10.63,4.73-15.2-4.16.94-8.43.38-12.62.92,1.44-2.92,3.08-5.74,4.5-8.67-2.63.02-4.84,1.45-6.89,2.92-.12-4.49-.14-9.01-1.03-13.43-3.37,2.54-2.63,7.11-3.26,10.79-2.16-1.65-4.34-3.32-6.91-4.24,1.53,6.84,8.22,11.8,7.3,19.35-1.58-2.19-2.84-4.7-5-6.39-3.06-2.22-6.91-2.83-10.57-3.19,1.05,1.45,2.19,2.86,3.35,4.25-1.7,1.4-3.89,2.58-4.34,4.95,2.08.26,4.18.49,6.29.69-1.1,1.79-2.28,3.54-3.12,5.47,2.16,3.9,8.81,2.19,10.7,6.59,1.15,1.88.1,3.94-.62,5.76-5.76-1.17-6.89-7.98-10.83-11.5-1.67.41-3.33.85-4.97,1.29-1.85-1.49-3.71-3.17-6.18-3.37.57,2.03,1.35,4.01,2.16,5.97-1.44.63-3.87.18-4.22,2.15,1.36,2,2.95,3.84,4.36,5.82-1.81.82-3.61,1.62-5.39,2.48,2.76,3.88,7.71,4.56,11.73,6.52-2.7,1.1-5.47,2.02-8.18,3.06,2,1.46,4.56,2.42,5.8,4.72-4.6.85-8.5,3.45-12.32,6-3.73-3.82-4.38-9.33-6.18-14.12-2.43-6.5-3.63-13.58-7.59-19.4-4.4-6.67-9.25-13.09-12.75-20.3-2.68-5-4.65-10.44-8.22-14.92-3.43,1.19-6.79,2.58-10.11,4.04-2.22-4.1-3.43-8.63-5.3-12.88-2.56,3.38-3.2,7.74-5.49,11.26-11.51,4.77-23.57,8.23-35.15,12.86-4.59,1.83-8.32,5.5-13.23,6.53-2.85.64-5.82,1.17-8.22,2.95-4.56,3.16-9.17,6.25-13.91,9.14-6.07,3.62-9.26,10.2-13.25,15.75-2.44,3.29-4.07,7.42-7.52,9.81-4.13-.43-8.01-2.06-12.02-3.05-3.16-.95-6.7-1.45-9.18-3.82-6.7-6.34-12.3-13.72-18.95-20.11-4.55-4.19-3.28-10.95-4.42-16.46-.87-6.22-1.24-12.5-2.3-18.69-.64-3.76-3.41-6.56-5.51-9.56-5.55-7.77-11.42-15.31-16.97-23.08-4.99-6.96-8.43-14.83-12.7-22.21-1.91-3.58-5.46-5.72-8.61-8.05,5.4-5.84,8.7-13.2,13.38-19.58,2.42-2.98,2.37-6.93,2.52-10.57,3.29-1.32,6.67-2.39,10.11-3.23.35-.07,1.04-.22,1.39-.3,7.49,9.69,16.77,17.79,24.88,26.94,2.66,3.25,4.14,7.24,6.04,10.94,4.49,9.38,9.51,18.48,14.59,27.55,1,2.22,3.54,2.69,5.65,3.33,9,2.9,18.31-.42,27.42-.92,5.05-.98,11.34.25,15.1-4.05,6.74-6.98,14.02-13.39,20.87-20.26,1.84,1.46,3.65,2.95,5.44,4.47,4.63-5.12,9.13-10.36,14-15.25,3.33.79,6.3-1.15,9.28-2.32,3.58-1.58,7.42-2.47,10.94-4.18,2.56-1.32,4.15-4.24,7.14-4.74,13.59-2.92,27.06-6.38,40.63-9.42,8.61-2.48,17.58-3.32,26.2-5.79,12.94-3.56,26.23-5.54,39.47-7.56,6.49-1.32,13.16-1.17,19.68-2.28,18.68-2.79,37.37-5.48,56.1-7.89,8.31-1.07,16.57-2.75,24.96-3.19,7.99-.64,15.87-2.32,23.85-3.12Z"/>
  </g>
  <path class="cls-5" d="M1331.38,441.06c6.59,3.67,12.45,8.52,18.5,13.01-.11,5.83-.42,11.7-1.89,17.36-6.34-9.4-13.09-18.5-20-27.48,1.12-.97,2.25-1.93,3.39-2.89Z"/>
  <path class="cls-1" d="M1770.96,470.72c7.76-3.87,16.64-7.88,25.43-5.11-1.41.65-2.74,1.41-4.03,2.19,3.15,4.87,9.08,5.92,14.2,7.56.05.31.16.95.22,1.27-3.33,1.35-6.85,2.1-10.2,3.34,2.18,1.7,4.57,3.11,7.06,4.35.05.55.15,1.65.2,2.19-2.88.58-5.81,1.19-8.27,2.88-5.54,3.56-11.15,7.01-16.57,10.75,2.62,2.35,5.78,3.95,9.15,4.96-4.94,2.9-11.76,3.98-14.46,9.57-4.45,1.06-8.86,2.34-13.01,4.25,3.04,2.15,6.44,3.7,9.58,5.71-2.46,5.22-4.61,10.58-6.22,16.12-2.13,1.26-4.65,1.17-7,1.39.73.66,1.47,1.33,2.24,2.02-5.78,6.53-12.6,12.03-18.78,18.15-1.87,1.82-2.54,4.42-3.26,6.84-1.87,6.71-4.03,13.32-5.91,20.03-1.86,7.51-6.97,13.57-11.35,19.75-2.48-1.22-4.86-2.59-7.27-3.9-3.42-2.4-7.4.15-10.94.86-3.22-1.5-6.83-3.03-8.24-6.56,2.37.67,4.75,1.3,7.21,1.71.9-1.26,1.83-2.52,2.75-3.78,1.71.19,3.43.37,5.17.54-.01-1.42-.06-2.83.12-4.23,2.66-.82,5.6-.7,8.15-1.95.09-.66.28-1.96.37-2.61-2.31-.41-4.6-.84-6.87-1.3-.91-1.25-1.8-2.48-2.69-3.7-2.75,1.37-5.24,3.2-7.96,4.6-3.82-.31-7.81-1.48-11.37.61-4.85,2.69-10.73,2.37-15.47-.38.33-.94.68-1.87,1.05-2.8,1.58.64,3.08,1.88,4.89,1.83,2.52-.95,5.83-2.28,5.86-5.46,4.46.15,9.15-.03,13.32-1.77-.11-3.06-4.48-3.18-5.86-5.7,2.34-1.87,4.96-3.34,7.6-4.78-1.14-.81-2.25-1.61-3.35-2.41,1.51-1.76,2.77-3.74,2.93-6.12-4.11,1.09-7.55,3.73-11.52,5.13-1.72.6-2.75-1.12-3.89-1.99,1.03-1.52,2.1-3.04,3.14-4.57-.94-.56-1.85-1.1-2.75-1.64.24-5.38,1.78-10.58,4.65-15.14-4.17.57-8.38.42-12.54.85,1.41-2.91,3.01-5.73,4.44-8.64-2.43.36-4.7,1.25-6.86,2.35-.1-4.32-.21-8.65-1.02-12.9-3.45,2.49-2.69,7.05-3.19,10.75-2.18-1.69-4.43-3.33-7.05-4.23,1.66,6.79,8.21,11.82,7.33,19.36-1.71-2.36-3.05-5.13-5.53-6.76-3.05-1.89-6.65-2.5-10.11-3.09,1.05,1.56,2.21,3.07,3.41,4.54-1.51,1.27-3.26,2.37-4.29,4.09,1.06,1.96,4.26.93,6.24,1.48-1.13,1.93-2.26,3.87-3.34,5.82,2.65,2.21,6.12,2.71,9.16,4.15,2.76,1.72,2.63,5.41,1.17,7.96-5.55-1.13-6.61-7.59-10.33-10.95-1.78-.85-3.73.34-5.5.63-1.85-1.45-3.68-3.14-6.12-3.35.59,2.04,1.35,4.03,2.12,6.02-1.55.45-3.09.91-4.59,1.4,1.53,2.18,3.15,4.32,4.69,6.52-1.91.81-3.76,1.72-5.34,3.05,3.16,2.97,7.36,4.18,11.3,5.74-2.33,1.32-4.87,2.2-7.44,2.86-8.77,2.29-15.25,9.25-23.33,13-1.68.53-3.47.36-5.16.37-8.06-.38-16.08.89-24.13.47-5.85-.33-11.78.42-17.57-.53-2.8-2.07-4.89-4.9-7.25-7.39.18-.99.39-1.97.61-2.94-1.67-.31-3.31-.62-4.96-.82-.71-1.45-1.41-2.89-2.09-4.33,2.97-1.25,5.32-3.64,8.47-4.56-1.42-1.94-3.87-2.82-6.14-3.14-3.08,1.12-6.28,1.63-9.54,1.73-.83-.77-1.64-1.52-2.44-2.26,2.37-1.03,4.88-1.68,7.36-2.47-1.06-.91-2.07-1.79-3.09-2.67,2.76-1.68,3.68-4.58,3.63-7.67-2.49,1.11-5,2.17-7.58,2.99-.41-4.34-.39-8.79,1.44-12.83-2.01-.07-4.01-.15-5.99-.23.59-1.42,1.22-2.82,1.84-4.23-1.24.28-2.46.57-3.66.88-.1-2.3-.22-4.6-.4-6.88-1.93,1.14-1.81,3.55-2.31,5.46-1.18-.55-2.32-1.09-3.47-1.61-.85.24-1.68.48-2.49.73,2.55-2.43,5.51-4.38,8.33-6.49,2.18,3.79,6.02,8.99,11.05,7,17.67-5.62,36.31-7.01,54.14-11.99,6.27-1.97,12.47-4.19,18.73-6.21,12.71-4.45,25.83-7.7,38.35-12.71,6.68-2.99,13.85-4.64,20.66-7.3,7.46-2.85,14.78-6.07,22.38-8.56,11-3.57,21.22-9.12,32.11-12.99,9.5-3.55,18.36-8.55,27.84-12.17Z"/>
  <path class="cls-1" d="M130.56,469.51c.4,3.9-2.56,7.12-2.26,11,4.44.33,8.67-2.42,13.07-1.1,12.75,3.38,24.7,9.06,36.77,14.26,12.04,4.39,23.53,10.17,35.62,14.45,7.29,2.76,14.65,5.47,21.14,9.88,5.22-3.84,8.74-9.59,14.39-12.88,3.44-1.96,6.81-4.46,10.9-4.75-1.74,1.14-3.45,2.33-5.22,3.43-8.11,4.62-13.94,12.08-20.91,18.13-5.26,4.31-7.12,11.05-10.19,16.84-2.58,4.93-4.33,10.52-8.58,14.35-6.85,6.41-13.22,13.32-20.61,19.13-4.68,2.63-8.69,6.22-13.11,9.23-3.83,2.6-8.62,2.81-12.99,3.91-3.73.68-7.39,2.1-11.21,2.05-1.37-.74-2.57-1.73-3.81-2.65,7.48-3.95,15.71-7.04,21.54-13.43-3.61-.08-7.08-1.05-10.49-2.14-3.04-1.25-5.89.88-8.7,1.76.41-2.86.96-5.72.69-8.61-3.53-.53-6.99.36-10.41,1.13-.05-1.13-.09-2.25-.12-3.36,6.5-2.14,14.07-5.15,16.33-12.3-.68-1.47-2.64-1.26-3.93-1.8-3.75-1.05-7.63-1.6-11.53-1.27-2.81.51-4.88-1.66-7.01-3.09-5.75,1.29-13.49,3.33-17.4-2.6,5.21,1.37,11.21,4.9,16.18.94-.64-1.51-1.27-3.01-1.87-4.51,2.55.68,5.04,1.91,7.72,1.89,1.98-.93,2.72-3.22,3.87-4.93,1.85.49,3.7.96,5.57,1.42.77-1.79.67-3.73.57-5.62,3.55-.48,7.22-.75,10.45-2.48-.03-.73-.09-2.18-.11-2.91-2.81-.41-5.61-.85-8.4-1.36-.9-1.53-1.8-3.05-2.72-4.55-3.65,1.32-6.61,3.88-9.99,5.68-2.97.09-5.8-1.54-8.78-1.02-4.23.77-7.85,3.42-12.1,4.06-3.69.14-7.22-1.22-10.74-2.12.01-1.29.02-2.57.05-3.84,2.11.3,4.01,1.27,5.88,2.25,2.67-1.21,5.22-2.67,7.78-4.08-.19-.98-.37-1.95-.56-2.92,5.18.57,10.27-.68,15.37-1.32.39-.51,1.16-1.53,1.54-2.05-2.44-1.72-5.05-3.18-7.5-4.88,2.13-3.31,6.08-4.47,9.24-6.5-1.34-.89-2.7-1.75-4.05-2.61,1.73-2.32,3.66-4.76,3.4-7.85-4.81,1.67-8.99,4.7-13.72,6.55-2.26.78-3.76-1.58-4.69-3.25,1.49-1.6,2.93-3.24,4.26-4.97-1.5-.51-3.01-1-4.52-1.48,1.82-5.76,1.72-12.28,5.9-17.11Z"/>
  <path class="cls-4" d="M1022.15,481.56c2.52,5.69,4.48,11.6,6.62,17.44,3.43,10.27,9.8,19.15,15.34,28.34-5.53,6.72-11.35,13.24-15.93,20.67-3.26,5.46-8.39,10.11-9.52,16.59-.48,2.16,1.57,3.75,1.84,5.8-8.48,5.18-13.18,14.25-18.95,22-3.59,4.33-3,10.39-5.87,15.06-2.32,3.86-4.83,7.61-7.12,11.49-1.81,2.98-3.68,5.92-5.69,8.76-1.65-.26-3.29-.52-4.92-.76,1.33.72,2.67,1.45,4.03,2.19-6.54,5.78-15.68,8.59-20.5,16.21-3.14,4.52-6.3,9.01-9.48,13.49-3.69,5.24-8.75,9.25-13.01,13.97-2.46,2.51-4.65,5.43-7.78,7.13-3.15,1.44-6.55,2.22-9.82,3.29-.52,3.91-.9,7.85-1.47,11.76-2.88-1.38-5.37-3.42-8.18-4.89-1.8-.36-3.45.9-5.05,1.52-6.87,3.59-13.87,6.92-20.74,10.5-3.12-2.71-5.92-5.75-8.97-8.53-2.78.96-5.56,1.94-8.34,2.89,1.86-2.36,3.82-4.62,5.74-6.93-4.29-3.22-9.65.43-14.12-1.93-3.38-1.59-6.94-2.91-10.03-5.03-2.44-2.82-3.62-6.46-5.41-9.68-4.74-8.96-8.95-18.2-13.95-27.01-6.6-.52-13.07.94-19.6,1.46-1.16-1.41-2.32-2.81-3.48-4.2-1.6.21-3.19.42-4.78.55-8.57-2.23-17.88.97-26.07-3.05,5.94-11.48,20.77-12.17,29-21.28-3.25-.16-6.36-1.08-9.47-1.93-2.32-.71-4.47.83-6.6,1.49.36-2.39.82-4.82.28-7.22-2.99.18-5.96.54-8.95.75.24-1.34.65-2.82,2.21-3.09,4.99-1.7,10.8-4.55,11.81-10.31-4.08-1.07-8.23-2.17-12.49-1.8-3.13.61-5.18-3.18-8.32-2.1-4.34.9-9.41,1.42-12.53-2.43,4.35.73,8.9,3.55,13.18,1.03-.31-1.39-.63-2.77-.93-4.14,2.16.47,4.37,1.72,6.63,1.23,1.07-1.03,1.92-2.25,2.81-3.44,1.69.13,3.38.26,5.09.38.16-1.57.33-3.14.53-4.69,1.52.04,3.06.1,4.59.19,1.8,1.51,4.34,4.37,6.68,2.05,12.05-9.24,23.99-18.65,35.65-28.4,2.85-2.45,6.35-4.51,7.92-8.09,4.95-11.14,9.1-22.63,14.45-33.6,3.96-8.05,7.17-16.62,12.94-23.62,1.47,0,2.95.04,4.43.13-1.11,4.56-5.09,9.18-2.83,13.97,1.47,3.41,5.87,3.23,8.99,3.15,16.75-1.26,32.89-6.24,49.24-9.72,6.56-1.28,13.01-3.32,19.75-3.35,17.7-1.37,35.27-4.29,53.03-5.06,3.83-.2,7.78-.82,11.14-2.79,2.65-1.75,4.71-4.22,6.98-6.41Z"/>
  <path class="cls-10" d="M314.74,484.57c.4-.11,1.22-.34,1.63-.45,3.21,6.28,3.9,13.51,6.35,20.1,5.7,1.99,11.72,2.71,17.49,4.4,14.72,4.28,29.19,9.46,44.15,12.88,9.84,3.31,19.85,6.1,29.75,9.22,15.49,3.59,30.39,9.32,45.81,13.15,5.72.97,10.8,3.83,16.2,5.79,9.96,3.35,20.58,1.81,30.88,2.21,4.7-.06,10.42.89,13.82-3.2,5.4-5.54,1.86-13.88,4.04-20.58.81.5,1.62,1.01,2.45,1.52,1.14,5.51-.13,12.27,4.42,16.46,6.65,6.39,12.25,13.77,18.95,20.11,2.48,2.37,6.02,2.87,9.18,3.82,4.01.99,7.89,2.62,12.02,3.05,3.45-2.39,5.08-6.52,7.52-9.81,3.99-5.55,7.18-12.13,13.25-15.75,4.74-2.89,9.35-5.98,13.91-9.14,2.4-1.78,5.37-2.31,8.22-2.95,4.91-1.03,8.64-4.7,13.23-6.53,11.58-4.63,23.64-8.09,35.15-12.86,2.29-3.52,2.93-7.88,5.49-11.26,1.87,4.25,3.08,8.78,5.3,12.88,3.32-1.46,6.68-2.85,10.11-4.04,3.57,4.48,5.54,9.92,8.22,14.92,3.5,7.21,8.35,13.63,12.75,20.3,3.96,5.82,5.16,12.9,7.59,19.4,1.8,4.79,2.45,10.3,6.18,14.12-2.4,1.52-4.78,3.08-7.1,4.74,2.93,3.48,7.5,3.78,11.69,3.16.64,1.09,1.3,2.19,1.98,3.28.52.17,1.57.51,2.09.67.13.43.4,1.28.53,1.7-1.62-.59-3.24-1.12-4.85-1.66-2.83,1.75-5.36,4.07-8.5,5.27-2.58.47-5.13-.53-7.68-.77-1.84-5.86-3.43-11.79-5.14-17.68-1.65-5.81-4.98-10.91-7.68-16.25-5.14-10.02-10.95-19.68-16.6-29.4-1.33-3.11-4.95-2.88-7.75-3.32-5.86-.6-11.63-1.93-17.52-2.16-1.74,3-2.97,6.32-5.1,9.08-3.19,2.46-7.54,2.78-10.73,5.24-2.57,3.67-3.97,8.01-6.07,11.96-4.68,10.62-12.01,20.66-12.36,32.66.26,3.01-2.11,5.03-4.04,6.93-7.01,6.67-13.59,13.76-20.32,20.7-1.68,1.64-3.32,3.53-5.64,4.25-2.39.98-5.16,1.2-7.25,2.78-1.74,3.22-2.04,7.02-3.89,10.17-2.11,2.16-4.86,3.54-7.15,5.5-.08-1.17-.15-2.33-.2-3.49-1.99.77-3.96,1.53-5.96,2.24.19-3.38.54-6.75,1.11-10.08-1.48-.03-2.96-.05-4.42-.07.31-1.12.64-2.22.96-3.32-.55-.02-1.66-.05-2.22-.06-.17-1.54-.34-3.08-.53-4.6-1.44.63-1.38,2.35-1.77,3.64-.93-.12-1.85-.23-2.76-.33,1.08,2.21,2.19,4.42,3.29,6.63-2.15-1.32-4.4-2.48-6.79-3.28-.01,2.06.3,4.11,1.47,5.86-.76.69-1.53,1.38-2.28,2.08-1.1-.43-2.18-.86-3.26-1.28-.62,2.67-.07,5.45-.82,8.1-7.31-.71-14.56-1.89-21.82-2.99-3.2-.53-6.53-.97-9.36-2.67-6.89-3.91-11.6-10.45-17.2-15.86-3.93-3.74-7.2-8.21-11.58-11.43-5-1.24-10.29-.13-15.26-1.49-2.91-2.19-5.18-5.14-8.33-7.04-3.85,3.16-7.21,6.86-10.84,10.27-3.95,3.79-8.14,7.35-11.83,11.42-1.51,1.42-3.09,2.77-4.65,4.14-6.49-1.32-12.72-3.61-19.12-5.22-7.1-1.7-12.75-6.54-19-10.02-3.63-2.27-7.92-3.99-10.29-7.75-2.79-4.24-5.55-8.5-8.34-12.73-5.93-10.18-17.23-15.4-24.25-24.66-4.44-5.91-9.62-11.27-13.37-17.67-4.47-7.52-8.97-15.02-13.54-22.47-3.56-5.7-4.24-12.53-6.08-18.86-2.03-7.19-3.28-14.62-5.94-21.62Z"/>
</svg>