<?xml version="1.0" encoding="UTF-8"?>
<svg id="Layer_1" data-name="Layer 1" xmlns="http://www.w3.org/2000/svg" xmlns:xlink="http://www.w3.org/1999/xlink" viewBox="0 0 1055.86 868.72">
  <defs>
    <style>
      .cls-1 {
        fill: #3a6f7d;
      }

      .cls-2 {
        fill: #fcd2aa;
      }

      .cls-3 {
        fill: #fde4c6;
      }

      .cls-4 {
        fill: #61948e;
      }

      .cls-5 {
        fill: url(#linear-gradient);
      }
    </style>
    <linearGradient id="linear-gradient" x1="446.54" y1="542.15" x2="73.38" y2="858.27" gradientUnits="userSpaceOnUse">
      <stop offset="0" stop-color="#4b8f97"/>
      <stop offset="1" stop-color="#68978f"/>
    </linearGradient>
  </defs>
  <path class="cls-1" d="M768.2,586.07c16.99,10.08,32.15,16.62,46.25,31.58,41.25,43.76,78.8,104.37,120.7,151.03,9.82,10.93,21.14,24.75,31.59,34.33,10.94,10.03,21.32,16.16,32.71,24.71-2.18,3.43-.33,4.74,1.69,6.87,14.04,14.78,37.32,27.06,52.45,41.19-1.21,6.81-.21,21.99-1.13,28.15-.82,5.51-4.86,15.08-5.64,19.22-.94,4.98,3.07,23.61-6.77,17.16-.27-2.53-2.1-18.36-3.95-17.85-1.44,4.41-1.95,9.14-2.82,13.73l-6.2-17.85-5.08,11.67-5.08-18.54-7.9,27.46c-4.15,1.24-2.71-5.93-4.51-6.87-3.12-1.62-3.47,4.96-6.2.69-5.56-8.68.53-29.83-11.84-2.06l-4.51-16.48-9.02,31.58-8.46-35.01c-7.28,4.68-5.25,21.81-10.72,29.52l-6.77-27.46-14.66,48.06-4.51-12.36c-1.41,3.3-3.01,20.67-6.77,19.22l-7.9-24.71-5.08,25.4c-6.51,5.02-5.38-11.6-10.15,3.43-4.98-1.83-9.43-5.92-14.66-6.87-8.39-1.52-3.32,4.9-8.46,4.12-6.55-1-5.84-14.95-6.2-15.79-1.54-3.55-2.95-.25-3.38-.69-5.26-5.37-16.63-11.78-24.25-15.1-.46-.2-3.06,4.01-9.02,1.37-8.98-3.98-19.94-10.54-30.46-15.1-2.19-.95-1.36-5.11-2.26-5.49-2.05-.87-1.67,2.99-2.26,2.75-6.2-2.52-17.29-9.68-22.56-10.98-19.03-4.72-42.6-1.88-62.04-6.87l58.09-41.88-102.09-56.98,25.38-43.25-36.1-24.03c-5.86-31.11-13.1-61.76-21.43-91.99-2.62-9.51-2.14-24.73-10.15-28.83-.3-.15-.77.13-1.13,0-31.58-11.31-35.41,13.8-58.09,30.21-27.99,20.25-76.63,40.91-108.29,57.67-.8.42-6.21,3.58-6.2,0,19.27-20.22,66.7-71,78.96-95.43,8.15-16.24,10.91-48.34,17.48-66.59l-93.63,116.71-76.14,26.77c57.71-68.58,89.23-164.18,136.49-243.03l-76.14,95.43c-3.34,0-.04-4.81.56-6.18,25.39-57.4,66.86-128.57,100.4-179.87,12.15-18.58,34.58-41.99,43.99-58.35-11.65,34.71-35.23,71.77-45.12,106.41-10.25,35.88-12.41,79.45-24.82,115.33,4.85-16.67,75.31-76.85,76.71-83.75.23-1.14-2.54-17.32-2.26-23.34,2.27-48.27,9.39-96.22,6.77-144.85.9.06,1.15-.77,1.69-1.37l62.61,70.71,90.24,244.4c3.77,4.88,13.33,6.12,18.05,8.92Z"/>
  <path class="cls-3" d="M584.33,293.62c-9.41,16.36-31.85,39.77-43.99,58.35-33.54,51.3-75,122.46-100.4,179.87-.61,1.37-3.91,6.18-.56,6.18l76.14-95.43c-47.26,78.85-78.78,174.45-136.49,243.03l76.14-26.77,93.63-116.71c-6.57,18.25-9.33,50.35-17.48,66.59-12.27,24.43-59.69,75.2-78.96,95.43-16.48,17.29-33.32,34.3-50.76,50.12l51.89-83.75c-.42-.99-2.02-.9-2.82-.69-3,.79-46.23,34.91-51.89,39.82-17.18,14.89-34.17,35.35-51.89,50.8-49.01,42.75-99.61,83.07-148.34,126.32-.12-1.75-2.28-2.26,0-5.49,32.32-37.96,73.63-73.88,107.73-111.22,9.28-10.16,58.33-61.61,61.48-69.34,8.22-20.18,14.17-69.26,20.3-93.37,4.37-17.15,13.93-35.17,18.05-53.55,2.18-9.74,10.14-60.75,9.02-67.96l109.42-155.84,68.81-66.59c-1.76,9.08-4.72,22.73-9.02,30.21Z"/>
  <path class="cls-3" d="M389.18,452.89c-3.42,14.34-7.22,28.31-12.41,41.88-11.76,30.73-43.01,101.54-61.48,124.26-12.31,15.15-43.76,37.93-52.45,52.86-6.96,11.94-9.66,38.09-15.79,49.43-10.07,18.63-85.97,90.55-105.47,110.53-6.79,6.96-51.37,47.6-52.45,51.49-.44,1.58.06,6.55,0,8.92l-3.38,6.18-6.2-29.52c-2.86,13.46-3.38,26.25-9.59,37.07-.8-4.32-.49-7.23-1.13-10.3-1.31-6.31-3.73-13.13-5.64-19.22-.32,10.99-6.2,22.97-7.9,32.95-.37,2.19,2.32,3.61,2.26,4.12-.18,1.42-3.34,5.15-3.38,5.49-.05.39,2.3,2.35,2.26,2.75-.18,1.52-3.38,2.25-3.38,2.75,0,.77,4.99,2.22-1.13,11.67-.8-2.44-4.25-11.92-4.51-13.04-.61-2.63,2.43-1.94,2.26-2.75-3.05-14.16-7.53-28.27-9.59-43.25-4.44,11.11-1.45,21.4-8.46,30.89,3.16,7.85-1.18,12.82-4.51,18.54-1.6,2.74-3.25,3.88-3.38,4.12-.07.12-.85-3.41-2.26-.69-.2.38-1.11,7.88-1.13,8.92-1.83.43-3.03-.31-4.51-1.37-2.53-1.82-3.89-4.95-6.77-6.18l7.33,2.06c1.03-13.1-2.36-19-11.84-25.4l4.51-1.37-6.2-8.92,8.46,3.43c.05-4.51-7.66-10.82-7.9-12.36-.35-2.31,4.68.36,3.38-4.12-.21-.73-5.83-11.2-6.77-13.04,7.99.97,19.35-10.55,26.51-16.48,39.1-32.36,77.56-69.91,115.63-104.35,19.15-17.33,46.52-35.5,63.73-53.55,28.76-30.17,63.64-88.07,90.81-124.26,30.37-40.47,61.16-80.86,92.5-120.14Z"/>
  <path class="cls-2" d="M595.61,263.41c2.62,48.63-4.5,96.59-6.77,144.85-.28,6.02,2.49,22.2,2.26,23.34-1.4,6.9-71.86,67.08-76.71,83.75,12.41-35.88,14.57-79.46,24.82-115.33,9.89-34.64,33.48-71.7,45.12-106.41,4.3-7.48,7.26-21.12,9.02-30.21,2.45-2.31,2.14,0,2.26,0Z"/>
  <path class="cls-4" d="M624.94,616.28l-259.45,238.22,133.67-107.78-10.72,35.01-28.77,39.13,95.88-79.64c-17.11,17.48-30.81,39.6-47.38,57.67-31.07,33.88-67.43,61.76-98.14,96.11-.24.27-5.71,5.38-2.26,5.49,15.34-15.52,32.58-28.07,48.51-42.56,31.78-28.92,69.75-64.33,99.27-96.11,29.19-31.43,61.18-69.61,77.84-112.59l1.69,58.35-137.62,157.9,115.63-100.92-26.51,44.62,2.82.69,68.25-72.77,36.1,24.03-25.38,43.25,102.09,56.98-58.09,41.88c19.44,4.98,43.02,2.15,62.04,6.87,5.27,1.31,16.36,8.47,22.56,10.98.59.24.2-3.61,2.26-2.75.9.38.07,4.54,2.26,5.49,10.52,4.56,21.48,11.13,30.46,15.1,5.96,2.64,8.56-1.57,9.02-1.37,7.63,3.32,18.99,9.74,24.25,15.1l-5.08,30.21-5.64-17.85-6.77,17.85-6.77-21.97c-1.86,0-7.64,39.27-11.84,26.77l-3.95,7.55-2.26-4.12c-6.53,13.88-3.87,2.4-8.46-4.81l-6.2,29.52-5.64-16.48c-9.23,13.33-5.28,1.81-7.9,0-2.64-1.83-4.03,5.3-5.64,5.49-2.4.29-.94-3.87-4.51-2.75-1.57.5-4.71,12.08-6.77,10.98l-5.64-16.48c-4.72,17.67-6.44.6-9.02,1.37l-5.64,15.1-5.64-8.24-5.64,16.48-5.64-10.98-6.77,8.24c-6.28-30.07-8.72-3.58-10.15-2.75-4.36,2.53-7.41-6.58-7.9-6.87-.57-.33-11.83,2.43-12.41,2.75-2.34,1.27-4.22,18.72-6.77,19.22l-6.77-9.61-5.64,12.36c-6.93-28.84-8.14,1.68-11.28,0-1.47-2.37-1.41-14.4-5.64-12.36l-5.64,13.73c-2.59-4.59-1.12-11.46-5.64-13.73l-9.02,8.24c.8-12.11-8.78-3.57-13.54-2.75-3.35.58-19.91,4.61-21.43,4.12-3.4-1.09-2.7-5.15-3.38-5.49-1.44-.71-2.74,1.7-5.64,0-.77-.45-1.55-5.2-2.26-5.49-1.31-.55-4.35,3.93-5.64,4.12-4.4.65-3.79-5.1-11.28,4.12l-3.38-10.98c-7.43,7.89-7.56,2.3-10.15,2.75-1.65.29-9.98,4.74-12.41,4.12-2.56-.65-4.02-6.32-4.51-6.87-.86-.95-4.34-1.11-5.08-2.06-2.54-3.28,2.85-13.85-8.46-.69l-9.02-17.85c-5.57-2.78-7.31,19.72-9.02,19.22-1.43-12.06-6.39-9.49-10.15-16.48-5.91,8.91-6.34,2.48-6.77,2.75-.67.42-1.89,6.67-5.64,9.61-.15.12-1.07-2.19-3.38-1.37-.55.2-.81,4.65-3.38,4.12s.11-7.9-6.77,0c-5.53-21.3-5.29,5.47-10.15-8.24-7.77,14.37-10.24-2.97-15.79-10.98l-5.64,13.73c-10.23-.8-5.94-15.75-11.28-24.71l-5.64,16.48-6.77-20.6-5.64,20.6-3.38-9.61-5.08,7.55-5.08-17.16-6.77,24.71-4.51-17.85c-9.69,19.54-8.5-20.35-11.84.69-3.57-7.04-3.05-1.93-5.08,2.06-8.68-38.6-2.96,22.27-14.66-17.85l-6.77,13.73c-2.52-6.95-3.39-13.66-7.9-19.22-1.17.21-3.05,16.17-5.08,2.06l-6.2,13.04-6.77-24.71-4.51,15.1-4.51-16.48-5.64,16.48-7.33-18.54-3.95,11.67-4.51-13.73-4.51,16.48-8.46-35.01-6.2,14.42c.55-9.46-3.08-18.41-5.64-27.46l-7.9,24.71c-2.61-10.46-4.44-20.67-9.02-30.21l-9.02,37.07c-2.13.18-6.53-38.58-10.15-42.56-1.49-.19-7.59,28.07-8.46,31.58-3.74-14.29-4.4-29.97-9.59-43.94-1.18.2-4.34,23.14-5.08,25.4-2.87,8.82-6.05-23.08-8.46-24.03-1.56,10.34-5.62,20.82-5.08,29.52-8.12,5.64-2.19-4.92-2.26-5.49-.07-.63-2.16-2.08-2.26-2.75-1.34-9.55-3.81-23.11-4.51-33.64,48.73-43.25,99.33-83.57,148.34-126.32,17.72-15.46,34.71-35.91,51.89-50.8,5.66-4.91,48.89-39.03,51.89-39.82.8-.21,2.4-.3,2.82.69l-51.89,83.75c17.45-15.82,34.29-32.83,50.76-50.12,0,3.58,5.4.42,6.2,0,31.67-16.76,80.3-37.42,108.29-57.67,22.68-16.41,26.52-41.51,58.09-30.21Z"/>
  <path class="cls-3" d="M636.22,645.11c8.33,30.24,15.57,60.88,21.43,91.99l-68.25,72.77-2.82-.69,26.51-44.62-115.63,100.92,137.62-157.9-1.69-58.35c-16.65,42.98-48.64,81.16-77.84,112.59-29.52,31.78-67.49,67.19-99.27,96.11-15.93,14.49-33.17,27.04-48.51,42.56-3.46-.11,2.02-5.22,2.26-5.49,30.71-34.35,67.08-62.23,98.14-96.11,16.57-18.07,30.27-40.19,47.38-57.67l-95.88,79.64,28.77-39.13,10.72-35.01-133.67,107.78,259.45-238.22c.36.13.83-.15,1.13,0-12.18,17.15-25.21,34.08-38.35,50.12-20.42,24.93-42.68,41.82-49.63,78.26,19.09-13.84,32.23-38.84,47.94-55.61,14.39-15.36,34.97-29.02,50.2-43.94Z"/>
  <path class="cls-4" d="M636.22,645.11c-15.23,14.92-35.81,28.58-50.2,43.94-15.71,16.77-28.86,41.77-47.94,55.61,6.96-36.44,29.21-53.34,49.63-78.26,13.14-16.04,26.17-32.97,38.35-50.12,8.01,4.1,7.53,19.33,10.15,28.83Z"/>
  <path class="cls-4" d="M1055.86,866.17c-.56,2.62-2.03,8.34-2.26,9.61-15.14-14.13-38.42-26.41-52.45-41.19-2.02-2.12-3.88-3.43-1.69-6.87,18.25,13.71,37.18,26.79,56.4,38.44Z"/>
  <g>
    <path class="cls-5" d="M415.12,485.84c1.12,7.21-6.84,58.23-9.02,67.96-4.12,18.38-13.68,36.39-18.05,53.55-6.13,24.1-12.08,73.19-20.3,93.37-3.15,7.73-52.2,59.18-61.48,69.34-34.1,37.33-75.41,73.25-107.73,111.22-2.73,3.21-1.01-1.29-4.51,6.87-2.8.2-9.08,5.78-10.15,8.24l-3.95-4.12c-.85.72-1.23,7.94-1.69,9.61l-7.9,6.87c-.72-1.56-2.44-7.55-4.51-4.81.51,2.08-3.74,20.14-6.2,18.54,2.03-1.86-3.92-20.13-5.64-19.22l-5.64,20.6-5.64-24.71c-3.38-.15-2.41,25.33-6.2,11.67l-6.2,21.28-7.9-30.21c-3.18,12.33-9.25,18.77-11.28,30.21-5.25-.57-8.14-25.46-10.15-26.09l-6.2,13.73c-1.62-3.06-4.57-4.45-4.51-4.81.08-.46,4.22-.65,4.51-4.12.22-2.61-5.45-5.98-5.64-6.87-.14-.67,2.95.22,2.26-4.12-.27-1.69-2.32-4.94-2.26-7.55.06-2.37-.44-7.35,0-8.92,1.08-3.89,45.66-44.53,52.45-51.49,19.51-19.97,95.4-91.9,105.47-110.53,6.13-11.34,8.84-37.49,15.79-49.43,8.69-14.93,40.14-37.71,52.45-52.86,18.47-22.72,49.72-93.53,61.48-124.26,5.19-13.57,8.99-27.54,12.41-41.88l2.26-.69c3.69,9.05,22.29,24.61,23.69,33.64Z"/>
    <path class="cls-3" d="M388.61,565.48c-16.56,59.47-56.03,103.2-83.48,155.15-2.1-.92,12.97-49.15,14.1-51.49,4.09-8.49,17.82-22.4,23.69-31.58,15.3-23.95,30.36-48.15,45.69-72.08Z"/>
  </g>
</svg>