<?xml version="1.0" encoding="UTF-8"?>
<svg id="Layer_1" data-name="Layer 1" xmlns="http://www.w3.org/2000/svg" viewBox="0 0 749.78 587.57">
  <defs>
    <style>
      .cls-1 {
        fill: #0ddff2;
      }
    </style>
  </defs>
  <path class="cls-1" d="M56.47,500c-59.35-17.02-69.17-52.1-42.25-72.48,19.4-12.75,41.7-23.85,65.3-32.2l2.17-.68,175.43-62.9v72.25l-125.75,45.98c-22.03,8.48-25.78,19.75-7.47,25.8,9.13,2.33,19.57,3.67,30.35,3.67,15.37,0,30.1-2.72,43.72-7.7l-.87.27,60.55-22.05v64.8c-3.75.93-8,1.38-12.17,2.27-19.37,3.4-41.67,5.35-64.42,5.35-44.45,0-87.15-7.45-126.95-21.15l2.75.83-.38-2.07ZM426.15,507.4l196.7-71.08c22.32-8.05,25.8-19.53,7.67-25.55-9.08-2.23-19.47-3.5-30.2-3.5-15.55,0-30.5,2.7-44.35,7.63l.93-.27-131.38,46.85v-74.57l7.5-2.65c26.25-8.73,57.1-15.5,88.92-19.02l2.08-.2c11.7-1.25,25.25-1.95,38.98-1.95,46.93,0,91.93,8.27,133.58,23.47l-2.7-.87c57.73,18.77,63.72,45.98,49.22,64.73-13.98,13.92-30.88,24.95-49.7,32.05l-.97.33-266.93,97.07v-71.72l.65-.73ZM280.7,0v548.17l122.3,39.4V127.82c0-21.55,9.5-35.95,24.8-30.95,19.88,5.63,23.75,25.43,23.75,47.02v183.55c76.25,37.27,136.28-.08,136.28-98.48s-35.17-146.05-138.65-182.05C404.55,30.73,348.17,14.58,290.5,1.8L280.77,0h-.08Z"/>
</svg>