<?xml version="1.0" encoding="utf-8"?>
<!-- Generator: Adobe Illustrator 27.5.0, SVG Export Plug-In . SVG Version: 6.00 Build 0)  -->
<svg version="1.1" id="PRINT" xmlns="http://www.w3.org/2000/svg" xmlns:xlink="http://www.w3.org/1999/xlink" x="0px" y="0px"
	 viewBox="0 0 500 500" style="enable-background:new 0 0 500 500;" xml:space="preserve">
<g>
	<rect id="CUSTOM-Background" style="fill:#F2F2F2;" width="500" height="500"/>
	<circle id="CUSTOM" style="fill:none;stroke:#82BD2F;stroke-width:13;stroke-miterlimit:10;" cx="250" cy="250" r="169.903"/>
	<path id="CUSTOM_00000103971589503336299710000017106787257712285076_" style="fill:#82BD2F;" d="M307.023,138.873
		c-1.529-2.699-4.751-3.944-7.699-2.973c-21.32,7.028-37.905,20.348-47.566,37.717c-0.097-0.225-0.193-0.452-0.293-0.676
		c-11.056-24.967-33.309-41.962-60.047-49.365c-2.991-0.828-6.151,0.571-7.547,3.342c-12.493,24.775-14.861,52.674-3.805,77.641
		c10.538,23.796,31.381,40.61,57.054,48.488l8.79,19.851c1.629,3.679,6.286,5.081,9.696,2.686c0.092-0.066,0.179-0.136,0.266-0.206
		c0.973-0.762,1.65-1.713,2.059-2.771l6.887-17.833c2.05-0.748,4.067-1.554,6.022-2.419c21.637-9.581,37.338-26.306,44.21-47.093
		C322.079,183.997,319.228,160.421,307.023,138.873z M251.45,253.262l-2.428-5.484c0.417-0.891,0.82-1.782,1.212-2.678
		c0.76,1.673,1.575,3.336,2.444,4.988L251.45,253.262z M243.866,222.605c-0.005,0.017-0.007,0.034-0.01,0.052
		c-0.586,2.813-1.331,5.626-2.226,8.43l-24.821-38.196c0,0,2.941,0.092,4.687-2.293c0,0,2.102-3.804-0.006-7.272
		c-2.108-3.468-5.929-4.01-9.201-2.274c-3.272,1.736-3.93,7.045-2.474,10.331l19.917,44.977
		c-17.367-7.917-30.533-20.74-37.766-37.073c-8.388-18.941-7.925-40.618,1.201-61.567c21.647,7.323,38.01,21.551,46.396,40.489
		C245.831,192.361,246.955,207.75,243.866,222.605z M302.693,201.175c-5.068,15.329-16.044,28.046-31.216,36.356l7.046-38.013
		c0,0,1.946,2.371,5.191,1.656c3.245-0.715,5-3.171,5.059-6.269c0.071-3.685-1.482-6.734-5.828-6.969s-7.124,2.22-8.42,5.572
		l-15.194,39.344c-1.019-2.944-1.846-5.91-2.471-8.885c1.974-10.194,2.203-20.345,0.681-30.218
		c5.299-19.624,19.939-35.252,40.705-43.608C306.443,167.066,308.04,185.002,302.693,201.175z"/>
	
		<text transform="matrix(1 0 0 1 139.4563 330.0444)" style="fill:#82BD2F; font-family:'Shrikhand-Regular'; font-size:61.7749px;">Veggie</text>
	
		<text transform="matrix(1 0 0 1 165.0377 367.0977)" style="fill:#82BD2F; font-family:'Shrikhand-Regular'; font-size:22.1395px;">100% organic</text>
</g>
</svg>
