<svg viewBox="0 0 512 512" xmlns="http://www.w3.org/2000/svg" fill-rule="evenodd" clip-rule="evenodd" stroke-linejoin="round" stroke-miterlimit="2"><path d="M244.78 163.097c-9.051 22.654-17.77 60.147-28.3 17.016-7.899-30.635-24.773 19.194-37.043 27.74-24.749 18.812-38.447 45.324-49.439 73.727-29.108-24.75-18.191 14.973-19.975 34.4 1.586 29.12-3.16 60.963 2.344 88.4 23.096 20.129 39.808 51.897 74.18 51.486 23.51 8.171 20.567-27.38 41.887 2.123 19.616 26.892 31.732 11.165 44.543-2.063 18.712 28.647 24.445-34.274 40.23-6.053 24.398 9.497 46.274 14.014 50.279-18.188 5.01-25.432 48.736-25.948 38.49-56.525-1.428-31.725 2.837-65.714-2.095-96.046-16.562-12.925-29.337-42.771-48.207-45.371-23.349 11.33-14.35-38.626-23.96-53.326-3.14-38.61-11.41-21.151-20.401 5.322-4.975 38.12-25.886 19.948-36.57-4.998-9.5-7.99-20.33-50.197-25.964-17.644z" fill="#f3e517"/><g transform="matrix(3.94531 0 0 3.94536 3.5 -3.595)"><clipPath id="prefix__a"><path d="M30 94l2 2 3 10 1-12 3 15V90l2 5 3 14V90l2 2 3 17 3-23 6.616 25.92L59 96l2-6 2 25 6-25 2 21 5-22 5 24 1-18 3-6 1 23 5-22 3 10 1-9 3 6V78l-3 8-1-17-2 13-2-4-1-14-5 19-1-4-3-30-3 26-2 8-4-27-4 23-2 6-1-41.305L58 90l-6-42-3 36-2-4-2-24-1 24-3 7-2-24-2 19-3-5v14l-4-15v18z"/></clipPath><g clip-path="url(#prefix__a)"><path fill="#ff7901" d="M28 43h72v73H28z"/><path d="M29 80l8 5 3-9 5 6 6-10 2 12 2-8 3 6 1-6s3 8 3 7 4-15 4-15l4 13 6-12 3 13 5-9 3 9 5-5 6 6v8l-4 3-6-2-4-2-1 10-2-10-4 9-6-9-2 9-4-6-5 13-3-15-6 3-4-6-2 10-4-5-4 5-2-3-6 1V80z" fill="#ff0101"/></g></g><g transform="matrix(3.94531 0 0 3.94536 3.5 12.186)"><clipPath id="prefix__b"><path d="M64 6.875c-13.263 0-25.359 4.141-34.281 11.094C20.796 24.922 15 34.87 15 45.938v4C6.141 54.426 0 66.2 0 80c0 17.664 10.049 32 23 32V45.938c0-8.289 4.29-15.916 11.656-21.657 7.367-5.74 17.769-9.406 29.344-9.406 11.575 0 21.977 3.666 29.344 9.406C100.71 30.022 105 37.649 105 45.938V112c12.951 0 23-14.336 23-32 0-13.8-6.141-25.574-15-30.062v-4c0-11.068-5.796-21.016-14.719-27.969C89.359 11.016 77.263 6.875 64 6.875zM26 49v63c2 0 4-1 5-3V51c-1-1-3-2-5-2zm76 0c-2 0-4 1-5 2v58c1 2 3 3 5 3V49z"/></clipPath><g clip-path="url(#prefix__b)" fill="#00c" fill-rule="nonzero"><path d="M64 6.875c-13.263 0-25.359 4.141-34.281 11.094C20.796 24.922 15 34.87 15 45.938v4C6.141 54.426 0 66.2 0 80c0 17.664 10.049 32 23 32V45.938c0-8.289 4.29-15.916 11.656-21.657 7.367-5.74 17.769-9.406 29.344-9.406 11.575 0 21.977 3.666 29.344 9.406C100.71 30.022 105 37.649 105 45.938V112c12.951 0 23-14.336 23-32 0-13.8-6.141-25.574-15-30.062v-4c0-11.068-5.796-21.016-14.719-27.969C89.359 11.016 77.263 6.875 64 6.875z"/><path d="M26 49v63c2 0 4-1 5-3V51c-1-1-3-2-5-2zM102 49c-2 0-4 1-5 2v58c1 2 3 3 5 3V49z"/></g></g></svg>