<?xml version="1.0" encoding="UTF-8"?>
<svg id="Layer_1" data-name="Layer 1" xmlns="http://www.w3.org/2000/svg" viewBox="0 0 637.5 736.56">
  <defs>
    <style>
      .cls-1 {
        fill: #0dd9d9;
      }
    </style>
  </defs>
  <path class="cls-1" d="M306.25,0L31.25,175.47l275-5.94V0ZM331.25,0v169.53l274.53,5.94L331.25,0ZM398.59,78.08c4.37.09,9.06,1.17,14.38,3.25,3.59,1.42,6.41,2.98,8.75,4.8,2.34,1.8,4.37,3.91,5.78,5.92,2.34,3.22,3.44,6.31,4.06,9.77,3.75-2.77,8.13-4.66,12.81-6,5.31-1.14,11.25-.55,17.34,1.92,7.19,2.84,12.66,6.55,16.09,11.11,3.44,4.58,5.47,9.33,6.25,14.27.47,2.67.47,5.33.16,7.83-.16,2.66-.94,5.16-1.88,7.34-.78,2.34-1.88,4.69-3.59,6.72-1.56,2.03-3.28,4.06-5.47,5.62-3.91,3.12-8.59,5.16-14.22,6.09s-12.03,0-19.22-2.81c-6.25-2.5-10.94-5.94-14.06-10.47-2.5-4.06-4.53-8.59-5.31-13.13-3.12,2.34-6.56,3.91-10.78,4.53-4.69.94-10.16,0-16.72-2.5-3.75-1.56-7.03-3.28-9.69-5.16-2.81-2.03-5-4.08-6.72-6.38-3.28-4.03-5-8.39-5.47-13.05-.31-4.53.31-8.83,1.72-12.73.78-2.02,2.03-4.02,3.28-6.12,1.56-1.72,3.12-3.45,4.84-5.09,3.75-2.77,8.13-4.64,13.28-5.52,1.41-.19,2.81-.27,4.37-.22h0ZM243.75,86.34c7.5.08,17.03,5.58,14.06,15.69-6.25,10.78-16.09,19.02-28.12,23.13-11.56,3.91-23.44,6.88-34.38,2.97-4.69-3.59-20.31-14.69-23.44-5.31-1.87,23.91,1.56,20.31-17.19,27.81v-38.12c15.62-6.09,32.81-7.03,48.44,2.03,12.5,6.56,29.69,2.34,37.5-9.06,1.56-10.16-12.5-7.03-18.75-5.16-4.69-12.97,12.19-13.17,20.31-13.91.47-.05.94-.06,1.56-.06ZM400.78,93.31c-1.41.02-2.81.22-4.37.56-3.75.95-6.56,3.39-7.97,7.3-1.56,3.78-1.25,7.41.94,10.75,2.19,3.47,5.16,5.83,9.38,7.47,4.53,1.8,8.44,2.2,12.5,1.14,3.91-.87,6.72-3.31,8.13-7.09,1.56-3.91,1.25-7.53-1.09-10.95-2.19-3.34-5.47-5.89-10-7.69-2.5-1.03-5-1.5-7.5-1.48h0ZM445.94,109.17c-1.72.08-3.44.42-5,1.02-4.22,1.83-7.03,4.62-8.44,8.42-1.56,3.91-1.41,7.95.62,11.86,1.88,4.06,5.63,7.19,11.25,9.53,4.53,1.72,9.06,2.03,13.44.94,4.37-1.25,7.34-4.22,9.06-8.75,1.72-4.53,1.72-8.64-.78-12.52-2.34-3.86-5.78-6.83-10.31-8.61-3.59-1.41-6.87-2.02-9.84-1.89ZM296.88,194.69L4.69,201.09l112.5,301.41,179.69-307.81ZM340.62,194.69l180.31,307.81,111.25-301.41-291.56-6.41ZM318.75,206.41l-182.81,312.81h365.78l-182.97-312.81ZM500.94,232.03l30,66.41,11.25-5.16,6.41,14.37-11.09,5,9.84,21.88-16.25,7.34-9.84-21.88-47.19,21.25-6.09-13.59c2.19-14.37,6.87-43.44,13.91-87.03l2.81-1.25,1.25-.47,4.84-2.34,10.16-4.53ZM147.97,250.94h2.03c4.53,0,8.59.78,12.19,2.5,10.78,5,16.72,13.12,18.28,23.91,1.41,10.78-1.56,23.91-8.91,39.22-7.34,15.16-15.62,25.78-24.69,31.72-9.38,5.94-19.22,6.41-29.84,1.56-9.22-4.38-14.69-10.47-16.56-18.59-1.87-8.28-1.41-15.16,1.41-21.09l15,6.87c-1.41,2.66-1.72,5.94-1.25,9.84.47,4.06,2.97,7.03,7.81,9.38,4.84,2.19,9.53,2.03,14.37-.31,4.84-2.19,9.84-8.12,15.16-17.66.78-1.56,1.72-3.28,2.66-5.16-2.81,1.87-5.63,3.12-8.59,4.06-5,1.41-10.31.78-16.09-1.87-6.72-3.12-11.72-8.59-14.84-16.56-3.28-7.81-2.34-16.72,2.5-26.87l.16-.16c1.72-3.59,3.75-6.87,6.25-9.38,2.19-2.66,4.84-4.84,7.5-6.56,4.84-2.97,10-4.69,15.47-4.84h0ZM0,258.91v270.63l96.88-8.91L0,258.91ZM637.5,258.91l-96.72,261.72,96.72,8.91v-270.63ZM493.91,259.84c-2.5,15.16-5.63,35.16-9.69,59.69l30.63-13.75-12.81-27.97-8.13-17.97h0ZM150.63,266.25c-2.34.16-4.53.62-6.72,1.72-4.69,2.19-7.97,5.47-10.16,10.16-2.5,5.31-3.28,10.16-1.87,15,1.41,4.69,4.22,7.97,8.44,10,4.38,2.03,8.91,2.03,13.28,0s7.97-5.63,10.63-10.94c2.19-4.53,2.66-9.22,1.56-14.06-1.25-4.84-4.06-8.28-8.44-10.31-2.19-1.09-4.53-1.56-6.72-1.56ZM311.88,340.78h24.38v131.56h-24.38v-109.69c-13.75,9.06-23.91,15-30.31,17.5l-9.84,4.37v-21.88l9.84-4.38c6.41-2.81,16.56-8.44,30.31-17.5h0ZM627.03,350.47h.78c5.63.47,8.91,10.94,7.34,17.34-.16,29.06,1.72,61.25-15.16,86.41-1.41,1.88-3.44,2.97-5.78,3.91-9.06-6.41-4.69-17.66,1.88-24.22,1.56,11.41,8.59-4.53,10.31-8.75,2.03-5,5.63-27.66-1.56-15.94,1.09,6.25-10.62,20.47-14.53,12.66-7.81-22.5,0-47.66,10.94-67.97,2.03-2.19,3.91-3.28,5.78-3.44h0ZM12.5,351.88c1.56.16,1.56,1.56,3.12,5.63v95.47c-10.94-10.94-4.69-27.19-6.25-41.25-1.56-11.88,3.12-25.47-1.56-36.25-7.81-2.66-9.38-26.56-4.69-19.84,6.25,7.5,6.25-4.22,9.38-3.75h0ZM623.28,368.44c-1.56,0-3.12,1.56-4.37,5.78-2.5,9.22-5.16,20.94-1.09,30.16,7.97-3.12,8.44-15,10.31-22.66,1.88-5.16-1.41-13.12-4.84-13.28ZM35.94,387.34c6.25-.78,10.94,11.25,14.06,16.87,5.12,19.84,6.58,21.72,4.69,26.25-7.81-5.78-7.61-11.56-8.38-13.91-1.56-4.69-2.56-8.28-5.69-13.12-5.22,4.37-4.69,14.22-4.69,20.94,0-2.5,1.56-3.59,6.25-1.09,10.94,19.69,18.75,45.47,10.94,67.97l-3.12,1.72c-17.19-9.06-18.75-30.31-21.88-46.88-1.56-19.22-1.56-38.59,3.12-57.34,1.56-.94,3.12-1.41,4.69-1.41h0ZM595.63,394.84c7.03.47,1.25,55,1.25,85.94l-6.87,10.47v-66.09c-7.19,11.72-14.22,14.22-9.53-1.41,7.66-20.94,12.34-29.06,15.16-28.91h0ZM39.06,435.78c-6.25,7.34-3.12,20-1.56,28.75,3.12,8.59,10.94,15.94,9.38,2.5,0-8.91,1.56-18.44-4.69-25.62,0-.94-1.56-2.97-3.12-5.63ZM142.19,544.22l176.56,192.34,176.25-192.34H142.19ZM109.38,544.69l-84.38,7.66,100,64.22c-3.12-4.22-7.81-8.91-10.94-13.75-7.81-10.78-15.62-21.25-29.69-25.94-14.06-10.16-6.25-8.28,4.69-4.06-1.56-2.81-1.56-4.06,0-4.06,3.12-.31,14.06,6.56,15.62,9.84l39.06,49.38,101.56,65.16-135.94-148.44ZM528.44,544.69l-66.25,72.34c10-4.84,17.66-13.28,26.56-19.37,3.75-2.19,5.78-2.97,6.72-2.97,3.28,0-8.44,11.09-12.03,16.09-14.69,15.31-25,35.94-44.69,45.47l29.53-38.28c-3.59,2.03-9.38,5-12.81,6.41l-62.97,68.75,116.41-74.38c8.44-10.47,2.97-8.75-8.91-1.41l-17.81,9.38c17.81-21.41,41.87-36.88,62.5-55.63,5-2.34,14.84-8.75,17.19-8.91,1.25-.16.31,1.56-4.37,6.56l-19.69,25c15.62-11.88,1.41,6.09-7.03,8.59-1.09,1.56-2.19,3.12-3.44,4.53l85.16-54.53-84.06-7.66h0ZM281.09,570.78c2.19,0,4.22.16,6.41.31v67.81h-20.31v-46.88c-7.81-2.19-17.19,2.66-25-.47-6.25-4.53,1.56-10.62,7.81-9.22,4.69-.16,10.94.31,14.06-5,5.31-4.84,10.94-6.56,17.03-6.56ZM332.81,571.88s1.56.16,1.56.31c6.25,1.25,10.94.47,15.62.62h40c2.34,4.69,1.25,12.19-5.16,12.34-6.09.78-12.19-.62-18.28.31-7.34.31-15-2.81-22.81.62-4.69,2.66-6.25,13.28,1.56,9.53,6.25-1.72,11.41-2.81,16.87-1.41,10.94,1.72,23.44,4.53,29.84,14.38,3.28,4.84,4.22,11.41,1.09,16.72-5.63,10.16-18.13,13.12-28.59,15.16-3.75.62-7.34,2.19-11.41,1.88-10.94-.94-23.44-1.72-31.25-11.09-4.69-3.91-4.69-11.09,3.12-10.47,4.69-.16,12.5-.62,15.62,5.47,4.69,5.78,14.06,4.69,20.31,3.12,5.63-.78,11.72-4.06,11.88-10.47.94-6.56-4.84-11.25-10.78-12.19-8.91-3.59-18.28,2.19-27.66,2.81-4.69,1.72-14.06.78-14.06-6.87,1.56-6.56,4.69-12.66,4.69-19.53,0-4.69,3.12-10.94,7.81-11.25h0ZM541.41,579.69c-.31-.31-10.94,9.06-15.47,12.66l-24.69,20.47c13.44-6.87,25.78-15,34.84-27.19,4.06-4.06,5.47-5.78,5.31-5.94h0ZM154.69,601.88c4.69,0,12.5,7.19,15.62,10.94l40.62,48.59c-12.5-3.28-20.31-11.09-28.12-21.41-9.38-11.41-17.19-25.94-32.81-30.63-14.06-7.81-7.81-10,3.12-3.44,0-2.97,0-4.06,1.56-4.06h0Z"/>
</svg>