<?xml version="1.0" encoding="UTF-8"?>
<svg id="Layer_1" data-name="Layer 1" xmlns="http://www.w3.org/2000/svg" viewBox="0 0 799.97 799.99">
  <defs>
    <style>
      .cls-1 {
        fill: #0ddff2;
      }
    </style>
  </defs>
  <path class="cls-1" d="M692.19,0H107.8C48.27,0,0,48.26,0,107.8v584.39c0,59.54,48.26,107.8,107.8,107.8h288.22l.49-285.88h-74.27c-9.65,0-17.49-7.8-17.52-17.46l-.36-92.15c-.04-9.7,7.82-17.59,17.52-17.59h74.14v-89.04c0-103.33,63.11-159.59,155.28-159.59h75.64c9.68,0,17.52,7.85,17.52,17.52v77.7c0,9.68-7.84,17.52-17.52,17.52l-46.42.02c-50.13,0-59.84,23.82-59.84,58.78v77.08h110.15c10.5,0,18.64,9.16,17.4,19.59l-10.92,92.15c-1.05,8.82-8.52,15.46-17.4,15.46h-98.74l-.49,285.88h171.49c59.54,0,107.8-48.26,107.8-107.8V107.8c0-59.54-48.27-107.8-107.8-107.8h.02Z"/>
</svg>