<?xml version="1.0" encoding="UTF-8"?>
<svg id="Layer_1" data-name="Layer 1" xmlns="http://www.w3.org/2000/svg" viewBox="0 0 538.21 557.51">
  <defs>
    <style>
      .cls-1 {
        fill: #fff;
        fill-rule: evenodd;
      }
    </style>
  </defs>
  <path class="cls-1" d="M269.11,0l212.76,70.85c2.5.83,4.12,3.25,3.94,5.88l-14.05,207.78c-.11,1.65.49,3.27,1.65,4.44l63.15,64.21c2.09,2.12,2.22,5.48.31,7.76l-84.94,101.65c-1.61,1.93-4.29,2.6-6.62,1.65l-50.02-20.4c-1.51-.62-3.21-.57-4.68.14-1.47.7-2.58,2-3.04,3.56l-23.43,78.36c-.55,1.85-1.99,3.3-3.84,3.87l-89.48,27.5c-1.11.34-2.29.34-3.4,0l-89.48-27.5c-1.85-.57-3.29-2.02-3.84-3.87l-23.43-78.36c-.47-1.56-1.57-2.85-3.04-3.56-1.47-.7-3.17-.75-4.68-.14l-50.02,20.4c-2.33.95-5.01.28-6.62-1.65L1.35,360.93c-1.91-2.28-1.77-5.64.31-7.76l63.15-64.21c1.16-1.18,1.76-2.8,1.65-4.44l-14.05-207.78c-.18-2.63,1.44-5.04,3.94-5.88L269.11,0ZM266.65,384.79l-31.93,46.65c-1.29,1.89-.89,4.45.91,5.86l11.77,9.2c1.78,1.39,4.33,1.18,5.86-.49l14.37-15.68c.75-.82,2.03-.88,2.86-.12.04.04.08.08.12.12l14.37,15.68c1.53,1.67,4.08,1.88,5.86.49l11.77-9.2c1.8-1.41,2.2-3.97.91-5.86l-31.93-46.65c-.93-1.36-2.79-1.71-4.14-.78-.3.21-.57.47-.78.78ZM386.81,267.89c-31,0-56.17,25.17-56.17,56.17s25.17,56.17,56.17,56.17,56.17-25.17,56.17-56.17-25.17-56.17-56.17-56.17ZM151.4,267.89c-31,0-56.17,25.17-56.17,56.17s25.17,56.17,56.17,56.17,56.17-25.17,56.17-56.17-25.17-56.17-56.17-56.17Z"/>
</svg>