<?xml version="1.0" encoding="UTF-8"?>
<svg id="Layer_1" data-name="Layer 1" xmlns="http://www.w3.org/2000/svg" viewBox="0 0 799.99 799.99">
  <defs>
    <style>
      .cls-1 {
        fill: #0ddff2;
      }
    </style>
  </defs>
  <path class="cls-1" d="M561.68,0H238.32C106.91,0,0,106.91,0,238.32v323.35c0,131.41,106.91,238.32,238.32,238.32h323.35c131.41,0,238.32-106.91,238.32-238.32V238.32C799.99,106.91,693.08,0,561.67,0h0ZM719.52,561.68c0,87.17-70.67,157.84-157.84,157.84H238.32c-87.17,0-157.84-70.67-157.84-157.84V238.32c0-87.18,70.67-157.84,157.84-157.84h323.35c87.17,0,157.84,70.67,157.84,157.84v323.35h.01Z"/>
  <path class="cls-1" d="M400,193.09c-114.09,0-206.91,92.82-206.91,206.91s92.82,206.91,206.91,206.91,206.91-92.82,206.91-206.91-92.82-206.91-206.91-206.91h0ZM400,526.43c-69.83,0-126.43-56.6-126.43-126.43s56.6-126.43,126.43-126.43,126.43,56.6,126.43,126.43-56.6,126.43-126.43,126.43Z"/>
  <circle class="cls-1" cx="607.3" cy="194.65" r="49.58"/>
</svg>