<?xml version="1.0" encoding="UTF-8"?>
<svg id="svg3971" xmlns="http://www.w3.org/2000/svg" viewBox="0 0 272.32 313.39">
  <defs>
    <style>
      .cls-1 {
        fill: #fff;
      }
    </style>
  </defs>
  <g id="layer1">
    <path id="path3922" class="cls-1" d="M133.24,0c-.57.02-1.23.23-1.59.73L50.98,97.26c-1.34,1.68-1.43,2.06.37,2.07l161.59-.43c2.22-.18,2.23-.07.79-1.95L134.46.43c-.16-.26-.65-.44-1.22-.43h0ZM148.73,8.6l72.75,88.48c.97,1.18,1.21,1.25,2.93.43l38.36-17.56c2.51-1.13,2.16-1.37.49-2.5L148.71,8.59h.01ZM114.76,11.83c-.03-.07-.63.37-1.95,1.28L7.2,82.63l33.05,15c1.72.57,2.24.6,3.35-.79L113.3,13.6c.98-1.14,1.5-1.7,1.46-1.77h0ZM148.18,47.08c4.67,0,8.41,1.61,11.16,4.82,2.75,3.19,4.3,7.75,4.7,13.66.39,5.89-.6,10.45-2.93,13.66-2.33,3.19-5.82,4.76-10.49,4.76s-8.41-1.56-11.16-4.76c-2.75-3.21-4.31-7.77-4.7-13.66-.39-5.91.6-10.47,2.93-13.66,2.33-3.21,5.8-4.82,10.49-4.82h0ZM117.51,47.44c4.26,0,7.45.93,9.51,2.8,2.08,1.87,2.83,4.45,2.32,7.81-.29,1.94-1.06,3.74-2.32,5.43-1.25,1.67-3.68,3.96-7.32,6.77l-8.6,6.65h15.61l-.98,6.71h-25.85l1.04-6.71,14.7-11.46c1.32-1.05,2.34-2.05,3.05-3.05.71-1,1.12-2.09,1.28-3.17.25-1.67-.06-3.01-1.04-4.02-.96-1.02-2.41-1.52-4.27-1.52-1.43,0-3.02.36-4.82.98-1.79.6-3.73,1.48-5.85,2.68l1.16-7.81c2.17-.68,4.27-1.18,6.34-1.52,2.07-.37,4.1-.55,6.04-.55h0ZM148.61,53.36c-1.97,0-3.3.92-4.02,2.74-.72,1.81-.96,4.94-.67,9.39.3,4.49.93,7.61,1.89,9.45.96,1.84,2.42,2.8,4.39,2.8s3.3-.96,4.02-2.8c.72-1.84.97-4.96.67-9.45-.29-4.45-.93-7.58-1.89-9.39-.95-1.83-2.42-2.74-4.39-2.74h0ZM60.92,58.3c.85,0,1.44.21,1.71.67.53.91-.14,2.69-1.95,5.43-1.82,2.74-3.9,5.07-6.28,6.95-2.38,1.87-5.02,3.28-7.87,4.21-1.84.6-3.12.76-3.84.43-.73-.34-.9-1.18-.49-2.44-1.37,1.45-2.81,2.71-4.33,3.72-1.52,1.01-3.07,1.79-4.7,2.32-2.42.79-3.88.73-4.27-.18-.39-.92.31-2.67,2.01-5.24,1.69-2.55,3.58-4.72,5.73-6.46,2.14-1.74,4.46-2.99,6.89-3.78,1.63-.53,2.76-.67,3.41-.37.66.3.81,1.02.49,2.13,1.49-1.61,3.06-2.96,4.76-4.09,1.69-1.13,3.46-2.02,5.3-2.62,1.42-.46,2.57-.67,3.41-.67h0ZM223.67,59.76c1.45,1.21,2.79,2.47,4.02,3.66,1.24,1.19,2.37,2.33,3.35,3.48,2.17,2.51,3.32,4.46,3.41,5.85.11,1.4-.84,2.12-2.81,2.13-1.14,0-2.47-.33-3.96-.91-1.49-.58-3.85-1.78-7.13-3.66l-7.81-4.45,7.99,9.21-3.96.06-13.17-15.24,3.96-.06,13.35,7.62c1.21.68,2.24,1.2,3.11,1.52.87.32,1.62.49,2.26.49.98,0,1.44-.37,1.46-1.04.03-.66-.4-1.53-1.34-2.62-.73-.84-1.7-1.81-2.93-2.8-1.22-1-2.7-2.03-4.39-3.17l4.57-.06h0ZM55.49,63.84c-.45.04-1.06.14-1.77.37-1.42.46-2.68,1.11-3.78,1.89-1.11.78-2.02,1.67-2.68,2.68-.67,1.02-.82,1.71-.43,2.01.39.3,1.33.22,2.74-.24s2.66-1.1,3.78-1.89c1.11-.79,2.01-1.73,2.68-2.74.67-1.01.81-1.66.43-1.95-.2-.14-.52-.16-.98-.12h0ZM42.26,68.48c-.36.03-.83.12-1.4.3-1.14.37-2.14.93-3.05,1.59-.92.66-1.69,1.41-2.26,2.26-.57.87-.73,1.44-.43,1.71.31.26,1.07.19,2.2-.18,1.14-.37,2.13-.86,3.05-1.52.93-.67,1.68-1.45,2.26-2.32.56-.85.74-1.39.43-1.65-.15-.13-.43-.21-.79-.18h0ZM268.36,84.09c-.33.02-.85.21-1.65.55l-39.39,17.99c-1.4.63-1.31,1.49-.79,2.56l45.79,116.16-3.29-135.31c-.1-1.48-.12-1.99-.67-1.95h0ZM4.21,87.69L0,219.34l38.78-113.91c.57-1.68.56-1.77-.61-2.32l-33.96-15.43h0ZM215.07,104.76l-165.25.43c-2.36-.04-2.26-.03-1.1,1.89l83.9,141.53c1.42,2.16,1.27,2.09,2.74-.12l80.61-141.77c.71-1.13,1.21-1.91-.91-1.95h0ZM221.65,108.48c-.15.06-.32.64-.79,1.52l-81.16,142.81c-.89,1.51-1.1,2.05,1.04,1.71l128.85-17.74c2.04-.47,1.98-1.2,1.28-3.23l-48.62-123.48c-.32-1.18-.46-1.65-.61-1.59h.02ZM43.47,109.82c-.16.11-.3.71-.61,1.59L1.7,232.57c-.7,2.57-.78,3.54,1.83,4.02l123.11,17.8c2.33.35,2.03-.82,1.46-1.95L44.32,111.11c-.53-1.07-.7-1.39-.85-1.28h.01ZM267.5,111.41l.24,5.06-4.15,2.68.98,18.35,4.15-4.09.31,5-4.21,4.02-4.45,2.87-1.22-23.35-1.95,1.22.06,1.46c-.91-.13-1.8-.07-2.68.12-.89.21-1.72.57-2.56,1.1-1.24.79-2.18,1.71-2.8,2.8-.63,1.1-.92,2.28-.85,3.54.07,1.29.44,2.03,1.16,2.26.71.24,1.72-.02,3.05-.85l1.89-1.22.24,4.76-1.95,1.22c-1.18.75-2.07,1.62-2.62,2.56-.55.95-.79,1.99-.73,3.17.06,1.09.38,1.77.98,2.01.59.24,1.42.04,2.44-.61.76-.48,1.5-1.13,2.26-1.89.76-.76,1.52-1.62,2.26-2.62l.24,5.37c-.91.99-1.78,1.84-2.68,2.62-.9.78-1.8,1.45-2.68,2.01-2.37,1.5-4.13,2.06-5.37,1.59-1.24-.46-1.95-1.89-2.07-4.33-.09-1.66.1-3.21.61-4.63.51-1.41,1.3-2.71,2.38-3.84-1.25.29-2.23.04-2.93-.79-.7-.81-1.06-2.13-1.16-4.02-.14-2.82.4-5.39,1.71-7.74,1.31-2.34,3.33-4.35,5.98-6.04.93-.59,1.85-1.11,2.8-1.46.2-.08.41-.12.61-.18l.06-.06,12.68-8.05h0ZM7.68,121.29c.62-.04,1.27.16,2.01.61,1.63.99,2.82,2.84,3.54,5.55.05.17.08.37.12.55l.24-3.23,8.78,5.31-.37,4.45-2.87-1.71-1.28,15.98,2.99.61-.3,4.33-3.05-.55-3.05-1.89,1.65-20.37-2.5-1.46c.37,2.34.5,5.03.24,8.11-.34,4.1-1.15,6.95-2.38,8.66-1.24,1.71-2.75,2.02-4.57.91-.58-.35-1.12-.77-1.65-1.28-.53-.51-1.08-1.09-1.59-1.77l.37-4.57c.49.82,1.01,1.5,1.46,2.01.45.53.89.95,1.34,1.22.96.58,1.75.49,2.38-.24.62-.73,1.02-2.12,1.28-4.15-.41.32-.83.48-1.28.49-.45.02-.95-.12-1.46-.43-1.28-.78-2.2-2.13-2.87-4.09-.67-1.96-.93-4.18-.73-6.59.22-2.66.82-4.54,1.83-5.61.5-.53,1.09-.81,1.71-.85h0ZM8.6,125.74c-.23.05-.44.21-.61.49-.35.56-.55,1.54-.67,2.99-.12,1.45-.1,2.64.12,3.54.22.9.65,1.54,1.22,1.89.56.34,1,.19,1.34-.37.34-.55.55-1.54.67-2.99.12-1.45.1-2.64-.12-3.54-.23-.89-.59-1.49-1.16-1.83-.29-.17-.57-.23-.79-.18h0ZM105.43,134.76h8.66v6.46h15.79v7.87l-14.27,21.22h-10.18v-22.44h-5.06v-6.65h5.06v-6.46h0ZM135.43,134.76h24.82v6.34h-8.05v22.99l8.29-1.71v6.22l-8.29,1.71h-8.72v-29.21h-8.05v-6.34h0ZM114.09,147.87v14.94l10.06-14.94h-10.06ZM52.81,174.76l5.73,7.81-2.68,1.77c.41.09.8.16,1.22.3,3.37,1.14,6.47,3.65,9.27,7.44,3.09,4.18,4.34,8.13,3.72,11.95-.64,3.82-3.12,7.13-7.38,9.94-4.37,2.88-8.77,3.84-13.23,2.8-4.49-1.04-8.44-3.93-11.89-8.6-1.09-1.48-2.09-2.93-2.93-4.45-.84-1.52-1.56-3.08-2.2-4.7l4.88-3.23c.48,1.71,1.06,3.26,1.71,4.63.63,1.38,1.35,2.63,2.2,3.78,1.83,2.47,3.82,4,5.98,4.63,2.14.64,4.38.38,6.77-.85-1.28-.57-2.44-1.34-3.54-2.26-1.11-.91-2.14-2.05-3.11-3.35-2.43-3.29-3.63-6.46-3.54-9.51.09-3.07,1.4-5.45,3.96-7.13.71-.47,1.45-.82,2.2-1.1l-3.96-5.37,6.83-4.51h0ZM208.42,186.04l6.65,5.12,10.61,24.88-5.3,7.87-19.15-14.64-2.62,3.9-5.67-4.33,2.68-3.96-5.55-4.21,4.57-6.71,5.49,4.27,8.29-12.2h0ZM57.38,192.2c-1.03.07-2.13.52-3.29,1.28-1.55,1.02-2.4,2.12-2.62,3.35-.25,1.23.14,2.62,1.22,4.09,1.07,1.45,2.28,2.28,3.6,2.5,1.3.21,2.72-.2,4.27-1.22,1.55-1.02,2.43-2.12,2.68-3.35.23-1.24-.15-2.63-1.22-4.09-1.08-1.47-2.3-2.29-3.6-2.5-.33-.05-.69-.08-1.04-.06h0ZM211.04,194.82l-5.24,7.74,12.68,9.76-7.44-17.5h0ZM11.46,243.67l120.8,68.54c1.56.95,1.93.6,1.71-1.04l-2.56-48.05c-.07-1.55-.28-2.18-1.89-2.44l-118.05-17.01h0ZM261.22,243.79l-122.63,16.95c-1.62.24-1.33,1.03-1.34,2.2l2.62,48.9c.13,1.48.09,2.02,1.89,1.1l119.46-69.15h0ZM184.45,264.89l8.96,9.94,7.01-4.15,1.95,2.2-18.42,10.91-2.99,1.77-18.42,10.91-1.95-2.13,7.01-4.15-7.13-7.81-6.59,4.82-1.95-2.13,6.59-4.76,7.5-4.45,9.02,9.94,3.96-2.38,2.99-1.77,3.96-2.38-7.07-7.81-6.65,4.82-1.89-2.13,6.59-4.82,7.5-4.45h0ZM103.83,266.35c2.37.11,4.52.93,6.52,2.44,2.23,1.68,3.18,3.49,2.81,5.49-.37,2-2.03,4-4.94,5.98-1.73,1.17-3.52,1.98-5.3,2.5l2.07,1.59-4.7,3.17-4.15-3.11,1.52-1.04c-2.6-.17-4.94-1.02-7.07-2.62-.8-.6-1.53-1.19-2.13-1.83-.61-.63-1.13-1.31-1.59-2.01l3.35-2.26c.36.76.76,1.41,1.22,2.01.47.6,1.02,1.18,1.65,1.65,1.31.99,2.77,1.49,4.27,1.52,1.51.02,3.04-.47,4.7-1.4-.92-.12-1.77-.3-2.56-.61-.79-.31-1.51-.7-2.2-1.22-1.75-1.32-2.62-2.79-2.62-4.33.02-1.54.92-2.89,2.68-4.09,1.95-1.32,4.1-1.93,6.46-1.83h0ZM104.87,270.01c-.92.07-1.88.45-2.93,1.16-1.06.72-1.69,1.42-1.83,2.07-.14.65.2,1.25.98,1.83.77.58,1.58.86,2.5.79.92-.07,1.93-.5,2.99-1.22,1.05-.71,1.62-1.36,1.77-2.01.14-.66-.14-1.31-.91-1.89-.77-.58-1.64-.8-2.56-.73h0Z"/>
  </g>
</svg>