<?xml version="1.0" encoding="UTF-8"?>
<svg id="Layer_1" data-name="Layer 1" xmlns="http://www.w3.org/2000/svg" xmlns:xlink="http://www.w3.org/1999/xlink" viewBox="0 0 2496.74 2500">
  <defs>
    <style>
      .cls-1 {
        fill: rgba(13, 217, 217, .28);
      }

      .cls-2 {
        fill: url(#linear-gradient-2);
      }

      .cls-3 {
        fill: rgba(13, 217, 217, .41);
      }

      .cls-4 {
        fill: url(#radial-gradient);
      }

      .cls-5 {
        fill: url(#linear-gradient-3);
      }

      .cls-6 {
        fill: url(#radial-gradient-2);
      }

      .cls-7 {
        fill: rgba(13, 217, 217, .26);
      }

      .cls-8 {
        fill: url(#linear-gradient);
      }

      .cls-9 {
        fill: #0dd9d9;
      }
    </style>
    <linearGradient id="linear-gradient" x1="-1869.48" y1="1520.81" x2="-1848" y2="1562.35" gradientTransform="translate(99005.84 -80076.23) scale(52.63)" gradientUnits="userSpaceOnUse">
      <stop offset="0" stop-color="#5b779e"/>
      <stop offset=".4" stop-color="#2d3b50"/>
      <stop offset="1" stop-color="#0c0e14"/>
    </linearGradient>
    <linearGradient id="linear-gradient-2" x1="-1891.68" y1="1477.66" x2="-1885.19" y2="1491.86" gradientTransform="translate(100582.42 -77328.02) scale(52.63)" gradientUnits="userSpaceOnUse">
      <stop offset="0" stop-color="#000" stop-opacity="0"/>
      <stop offset="1" stop-color="#000" stop-opacity=".62"/>
    </linearGradient>
    <radialGradient id="radial-gradient" cx="-2196.65" cy="1386.4" fx="-2196.65" fy="1386.4" r="7.5" gradientTransform="translate(404869.9 -229736.68) rotate(-11.49) scale(201.11 104.61)" gradientUnits="userSpaceOnUse">
      <stop offset="0" stop-color="#e6f1fd"/>
      <stop offset="0" stop-color="#bdd9f9"/>
      <stop offset=".07" stop-color="#bdd9f9"/>
      <stop offset="1" stop-color="#1c3556" stop-opacity=".1"/>
    </radialGradient>
    <linearGradient id="linear-gradient-3" x1="-1908.72" y1="1476.18" x2="-1897.49" y2="1500.43" gradientTransform="translate(100582.42 -77328.02) scale(52.63)" gradientUnits="userSpaceOnUse">
      <stop offset="0" stop-color="#000" stop-opacity="0"/>
      <stop offset="1" stop-color="#000" stop-opacity=".62"/>
    </linearGradient>
    <radialGradient id="radial-gradient-2" cx="-2195.5" cy="1381.78" fx="-2195.5" fy="1381.78" r="7.5" gradientTransform="translate(404486.68 -228907.57) rotate(-11.49) scale(201.11 104.61)" gradientUnits="userSpaceOnUse">
      <stop offset="0" stop-color="#e6f1fd"/>
      <stop offset="0" stop-color="#bdd9f9"/>
      <stop offset=".07" stop-color="#bdd9f9"/>
      <stop offset="1" stop-color="#1c3556" stop-opacity=".1"/>
    </radialGradient>
  </defs>
  <g>
    <path class="cls-8" d="M2325.47,1246.05c.16,597.16-470.53,1081.42-1051.37,1081.58-580.84.21-1051.89-483.79-1052.05-1080.95v-.68c-.16-597.21,470.53-1081.47,1051.37-1081.63,580.84-.16,1051.84,483.74,1052.05,1080.95v.74Z"/>
    <path class="cls-2" d="M1376.68,179.32l-421.05,26.32c-9.32.48-18.37,3.31-26.32,8.21l-368.42,236.84c-26.17,16.15-34.3,50.45-18.15,76.63,4.21,6.83,9.85,12.66,16.52,17.11,48.58,32.74,96.68,70.42,110.21,105.26,29.11,77.16,62.16,190.21,90.47,287.84,12.41,43.54,25.57,86.86,39.47,129.95,5.95,18,10.84,34.11,16.42,47.68s9.11,23.89,23.05,39.47c2.11,1.79,4.26,3.42,6.58,4.95,24.89,20.26,50.84,31.37,82.21,41.11s67.58,17.42,102,23.05,67.42,7.68,97.05,8.21,50.53,7,85.53-14.79c1.68-1,3.37-2.11,4.95-3.26,15-11.95,16.53-19.95,19.74-26.32s5.95-11.68,8.21-18.11c4.58-12.84,8.74-27.26,13.16-44.42,20.98-82.67,35.83-166.78,44.42-251.63,3.79-37.26,8.32-61.95,0-95.37-.42-1.74.53-3.16,0-4.95h-1.74c-8.42-40.68-30-99.58-67.42-166.11-33.37-59.14-78.08-111.12-131.58-152.95,1.89-2,6.16-5.58,16.42-9.89l205.63,1.58c6.16-.05,12.26-1.21,18.11-3.26,4.84-1.58,9.95,1.79,34.53-9.89,12.32-5.79,27.37-19.16,34.53-32.89s10.16-25.37,11.53-37.84l13.16-120.05c3.76-30.58-17.97-58.42-48.56-62.19-3.53-.44-7.1-.53-10.66-.29h0Z"/>
    <path id="b" class="cls-4" d="M1379.95,235.21l-13.16,119.89c-3.68,34.11-18.05,25.79-43.32,34l-216.63-.79c-63.89,20.53-70.89,54.53-66.58,83.58,121.37,67.47,197.16,259,208.16,315.89,15.58,54.84-44.47,364.58-65.79,381.58-35.95,22.37-248.95-8.95-302.63-52.63-28.84-32.37-96.68-324.58-157.89-486.84-22.53-58.05-82.95-98.84-131.58-131.58l368.42-236.84,421-26.26Z"/>
    <path class="cls-5" d="M328.95,845.42c-20.43,1.92-37.49,16.38-42.74,36.21l-126.63,432.58c-5.96,20.46,2.03,42.42,19.74,54.26,48.58,32.68,98.84,70.84,113.47,108.53,1.36,2.9,3.02,5.65,4.95,8.21.42,1.42,1,2.05,1.63,4.95,2.26,9.79,4.89,26.79,8.21,46.05,6.68,38.53,15.89,90.79,27.95,144.74s26.89,109.68,49.37,157.89,52.53,92.84,105.26,110.21c-12.79-4.21-2.16.53,4.95,4.95s16.42,10.47,27.95,18.11c23.05,15.26,52.53,34.42,82.21,54.26s59.53,40.89,83.89,55.89c12.16,7.53,23.21,13.05,32.89,18.11,4.84,2.53,9.21,4.47,14.79,6.58s8.84,7.32,31.26,3.26c25.79-4.63,33.74-19,37.84-26.32s5-12.84,6.58-18.11c3.11-10.47,6.32-20.95,8.21-32.89,3.84-23.95,6.63-53.47,9.89-82.21,3.26-28.74,6.58-57.84,9.89-77.32,1.37-8,2.42-11.53,3.26-14.79,3.63-3.11,8.79-2.68,11.53-6.58,10.74-15.11,11.95-30.79,11.53-42.74-.89-23.95-8.53-42.26-18.11-62.53-19.16-40.58-50.53-87.26-85.53-136.53-67.53-95.11-144.74-188.74-179.26-226.95-2.89-9.47-4.53-19.21-8.21-29.58-4.58-12.95-9.74-27.05-13.16-39.47,72.79,31.05,148.21,59.05,231.89,69.05,4.98.22,9.97-.33,14.79-1.63,26.12-4.38,51.56-12.13,75.68-23.05,14.21-6.42,29.26-13,42.74-24.68s28.47-30.42,31.26-55.89c1.27-11.59-1.64-23.26-8.21-32.89-93.53-139.79-227.95-175.53-368.42-226.95l-80.68-98.74c-4.94-5.73-11.13-10.23-18.11-13.16l-129.95-55.89c-7.63-3.81-16.13-5.51-24.63-4.95h0Z"/>
    <path id="e" class="cls-6" d="M552.32,1059.53c148.42,55.37,270.16,83.58,356.79,213.05-3.68,34.05-78.21,57-108.47,61.95-89.89-10.79-172.63-43.05-253.84-79.89-80.32-17.32-10.42,124.37-6.11,153.42,57.37,62.42,341.89,411.26,263.79,420.74-19.16,2.37-27.42,231.32-45.26,234.47s-234.84-154.63-254.32-161c-125.11-41.21-145.63-431.53-166.05-443.21-22.47-58.05-82.95-98.84-131.58-131.58l126.53-432.21,130.63,55.84,87.89,108.42h0Z"/>
  </g>
  <g>
    <path d="M562.53,555.95c-6.11.63-11.63,3.89-15.16,8.95s-4.58,11.42-2.95,17.37l36.21,126.63,250,1111.84-23.05,121.68c-2.07,11.35,5.45,22.24,16.8,24.31.97.18,1.95.29,2.93.32h363.47c11.62-.36,20.75-10.07,20.4-21.69-.05-1.56-.27-3.11-.66-4.63l-23.05-116.79,62.53-238.47,77.32,241.84-34.53,111.84c-3.87,10.9,1.84,22.88,12.74,26.74,2.25.8,4.61,1.2,6.99,1.2l409.53,1.68c11.54.04,20.93-9.29,20.96-20.83,0-2.43-.41-4.84-1.23-7.12l-47.68-128.32,187.47-1077.32,70.74-149.68c4.81-10.52.18-22.95-10.34-27.76-2.43-1.11-5.04-1.74-7.71-1.87h-356.95c-11.56-.42-21.27,8.61-21.69,20.17-.05,1.51.05,3.02.32,4.51l21.37,121.68-123.37,695.74-192.42-743.37c-3.88-10.9-15.85-16.59-26.75-12.72-5.94,2.11-10.61,6.78-12.72,12.72l-185.84,738.47-154.63-690.79,19.74-121.68c.88-6.75-1.58-13.5-6.58-18.11-3.84-4.11-9.17-6.48-14.79-6.58h-315.79c-.54-.05-1.09-.05-1.63,0Z"/>
    <path d="M555.95,539.47c-20.52,4.82-33.24,25.36-28.42,45.87.14.61.3,1.21.47,1.81l36.16,125h-1.63l250,1108.53-23.05,118.42c-3.34,20.93,10.91,40.6,31.84,43.94,1.99.32,4,.48,6.01.48h363.47c21.22.1,38.5-17.01,38.61-38.23.01-2.63-.24-5.25-.77-7.82l-23.05-111.84,46.05-176,57.58,177.63-32.89,106.89c-3.42,11.53-1.21,23.95,5.84,33.68s18.32,15.47,30.32,15.68l409.58,1.68c21.22-.05,38.38-17.29,38.33-38.51-.01-4.25-.73-8.47-2.12-12.49l-46.05-125,185.84-1065.79,70.74-149.68c8.72-19.38.09-42.15-19.29-50.88-4.79-2.16-9.98-3.31-15.24-3.39h-356.95c-21.19.03-38.34,17.23-38.31,38.42,0,1.99.16,3.98.47,5.95l19.74,118.42-106.89,611.89-172.68-664.47c-3.67-20.9-23.59-34.87-44.49-31.2-15.93,2.8-28.4,15.27-31.2,31.2l-167.74,664.47-136.53-616.79,18.11-113.47c3.37-20.86-10.81-40.51-31.67-43.88-2.04-.33-4.11-.49-6.17-.49h-315.79c-2.73-.31-5.48-.32-8.21-.05h0Z"/>
    <path d="M552.63,523.05c-29.53,6.21-48.43,35.18-42.22,64.7.31,1.48.68,2.95,1.12,4.4l36.21,123.37v3.26l248.37,1098.68-23.05,118.42c-2.79,16,1.63,32.37,12.11,44.84,10.47,12.32,25.95,19.42,42.16,19.32h363.47c30.23.36,55.03-23.85,55.39-54.08.05-3.93-.33-7.86-1.12-11.71l-23-111.89,31.26-115.16,37.84,120.05-31.26,102c-8.84,28.91,7.44,59.51,36.35,68.35,5.28,1.61,10.77,2.42,16.29,2.39l409.53,1.63c30.23-.45,54.36-25.32,53.91-55.55-.09-5.72-1.07-11.4-2.91-16.82l-44.42-120.05,185.84-1062.53,69.05-146.37c12.5-27.49.35-59.91-27.15-72.41-6.97-3.17-14.52-4.84-22.17-4.9h-356.89c-30.14-.29-54.81,23.9-55.11,54.04-.03,3.39.25,6.78.85,10.11l19.74,115.16-95.37,536.21-152.95-592.11c-8.2-29.07-38.41-45.99-67.47-37.79-18.31,5.16-32.63,19.48-37.79,37.79l-151.37,601.95-121.68-547.68,18.11-115.16c4.39-29.79-16.2-57.5-46-61.89-2.75-.41-5.54-.6-8.32-.58h-315.79c-3.83-.42-7.7-.42-11.53,0Z"/>
    <path d="M555.95,503.32c-40.89,4.2-70.63,40.75-66.42,81.64.42,4.09,1.18,8.14,2.27,12.1l36.21,123.37v3.26l248.37,1097.05-21.37,110.21c-7.97,40.29,18.24,79.41,58.53,87.38,4.56.9,9.19,1.37,13.84,1.41h363.47c24.16.11,46.84-11.63,60.84-31.26,14,19.63,36.68,31.37,60.84,31.26l409.53,1.68c24.26-.21,46.89-12.21,60.58-32.21s16.89-45.37,8.47-68.11l-41.11-113.47,182.58-1052.63,69.05-144.74c11.21-23.16,9.68-50.42-4-72.21-13.74-21.73-37.71-34.86-63.42-34.74h-356.89c-41.1-.37-74.72,32.64-75.1,73.74-.04,4.5.33,8.99,1.1,13.42l19.74,111.84-78.95,442.42-129.95-503.26c-9.46-39.97-49.53-64.7-89.5-55.24-27.38,6.48-48.76,27.86-55.24,55.24l-129.95,518.11-103.63-460.53,18.11-110.21c6.16-40.61-21.76-78.52-62.37-84.69-3.85-.58-7.74-.87-11.63-.84h-315.79c-2.73-.16-5.48-.16-8.21,0ZM1254.95,1779.63l16.42,49.37-18.11,55.89-11.53-55.89,13.21-49.37Z"/>
    <path id="m" d="M563.74,577.32l37.42,126.21,250.84,1115.95-24.68,126.68h363.89l-25.11-122.11,82.63-313.32,99.53,317.42-35.37,118,409.95.84-50.37-133.84,188.42-1080.63,73.26-155.42-356.84.21,20.68,125.58-139.26,793.84-216.89-837.16-207.26,822.37-174.32-782.89,19.68-121.74h-316.21Z"/>
  </g>
  <g>
    <path class="cls-9" d="M564.16,577.32l177.84,131.37,238.05,1107.11-152.95,130.37,24.89-127.05-250-1115.16-37.84-126.63Z"/>
    <path class="cls-9" d="M980.26,1815.79l-153.16,130.37,364.53-.42-140.63-129.11-70.74-.84h0Z"/>
    <path class="cls-9" d="M879.11,578.53l-136.95,130.53,238.05,1106.68,70.11.63-14.11-344.32-169.42-768.11,12.32-125.42h0Z"/>
    <path class="cls-9" d="M1191.42,1946.16l-140.21-129.32,196.74-755.95.84,449.42-82.63,313.74,25.26,122.11h0Z"/>
    <path class="cls-9" d="M1241.79,657.89l6.58,399.68-197.58,759.68-12.95-341.95,203.95-817.42Z"/>
    <path class="cls-9" d="M563.74,577.32l178.47,131.58,137.74-131.16-316.21-.42Z"/>
    <path class="cls-9" d="M1241.37,658.74l6.58,401.74,181.11,756.89,112.95.58-300.63-1159.21h0Z"/>
    <path class="cls-9" d="M1247.95,1060.89l.84,448.58,99.79,318.47-35.37,117.68,116.89-127.79-182.16-756.95h0Z"/>
    <path class="cls-9" d="M1541.53,1817.26l-111,.42-118.11,128.47,410.16.74-181.05-129.63h0Z"/>
    <path class="cls-9" d="M1860.53,730.79l73.32-152.58-197.47,111.68-195.63,1127.68,182.26,129.68-50.47-134,188-1082.47h0Z"/>
    <path class="cls-9" d="M1598,702.32l-21.26-123.79,159.84,110.63-195.84,1127.26-82.16-319.89,139.42-794.21Z"/>
    <path class="cls-9" d="M1576.53,578.16l159.05,112.21,199.11-112.89-358.16.68Z"/>
  </g>
  <g>
    <path class="cls-7" d="M1248.37,47.74C585.58,47.74,47.74,586.32,47.74,1250.05s537.84,1202.26,1200.63,1202.26,1200.63-538.58,1200.63-1202.32S1911.21,47.74,1248.37,47.74ZM1243.42,254.95c543.63,0,983.58,441,983.58,986.84s-439.95,988.47-983.58,988.47-985.21-442.63-985.21-988.47c.05-545.84,441.58-986.84,985.21-986.84h0Z"/>
    <path class="cls-1" d="M1248.37,29.63C575.68,29.63,29.63,576.47,29.63,1250.05s546.05,1220.42,1218.74,1220.42,1218.74-546.89,1218.74-1220.42S1921.05,29.63,1248.37,29.63ZM1243.42,273.05c533.74,0,965.47,432.74,965.47,968.74s-431.74,970.42-965.47,970.42-967.11-434.42-967.11-970.42,433.37-968.74,967.11-968.74Z"/>
    <path class="cls-3" d="M1248.37,0C559.68,0,0,560.47,0,1250s559.68,1250,1248.37,1250,1248.37-560.47,1248.37-1250S1937.11,0,1248.37,0ZM1243.42,302.63c517.74,0,935.84,419.05,935.84,939.16s-418.26,940.79-935.84,940.79-937.47-420.84-937.47-940.79,419.74-939.16,937.47-939.16Z"/>
    <path id="x" class="cls-9" d="M1248.37,65.79C595.21,65.79,65.79,595.95,65.79,1250s529.42,1184.21,1182.58,1184.21,1182.58-530.11,1182.58-1184.21S1901.53,65.79,1248.37,65.79h0ZM1243.42,236.84c553.32,0,1001.63,449.53,1001.63,1004.95s-448.37,1006.58-1001.63,1006.58S240.16,1797.21,240.16,1241.79,690.16,236.84,1243.42,236.84Z"/>
    <path class="cls-9" d="M1218.53,73.53c-620.11,0-1121.68,502.26-1121.68,1123.37s501.63,1123.37,1121.68,1123.37,1121.74-502.26,1121.74-1123.37S1838.63,73.53,1218.53,73.53ZM1213.58,122.84c586.37,0,1062.53,477.47,1062.53,1065.79s-476,1067.42-1062.53,1067.42S149.47,1777.11,149.47,1188.63,627.21,122.84,1213.58,122.84h0Z"/>
  </g>
</svg>